<svg width="150" height="150" viewBox="0 0 150 150" fill="none" xmlns="http://www.w3.org/2000/svg">
<circle cx="75" cy="75" r="75" fill="#0042FF"/>
<path d="M96.2639 48.7619H88.0135V45.5602H96.2639C97.6744 45.5602 98.8274 44.4072 98.8274 42.9967C98.8274 41.5862 97.6744 40.4332 96.2639 40.4332H93.7675V37.2316H96.2639C99.4431 37.2316 102.029 39.8175 102.029 42.9967C102.029 46.1759 99.4431 48.7619 96.2639 48.7619Z" fill="#0D8BFF"/>
<path d="M92.1778 33C95.2451 33 95.6817 35.4292 95.4802 36.5934C93.7787 46.3662 85.2597 53.7881 75.0056 53.7881C64.7514 53.7881 56.2325 46.3662 54.5309 36.5934C54.3294 35.4292 54.766 33 57.8333 33H92.1778ZM31.1345 57.0345H118.854V114.552H31.1345V57.0345Z" fill="#F8E53F"/>
<path d="M31.1345 82.1411H40.3811V86.5853H31.1345V82.1411ZM45.7433 69.1668H54.9899V73.611H45.7433V69.1668ZM74.222 67.7675H83.4686V72.2117H74.222V67.7675Z" fill="black"/>
<path d="M109.619 74.3748H118.865V78.819H109.619V74.3748ZM108.096 101.7H117.343V106.145H108.096V101.7Z" fill="black"/>
<path d="M72.2405 93.3044H81.4871V97.7486H72.2405V93.3044ZM34.963 105.439H44.2096V109.883H34.963V105.439Z" fill="black"/>
<path d="M29.1307 59.2734V62.1168C29.1307 65.7326 32.0637 68.6656 35.6795 68.6656C39.2953 68.6656 42.2282 65.7326 42.2282 62.1168V59.2734H29.1307Z" fill="#0D8BFF"/>
<path d="M42.2395 59.2734V62.1168C42.2395 65.7326 45.1724 68.6656 48.7883 68.6656C52.4041 68.6656 55.337 65.7326 55.337 62.1168V59.2734H42.2395Z" fill="#3D3D3D"/>
<path d="M55.3481 59.2734V62.1168C55.3481 65.7326 58.2811 68.6656 61.8969 68.6656C65.5127 68.6656 68.4456 65.7326 68.4456 62.1168V59.2734H55.3481Z" fill="#0D8BFF"/>
<path d="M68.4457 59.2734V62.1168C68.4457 65.7326 71.3786 68.6656 74.9944 68.6656C78.6102 68.6656 81.5432 65.7326 81.5432 62.1168V59.2734H68.4457Z" fill="#3D3D3D"/>
<path d="M81.5543 59.2734V62.1168C81.5543 65.7326 84.4873 68.6656 88.1031 68.6656C91.7189 68.6656 94.6518 65.7326 94.6518 62.1168V59.2734H81.5543Z" fill="#0D8BFF"/>
<path d="M94.6631 59.2734V62.1168C94.6631 65.7326 97.596 68.6656 101.212 68.6656C104.828 68.6656 107.761 65.7326 107.761 62.1168V59.2734H94.6631Z" fill="#3D3D3D"/>
<path d="M107.761 59.2734V62.1168C107.761 65.7326 110.694 68.6656 114.309 68.6656C117.925 68.6656 120.858 65.7326 120.858 62.1168V59.2734H107.761Z" fill="#0D8BFF"/>
<path d="M122.548 59.9003C122.548 61.0757 121.586 62.0385 120.41 62.0385H29.5897C28.4143 62.0385 27.4515 61.0757 27.4515 59.9003V54.8852C27.4515 53.7098 28.4143 52.7471 29.5897 52.7471H120.421C121.597 52.7471 122.56 53.7098 122.56 54.8852L122.548 59.9003Z" fill="#E8F4FF"/>
<path d="M79.2147 76.5912H108.063V114.552H79.2147V76.5912Z" fill="#3D3D3D"/>
<path d="M84.297 82.0428H102.969V95.4538H84.297V82.0428Z" fill="#0D8BFF"/>
<path d="M89.2114 86.2969H98.0662V89.4985H89.2114V86.2969Z" fill="#3D3D3D"/>
<path d="M84.3082 101.723C84.3082 102.144 84.4757 102.549 84.7738 102.847C85.0719 103.145 85.4762 103.312 85.8978 103.312C86.3194 103.312 86.7238 103.145 87.0219 102.847C87.32 102.549 87.4874 102.144 87.4874 101.723C87.4874 101.301 87.32 100.897 87.0219 100.599C86.7238 100.301 86.3194 100.133 85.8978 100.133C85.4762 100.133 85.0719 100.301 84.7738 100.599C84.4757 100.897 84.3082 101.301 84.3082 101.723Z" fill="#333E48"/>
<path d="M125 115.167C125 115.637 124.608 116.029 124.138 116.029H25.862C25.3918 116.029 25 115.637 25 115.167V112.078C25 111.607 25.3918 111.216 25.862 111.216H124.138C124.608 111.216 125 111.607 125 112.078V115.167Z" fill="#E8F4FF"/>
<path d="M75.1624 111.216H112.104V116.018H75.1624V111.216Z" fill="#A4A9AD"/>
<path d="M38.1534 76.5912H72.207V100.122H38.1534V76.5912Z" fill="#333E48"/>
<path d="M59.6356 82.3228H50.7137L48.7546 89.1066H61.5947L59.6356 82.3228Z" fill="#0D8BFF"/>
<path d="M53.5795 76.5912H56.7811V82.3116H53.5795V76.5912Z" fill="#3D3D3D"/>
<path d="M42.8888 100.122V95.4538C42.8888 94.5695 43.6052 93.853 44.4896 93.853C45.374 93.853 46.0904 94.5695 46.0904 95.4538V100.122H42.8888ZM64.259 100.122V95.4538C64.259 94.5695 64.9754 93.853 65.8598 93.853C66.7442 93.853 67.4606 94.5695 67.4606 95.4538V100.122H64.259Z" fill="#0D8BFF"/>
</svg>
