<svg width="150" height="150" viewBox="0 0 150 150" fill="none" xmlns="http://www.w3.org/2000/svg">
<circle cx="75" cy="75" r="75" fill="#13191D"/>
<path fill-rule="evenodd" clip-rule="evenodd" d="M25 98.3704H69.4444V87.2593H25V98.3704Z" fill="#C0CCDB"/>
<path fill-rule="evenodd" clip-rule="evenodd" d="M25 120.593H39.8148V109.481H25V120.593Z" fill="#E9EFFA"/>
<path fill-rule="evenodd" clip-rule="evenodd" d="M39.8148 120.593H54.6296V109.481H39.8148V120.593Z" fill="#E9EFFA"/>
<path fill-rule="evenodd" clip-rule="evenodd" d="M54.6296 120.593H69.4445V109.481H54.6296V120.593Z" fill="#E9EFFA"/>
<path fill-rule="evenodd" clip-rule="evenodd" d="M25 109.481H39.8148V98.3704H25V109.481Z" fill="#E9EFFA"/>
<path fill-rule="evenodd" clip-rule="evenodd" d="M39.8148 109.481H54.6296V98.3704H39.8148V109.481Z" fill="#E9EFFA"/>
<path fill-rule="evenodd" clip-rule="evenodd" d="M54.6296 109.481H69.4445V98.3704H54.6296V109.481Z" fill="#E9EFFA"/>
<path fill-rule="evenodd" clip-rule="evenodd" d="M80.5555 39.1111H125V28H80.5555V39.1111Z" fill="#0D8BFF"/>
<path fill-rule="evenodd" clip-rule="evenodd" d="M80.5555 61.3333H95.3704V50.2222H80.5555V61.3333Z" fill="#E9EFFA"/>
<path fill-rule="evenodd" clip-rule="evenodd" d="M95.3704 61.3333H110.185V50.2222H95.3704V61.3333Z" fill="#E9EFFA"/>
<path fill-rule="evenodd" clip-rule="evenodd" d="M110.185 61.3333H125V50.2222H110.185V61.3333Z" fill="#E9EFFA"/>
<path fill-rule="evenodd" clip-rule="evenodd" d="M80.5555 50.2222H95.3704V39.1111H80.5555V50.2222Z" fill="#E9EFFA"/>
<path fill-rule="evenodd" clip-rule="evenodd" d="M95.3704 50.2222H110.185V39.1111H95.3704V50.2222Z" fill="#E9EFFA"/>
<path fill-rule="evenodd" clip-rule="evenodd" d="M110.185 50.2222H125V39.1111H110.185V50.2222Z" fill="#E9EFFA"/>
<path d="M69.4445 42.8148C57.1722 42.8148 47.2222 52.7648 47.2222 65.037V76.1482" stroke="#F8E53F" stroke-width="2" stroke-linecap="round" stroke-linejoin="round"/>
<path d="M80.5555 105.778C92.8278 105.778 102.778 95.8278 102.778 83.5556V72.4445" stroke="#0D8BFF" stroke-width="2" stroke-linecap="round" stroke-linejoin="round"/>
<path d="M95.3704 79.8519L102.778 72.4445L110.185 79.8519" stroke="#0D8BFF" stroke-width="2" stroke-linecap="round" stroke-linejoin="round"/>
<path d="M39.8148 68.7407L47.2222 76.1481L54.6296 68.7407" stroke="#F8E53F" stroke-width="2" stroke-linecap="round" stroke-linejoin="round"/>
<path d="M25 109.481H69.4444" stroke="#C0CCDB" stroke-width="2" stroke-linecap="round" stroke-linejoin="round"/>
<path d="M39.8148 98.3704V120.593" stroke="#C0CCDB" stroke-width="2" stroke-linecap="round" stroke-linejoin="round"/>
<path d="M54.6296 98.3704V120.593" stroke="#C0CCDB" stroke-width="2" stroke-linecap="round" stroke-linejoin="round"/>
<path d="M69.4444 98.3704V120.593H25V98.3704" stroke="white" stroke-width="2" stroke-linecap="round" stroke-linejoin="round"/>
<path d="M25 98.3704H69.4444" stroke="#FEFEFE" stroke-width="2" stroke-linecap="round" stroke-linejoin="round"/>
<path d="M25 98.3704V87.2593H69.4444V98.3704" stroke="#FEFEFE" stroke-width="2" stroke-linecap="round" stroke-linejoin="round"/>
<path d="M80.5555 50.2222H125" stroke="#C0CCDB" stroke-width="2" stroke-linecap="round" stroke-linejoin="round"/>
<path d="M95.3704 39.1111V61.3333" stroke="#C0CCDB" stroke-width="2" stroke-linecap="round" stroke-linejoin="round"/>
<path d="M110.185 39.1111V61.3333" stroke="#C0CCDB" stroke-width="2" stroke-linecap="round" stroke-linejoin="round"/>
<path d="M125 39.1111V61.3333H80.5555V39.1111" stroke="#3D3D3D" stroke-width="2" stroke-linecap="round" stroke-linejoin="round"/>
<path d="M80.5555 39.1111H125" stroke="#3D3D3D" stroke-width="2" stroke-linecap="round" stroke-linejoin="round"/>
<path d="M80.5555 39.1111V28H125V39.1111" stroke="#3D3D3D" stroke-width="2" stroke-linecap="round" stroke-linejoin="round"/>
</svg>
