<svg width="150" height="150" viewBox="0 0 150 150" fill="none" xmlns="http://www.w3.org/2000/svg">
<path d="M69.9444 87.7593V97.8704H26.5V87.7593H69.9444Z" fill="white" stroke="#F8E53F"/>
<path fill-rule="evenodd" clip-rule="evenodd" d="M26 120.593H40.8148V109.481H26V120.593Z" fill="white"/>
<path fill-rule="evenodd" clip-rule="evenodd" d="M40.8149 120.593H55.6298V109.481H40.8149V120.593Z" fill="white"/>
<path fill-rule="evenodd" clip-rule="evenodd" d="M55.6296 120.593H70.4445V109.481H55.6296V120.593Z" fill="white"/>
<path fill-rule="evenodd" clip-rule="evenodd" d="M26 109.481H40.8148V98.3704H26V109.481Z" fill="white"/>
<path fill-rule="evenodd" clip-rule="evenodd" d="M40.8149 109.481H55.6298V98.3704H40.8149V109.481Z" fill="white"/>
<path fill-rule="evenodd" clip-rule="evenodd" d="M55.6296 109.481H70.4445V98.3704H55.6296V109.481Z" fill="white"/>
<path d="M125.5 28.5V38.6111H82.0557V28.5H125.5Z" fill="white" stroke="#0D8BFF"/>
<path fill-rule="evenodd" clip-rule="evenodd" d="M81.5557 61.3333H96.3705V50.2222H81.5557V61.3333Z" fill="white"/>
<path fill-rule="evenodd" clip-rule="evenodd" d="M96.3704 61.3333H111.185V50.2222H96.3704V61.3333Z" fill="white"/>
<path fill-rule="evenodd" clip-rule="evenodd" d="M111.185 61.3333H126V50.2222H111.185V61.3333Z" fill="white"/>
<path fill-rule="evenodd" clip-rule="evenodd" d="M81.5557 50.2222H96.3705V39.1111H81.5557V50.2222Z" fill="white"/>
<path fill-rule="evenodd" clip-rule="evenodd" d="M96.3704 50.2222H111.185V39.1111H96.3704V50.2222Z" fill="white"/>
<path fill-rule="evenodd" clip-rule="evenodd" d="M111.185 50.2222H126V39.1111H111.185V50.2222Z" fill="white"/>
<path d="M70.4444 39.8148C58.1722 39.8148 48.2222 49.7648 48.2222 62.037V73.1482" stroke="#0D8BFF" stroke-width="2" stroke-linecap="round" stroke-linejoin="round"/>
<path d="M81.5557 105.778C93.8279 105.778 103.778 95.8278 103.778 83.5556V72.4445" stroke="#F8E53F" stroke-width="2" stroke-linecap="round" stroke-linejoin="round"/>
<path d="M96.3704 79.8519L103.778 72.4445L111.185 79.8519" stroke="#F8E53F" stroke-width="2" stroke-linecap="round" stroke-linejoin="round"/>
<path d="M40.8149 68.7407L48.2223 76.1481L55.6298 68.7407" stroke="#0D8BFF" stroke-width="2" stroke-linecap="round" stroke-linejoin="round"/>
<path d="M26 109.481H70.4444" stroke="#F8E53F" stroke-width="2" stroke-linecap="round" stroke-linejoin="round"/>
<path d="M40.8149 98.3704V120.593" stroke="#F8E53F" stroke-width="2" stroke-linecap="round" stroke-linejoin="round"/>
<path d="M55.6296 98.3704V120.593" stroke="#F8E53F" stroke-width="2" stroke-linecap="round" stroke-linejoin="round"/>
<path d="M70.4444 98.3704V120.593H26V98.3704" stroke="#F8E53F" stroke-width="2" stroke-linecap="round" stroke-linejoin="round"/>
<path d="M26 98.3704H70.4444" stroke="#F8E53F" stroke-width="2" stroke-linecap="round" stroke-linejoin="round"/>
<path d="M26 98.3704V87.2593H70.4444V98.3704" stroke="#F8E53F" stroke-width="2" stroke-linecap="round" stroke-linejoin="round"/>
<path d="M81.5557 50.2222H103.778H126" stroke="#0D8BFF" stroke-width="2" stroke-linecap="round" stroke-linejoin="round"/>
<path d="M96.3704 39.1111V61.3333" stroke="#0D8BFF" stroke-width="2" stroke-linecap="round" stroke-linejoin="round"/>
<path d="M111.185 39.1111V61.3333" stroke="#0D8BFF" stroke-width="2" stroke-linecap="round" stroke-linejoin="round"/>
<path d="M126 39.1111V61.3333H81.5557V39.1111" stroke="#0D8BFF" stroke-width="2" stroke-linecap="round" stroke-linejoin="round"/>
<path d="M81.5557 39.1111H126" stroke="#0D8BFF" stroke-width="2" stroke-linecap="round" stroke-linejoin="round"/>
<path d="M81.5557 39.1111V28H126V39.1111" stroke="#0D8BFF" stroke-width="2" stroke-linecap="round" stroke-linejoin="round"/>
<circle cx="75" cy="75" r="73.5" stroke="#0D8BFF" stroke-width="3"/>
</svg>
