<svg width="150" height="150" viewBox="0 0 150 150" fill="none" xmlns="http://www.w3.org/2000/svg">
<circle cx="75" cy="75" r="75" fill="#0042FF"/>
<path d="M92.5511 117.287H46.6016C44.5571 117.287 42.8992 115.563 42.8992 113.436V35.5641C42.8992 33.4377 44.5571 31.7133 46.6016 31.7133H106.737C108.782 31.7133 110.44 33.4377 110.44 35.5641V98.3182L92.5511 117.287Z" fill="#FFD632"/>
<path d="M92.8379 118H46.6016C44.1832 118 42.2136 115.951 42.2136 113.436V35.5639C42.2136 33.0486 44.1832 31 46.6016 31H106.737C109.156 31 111.126 33.0486 111.126 35.5639V98.6162L92.8379 118ZM46.6016 32.4262C44.9437 32.4262 43.5849 33.8265 43.5849 35.5639V113.449C43.5849 115.173 44.9312 116.587 46.6016 116.587H92.2645L109.754 98.0457V35.5639C109.754 33.8395 108.408 32.4262 106.737 32.4262H46.6016Z" fill="#333336"/>
<path d="M56.8611 108.911H50.491V103.064C50.491 102.778 50.7154 102.545 50.9896 102.545C51.2639 102.545 51.4882 102.778 51.4882 103.064V107.874H56.8611C57.1353 107.874 57.3597 108.107 57.3597 108.392C57.3597 108.678 57.1353 108.911 56.8611 108.911ZM92.414 117.287H91.0428V97.605H110.44V99.0312H92.414V117.287Z" fill="#333336"/>
<path d="M38.6855 54.857V100.043C38.6855 100.833 39.3088 101.482 40.0693 101.482H83.5132C84.872 101.482 85.5576 99.7703 84.5977 98.7719L41.2909 53.729C40.3311 52.7306 38.6855 53.4438 38.6855 54.857ZM48.0475 75.0447L64.3904 92.0427H48.0475V75.0447Z" fill="#0042FF"/>
<path d="M83.5133 102.195H40.0694C38.9349 102.195 38 101.235 38 100.043V54.857C38 53.9105 38.5236 53.0937 39.3713 52.7306C40.2189 52.3676 41.1414 52.5621 41.7772 53.2233L85.0715 98.2533C85.7197 98.9275 85.8943 99.8869 85.5452 100.756C85.2086 101.65 84.4233 102.195 83.5133 102.195ZM40.2314 53.9753C40.0818 53.9753 39.9572 54.0142 39.8948 54.0402C39.7702 54.092 39.3713 54.3124 39.3713 54.844V100.043C39.3713 100.444 39.6829 100.769 40.0694 100.769H83.5133C84.0368 100.769 84.2363 100.354 84.2861 100.224C84.336 100.094 84.4731 99.6536 84.0992 99.2646L40.8048 54.2346C40.6179 54.0402 40.4059 53.9753 40.2314 53.9753ZM66.0484 92.7558H47.3619V73.3331L66.0484 92.7558ZM48.7332 91.3296H62.7325L48.7332 76.7691V91.3296Z" fill="#333336"/>
<path d="M42.812 62.6623H39.0098C38.6359 62.6623 38.3242 62.3382 38.3242 61.9492C38.3242 61.5602 38.6359 61.2361 39.0098 61.2361H42.812C43.1859 61.2361 43.4976 61.5602 43.4976 61.9492C43.4976 62.3382 43.1984 62.6623 42.812 62.6623ZM41.3534 67.9783H39.0098C38.6359 67.9783 38.3242 67.6541 38.3242 67.2651C38.3242 66.8762 38.6359 66.552 39.0098 66.552H41.3534C41.7274 66.552 42.0391 66.8762 42.0391 67.2651C42.0391 67.6541 41.7274 67.9783 41.3534 67.9783ZM42.812 73.2942H39.0098C38.6359 73.2942 38.3242 72.9701 38.3242 72.5811C38.3242 72.1921 38.6359 71.868 39.0098 71.868H42.812C43.1859 71.868 43.4976 72.1921 43.4976 72.5811C43.4976 72.9701 43.1984 73.2942 42.812 73.2942ZM41.3534 78.6231H39.0098C38.6359 78.6231 38.3242 78.299 38.3242 77.91C38.3242 77.521 38.6359 77.1969 39.0098 77.1969H41.3534C41.7274 77.1969 42.0391 77.521 42.0391 77.91C42.0391 78.299 41.7274 78.6231 41.3534 78.6231ZM42.812 83.9391H39.0098C38.6359 83.9391 38.3242 83.6149 38.3242 83.2259C38.3242 82.837 38.6359 82.5128 39.0098 82.5128H42.812C43.1859 82.5128 43.4976 82.837 43.4976 83.2259C43.4976 83.6149 43.1984 83.9391 42.812 83.9391ZM41.3534 89.255H39.0098C38.6359 89.255 38.3242 88.9309 38.3242 88.5419C38.3242 88.1529 38.6359 87.8288 39.0098 87.8288H41.3534C41.7274 87.8288 42.0391 88.1529 42.0391 88.5419C42.0391 88.9309 41.7274 89.255 41.3534 89.255Z" fill="#333336"/>
<path d="M42.812 94.5839H39.0098C38.6359 94.5839 38.3242 94.2598 38.3242 93.8708C38.3242 93.4819 38.6359 93.1577 39.0098 93.1577H42.812C43.1859 93.1577 43.4976 93.4819 43.4976 93.8708C43.4976 94.2598 43.1984 94.5839 42.812 94.5839Z" fill="#333336"/>
<path d="M89.0481 60.1209C92.5386 65.5535 90.8432 69.0154 89.1977 71.1936C85.408 76.1725 84.872 82.9665 89.1977 87.4656C93.5234 91.9647 100.517 91.9647 104.842 87.4656C109.044 83.0961 109.156 76.0817 105.179 71.5696L91.6036 57.45L89.0481 60.1209ZM100.779 83.2777C98.6968 85.4429 95.3185 85.4429 93.2367 83.2777C91.1548 81.1124 91.1548 77.5987 93.2367 75.4334C95.3185 73.2681 98.6968 73.2681 100.779 75.4334C102.873 77.5857 102.873 81.0994 100.779 83.2777Z" fill="#0042FF"/>
<path d="M97.0138 91.5368C93.8724 91.5368 90.9304 90.2662 88.7115 87.9583C86.5174 85.6763 85.3955 82.746 85.4703 79.4917C85.5451 76.4706 86.667 73.3589 88.6616 70.7528C91.7407 66.7074 90.1824 63.1548 88.4871 60.5228L88.1754 60.0301L91.6285 56.4386L105.703 71.0769C109.953 75.9131 109.804 83.3295 105.341 87.9583C103.097 90.2662 100.155 91.5368 97.0138 91.5368ZM89.9207 60.2116C93.6605 66.4611 90.7185 70.3379 89.7337 71.6344C85.8942 76.6911 85.8692 82.9924 89.6838 86.9599C91.641 88.9955 94.2464 90.1235 97.0263 90.1235C99.7937 90.1235 102.399 88.9955 104.369 86.9599C108.308 82.8627 108.445 76.328 104.693 72.0623L91.6036 58.4612L89.9207 60.2116ZM97.0138 85.6115C95.468 85.6115 93.9347 85.0021 92.7629 83.7833C90.4193 81.3457 90.4193 77.3653 92.7629 74.9277C95.1065 72.4902 98.9336 72.4902 101.277 74.9277C103.621 77.3653 103.621 81.3457 101.277 83.7833C100.093 85.0021 98.5596 85.6115 97.0138 85.6115ZM97.0138 74.5128C95.8295 74.5128 94.6328 74.9796 93.7228 75.9261C91.9152 77.8061 91.9152 80.879 93.7228 82.759C95.5303 84.639 98.4848 84.639 100.292 82.759C102.1 80.879 102.1 77.8061 100.292 75.9261C99.3948 74.9796 98.1981 74.5128 97.0138 74.5128Z" fill="#333336"/>
<path d="M92.2271 56.8018L105.79 70.9086C110.128 75.0446 116.872 74.9279 121.073 70.5585C125.399 66.0594 125.399 58.7856 121.073 54.2865C116.748 49.7874 110.228 50.3449 105.429 54.2865C103.347 55.998 100.006 57.7613 94.7826 54.1309L92.2271 56.8018ZM109.517 66.3446C107.436 64.1793 107.436 60.6656 109.517 58.5004C111.599 56.3351 114.977 56.3351 117.059 58.5004C119.141 60.6656 119.141 64.1793 117.059 66.3446C114.977 68.5099 111.599 68.5099 109.517 66.3446Z" fill="#0042FF"/>
<path d="M113.257 74.6556C110.428 74.6556 107.585 73.5924 105.329 71.4401L105.304 71.4142L91.2549 56.8018L94.708 53.2103L95.1817 53.5344C100.018 56.8925 102.973 55.4015 105.017 53.7159C107.535 51.6544 110.515 50.4745 113.419 50.3967C116.561 50.3189 119.366 51.4858 121.56 53.7678C123.779 56.0757 125 59.1486 125 62.403C125 65.6703 123.779 68.7302 121.56 71.0381C119.278 73.4498 116.274 74.6556 113.257 74.6556ZM106.276 70.4028C110.378 74.3055 116.673 74.1499 120.6 70.0657C122.557 68.0301 123.641 65.3203 123.641 62.4289C123.641 59.5505 122.557 56.8407 120.6 54.7921C116.785 50.8246 110.727 50.8505 105.865 54.844C105.08 55.4922 103.297 56.9574 100.567 56.9574C98.9838 56.9574 97.089 56.4647 94.8949 55.0384L93.1996 56.8018L106.276 70.4028ZM113.282 68.6784C111.736 68.6784 110.203 68.069 109.019 66.8502C106.675 64.4127 106.675 60.4322 109.019 57.9946C111.362 55.5571 115.19 55.5571 117.533 57.9946C119.877 60.4322 119.877 64.4127 117.533 66.8502C116.374 68.069 114.828 68.6784 113.282 68.6784ZM113.282 57.5927C112.086 57.5927 110.901 58.0595 109.991 59.006C108.184 60.886 108.184 63.9589 109.991 65.8389C111.799 67.7189 114.753 67.7189 116.561 65.8389C118.368 63.9589 118.368 60.886 116.561 59.006C115.663 58.0595 114.479 57.5927 113.282 57.5927Z" fill="#333336"/>
<path d="M84.5287 57.2213C86.7628 59.5449 89.0713 61.7458 91.3224 63.6981C93.5734 65.6504 95.7229 67.316 97.648 68.5998C99.5732 69.8836 101.236 70.7604 102.543 71.1802C103.849 71.6 104.773 71.5546 105.261 71.0465C105.75 70.5384 105.793 69.5776 105.39 68.219C104.986 66.8604 104.143 65.1305 102.909 63.1282C101.674 61.1258 100.073 58.8902 98.1956 56.549C96.3184 54.2078 94.2024 51.8069 91.9682 49.4832C89.7341 47.1596 87.4256 44.9588 85.1746 43.0065C82.9235 41.0542 80.7741 39.3885 78.8489 38.1048C76.9237 36.821 75.2604 35.9441 73.9542 35.5243C72.6479 35.1045 71.7241 35.15 71.2356 35.6581C70.7472 36.1661 70.7035 37.1269 71.1072 38.4856C71.5108 39.8442 72.3539 41.5741 73.5883 43.5764C74.8227 45.5787 76.4242 47.8143 78.3013 50.1555C80.1785 52.4967 82.2945 54.8977 84.5287 57.2213Z" fill="#0042FF"/>
<path d="M104.082 72.1793C102.536 72.1793 100.255 71.1809 97.2879 69.1971C93.3362 66.5521 88.6366 62.4809 84.0491 57.7225C79.4741 52.964 75.5473 48.076 73.0167 43.9529C70.2368 39.4408 69.4764 36.4717 70.7604 35.1491C72.0444 33.8137 74.8866 34.6046 79.2248 37.4959C83.1765 40.128 87.8761 44.2122 92.4636 48.9706C97.0386 53.729 100.965 58.6171 103.496 62.7402C106.276 67.2523 107.036 70.2214 105.752 71.5439C105.341 71.9718 104.792 72.1793 104.082 72.1793ZM72.4183 35.953C72.0942 35.953 71.8574 36.0178 71.7202 36.1734C71.4211 36.4846 71.446 37.2755 71.7826 38.3517C72.169 39.6223 73.0042 41.3079 74.176 43.2009C76.6568 47.2332 80.5088 52.0305 85.0214 56.7241C89.5341 61.4177 94.1465 65.4241 98.0234 68.0043C99.8559 69.2231 101.464 70.0788 102.686 70.4937C103.72 70.8308 104.481 70.8567 104.78 70.5585C105.079 70.2474 105.054 69.4564 104.718 68.3803C104.331 67.1097 103.496 65.4241 102.324 63.5311C99.8435 59.4988 95.9915 54.7015 91.4788 50.0079C86.9661 45.3143 82.3537 41.3079 78.4768 38.7277C76.6443 37.5089 75.0362 36.6532 73.8145 36.2383C73.266 36.0438 72.7923 35.953 72.4183 35.953Z" fill="#333336"/>
<path d="M87.5887 56.8299C87.8375 57.0888 88.133 57.2941 88.4582 57.4342C88.7834 57.5744 89.1319 57.6465 89.4839 57.6465C89.8359 57.6465 90.1844 57.5744 90.5096 57.4343C90.8348 57.2942 91.1303 57.0888 91.3791 56.83C91.628 56.5711 91.8255 56.2638 91.9601 55.9255C92.0948 55.5873 92.1641 55.2248 92.1641 54.8587C92.1641 54.4926 92.0948 54.1301 91.96 53.7919C91.8253 53.4537 91.6278 53.1464 91.3789 52.8875C91.1301 52.6286 90.8346 52.4233 90.5094 52.2832C90.1842 52.143 89.8357 52.0709 89.4837 52.0709C89.1317 52.0709 88.7832 52.143 88.458 52.2831C88.1328 52.4232 87.8373 52.6286 87.5884 52.8874C87.3396 53.1463 87.1421 53.4536 87.0074 53.7919C86.8728 54.1301 86.8034 54.4926 86.8035 54.8587C86.8035 55.2248 86.8728 55.5873 87.0076 55.9255C87.1423 56.2637 87.3397 56.571 87.5887 56.8299Z" fill="#FFD632"/>
<path d="M89.4848 58.3576C88.5872 58.3576 87.7395 57.9946 87.1038 57.3333C85.7948 55.9719 85.7948 53.7548 87.1038 52.3934C88.4127 51.032 90.5444 51.032 91.8533 52.3934C92.4891 53.0546 92.8381 53.9363 92.8381 54.8698C92.8381 55.8034 92.4891 56.685 91.8533 57.3463C91.23 57.9946 90.3823 58.3576 89.4848 58.3576ZM89.4848 52.7823C88.9737 52.7823 88.4626 52.9898 88.0761 53.3917C87.3032 54.1956 87.3032 55.5181 88.0761 56.322C88.4501 56.7109 88.9487 56.9314 89.4848 56.9314C90.0208 56.9314 90.5194 56.7109 90.8934 56.322C91.2674 55.933 91.4793 55.4144 91.4793 54.8569C91.4793 54.2993 91.2674 53.7807 90.8934 53.3917C90.507 52.9898 89.9959 52.7823 89.4848 52.7823Z" fill="#333336"/>
<path d="M50.9896 46.7015C50.7154 46.7015 50.491 46.4681 50.491 46.1829V40.3353H56.8611C57.1353 40.3353 57.3597 40.5687 57.3597 40.854C57.3597 41.1392 57.1353 41.3726 56.8611 41.3726H51.4882V46.1829C51.4882 46.4681 51.2639 46.7015 50.9896 46.7015ZM102.499 46.7015C102.225 46.7015 102 46.4681 102 46.1829V41.3726H96.6275C96.3533 41.3726 96.1289 41.1392 96.1289 40.854C96.1289 40.5687 96.3533 40.3353 96.6275 40.3353H102.998V46.1829C102.998 46.4681 102.773 46.7015 102.499 46.7015Z" fill="#333336"/>
</svg>
