<svg width="150" height="150" viewBox="0 0 150 150" fill="none" xmlns="http://www.w3.org/2000/svg">
<circle cx="75" cy="75" r="75" fill="#0042FF"/>
<path d="M80.0089 26.4851H68.9972V34.1718H80.0089V26.4851Z" fill="#F8E53F"/>
<path d="M80.0089 77.1709H68.9972V117.282H80.0089V77.1709Z" fill="#F8E53F"/>
<path d="M79.0569 58.4703H93.6052L87.2741 46.3212L93.6052 34.1719H35.1107L26.7994 46.3212L35.1107 58.4703H75.0965" fill="#F8E53F"/>
<path d="M79.0573 58.4703H93.6052L90.6878 52.8723H113.896L122.207 65.0214L113.896 77.1709H55.4012L61.7323 65.0214L59.2309 58.4703H75.0965" fill="#0D8BFF"/>
<path d="M74.5034 50.9826C77.0778 50.9826 79.1648 48.8956 79.1648 46.3212C79.1648 43.7468 77.0778 41.6598 74.5034 41.6598C71.929 41.6598 69.842 43.7468 69.842 46.3212C69.842 48.8956 71.929 50.9826 74.5034 50.9826Z" fill="#0D8BFF"/>
<path d="M58.7641 122.03H31.7015V125H58.7641V122.03Z" fill="#3D3D3D"/>
<path d="M117.305 122.03H62.9198V125H117.305V122.03Z" fill="#3D3D3D"/>
<path d="M74.5031 40.1747C71.114 40.1747 68.3568 42.9321 68.3568 46.3212C68.3568 49.7103 71.114 52.4678 74.5031 52.4678C77.8925 52.4678 80.6499 49.7103 80.6499 46.3212C80.6499 42.9321 77.8925 40.1747 74.5031 40.1747ZM74.5031 49.4975C72.7519 49.4975 71.3271 48.0727 71.3271 46.3212C71.3271 44.5697 72.7519 43.145 74.5031 43.145C76.2546 43.145 77.6796 44.5697 77.6796 46.3212C77.6796 48.0727 76.2546 49.4975 74.5031 49.4975Z" fill="#3D3D3D"/>
<path d="M106.647 109.064V106.093C103.401 106.093 100.475 107.484 98.4293 109.7V106.072C98.4293 101.541 102.116 97.8541 106.647 97.8541V94.8838C102.501 94.8838 98.8768 97.1529 96.9442 100.513C95.0115 97.1529 91.3875 94.8838 87.2412 94.8838V97.8541C91.7725 97.8541 95.459 101.541 95.459 106.072V109.7C93.4135 107.484 90.4871 106.093 87.2412 106.093V109.064C91.2654 109.064 94.6208 111.972 95.322 115.796H81.4941V78.6561H114.679L124.006 65.0216L114.679 51.3871H91.5887L88.9487 46.3212L96.0537 32.6867H81.4941V25H67.5121V32.6867H34.3273L25 46.3212L34.3275 59.9557H58.2085L60.1067 64.9273L52.9529 78.6561H67.5123V115.796H31.7016V118.767H67.5123H81.4943H117.305V115.796H98.5666C99.2675 111.972 102.623 109.064 106.647 109.064ZM70.4824 27.9703H78.5238V32.6867H70.4824V27.9703ZM57.8497 75.6858L63.3578 65.1157L61.3875 59.9555H75.0962V56.9852H57.0739H35.8941L28.5986 46.321L35.8941 35.657H67.5121H81.4941H91.1562L85.5992 46.321L88.239 51.3869L91.1562 56.9852H79.057L79.0566 59.9555H96.0537L93.1365 54.3572H113.112L120.408 65.0214L113.112 75.6858H81.4943H67.5123H57.8497ZM70.4824 115.796V78.6561H78.5238V115.796H70.4824Z" fill="#3D3D3D"/>
</svg>
