<svg width="150" height="150" viewBox="0 0 150 150" fill="none" xmlns="http://www.w3.org/2000/svg">
<circle cx="75" cy="75" r="75" fill="#13191D"/>
<path d="M91.8458 88.3377C91.8591 106.651 77.0134 121.49 58.6932 121.49C40.3731 121.49 25.5273 106.651 25.5406 88.3377C25.5273 70.0374 40.3731 55.1851 58.6932 55.1851C77.0134 55.1851 91.8591 70.0374 91.8458 88.3377Z" fill="#FF15A1" stroke="#373737" stroke-width="5"/>
<path d="M75.2695 28.0066C67.9645 28.0034 60.8631 30.4139 55.0695 34.8634C49.276 39.3129 45.115 45.5521 43.2335 52.6106C41.352 59.6692 41.8555 67.1517 44.6657 73.8945C47.4759 80.6374 52.4353 86.2628 58.7728 89.896C58.7462 89.3788 58.6932 88.8682 58.6932 88.3444C58.6927 82.5328 60.2205 76.8233 63.1234 71.7887C66.0262 66.754 70.202 62.5712 75.2319 59.66C80.2617 56.7488 85.9687 55.2115 91.7802 55.2023C97.5918 55.1931 103.304 56.7124 108.343 59.6077C107.955 51.096 104.302 43.0611 98.1419 37.1742C91.9821 31.2873 83.7901 28.0014 75.2695 28V28.0066Z" fill="#1583FF"/>
<path d="M91.8459 55.1851C87.4917 55.1833 83.1799 56.0396 79.1568 57.7051C75.1338 59.3706 71.4784 61.8125 68.3995 64.8914C65.3207 67.9702 62.8787 71.6256 61.2133 75.6487C59.5478 79.6717 58.6915 83.9835 58.6932 88.3377C58.6932 88.8681 58.7463 89.3787 58.7728 89.8959C63.8118 92.7912 69.5236 94.3105 75.3352 94.3013C81.1467 94.2921 86.8537 92.7548 91.8835 89.8436C96.9133 86.9323 101.089 82.7496 103.992 77.7149C106.895 72.6803 108.423 66.9707 108.422 61.1592C108.422 60.6354 108.369 60.1248 108.343 59.6076C103.327 56.7108 97.6377 55.1854 91.8459 55.1851Z" fill="#00CF2D"/>
<path d="M108.343 59.6077C108.369 60.1248 108.422 60.6354 108.422 61.1592C108.423 66.9718 106.896 72.6824 103.993 77.718C101.089 82.7535 96.9128 86.937 91.8819 89.8484C86.8511 92.7598 81.143 94.2968 75.3304 94.3051C69.5179 94.3135 63.8054 92.7929 58.7662 89.8959C59.1552 98.4076 62.8104 106.442 68.9715 112.327C75.1325 118.213 83.3253 121.497 91.8459 121.497C99.151 121.5 106.252 119.09 112.046 114.64C117.839 110.191 122 103.952 123.882 96.893C125.763 89.8344 125.26 82.352 122.45 75.6091C119.64 68.8662 114.68 63.2409 108.343 59.6077Z" fill="#F8FF15"/>
<path d="M58.7728 89.896C59.028 95.4381 60.671 100.827 63.5511 105.569C66.4311 110.311 70.456 114.253 75.2563 117.035C80.0634 114.262 84.0953 110.324 86.9806 105.584C89.8658 100.843 91.5116 95.4529 91.7663 89.9093C86.7481 92.796 81.0589 94.3121 75.2696 94.3053C69.4784 94.307 63.7888 92.7906 58.7728 89.896Z" fill="#EF0000"/>
<path d="M75.2563 59.6475C70.2179 62.5525 66.0341 66.7341 63.1263 71.7709C60.2185 76.8077 58.6895 82.5219 58.6932 88.3378C58.6932 88.8616 58.7463 89.3721 58.7728 89.8893C63.7885 92.7871 69.4785 94.3138 75.2711 94.3161C81.0637 94.3184 86.7549 92.7963 91.7729 89.9026C91.7928 89.3788 91.8459 88.8616 91.8459 88.3378C91.8488 82.518 90.3166 76.8005 87.4039 71.762C84.4912 66.7236 80.3011 62.5492 75.2563 59.6475Z" fill="#383027"/>
<path d="M58.6932 55.1851C52.6594 55.1851 47.0235 56.8228 42.1567 59.6275C41.8721 65.7124 43.273 71.7578 46.2048 77.0974C49.1367 82.437 53.4858 86.8635 58.7728 89.8892C58.7462 89.3787 58.6932 88.8681 58.6932 88.3443C58.6883 82.5273 60.2167 76.8118 63.1246 71.7737C66.0324 66.7356 70.2169 62.553 75.2562 59.6474C70.2253 56.7254 64.5111 55.1859 58.6932 55.1851Z" fill="#5100CC"/>
<path d="M75.2695 28.0066C66.7408 28.0046 58.5396 31.2908 52.3721 37.1816C46.2046 43.0725 42.5457 51.1144 42.1567 59.6342C38.2961 61.7597 34.8982 64.6338 32.1619 68.0884C29.4255 71.543 27.4057 75.5087 26.2206 79.7534C25.0356 83.9981 24.709 88.4365 25.2601 92.8089C25.8112 97.1813 27.2289 101.4 29.4302 105.218C31.6315 109.036 34.5722 112.376 38.0802 115.044C41.5882 117.711 45.593 119.652 49.8602 120.753C54.1275 121.854 58.5715 122.093 62.9322 121.456C67.2929 120.818 71.4826 119.318 75.2563 117.041C82.8724 121.429 91.9196 122.611 100.407 120.328C108.895 118.045 116.129 112.484 120.516 104.868C124.904 97.2515 126.086 88.2043 123.803 79.7165C121.52 71.2286 115.959 63.9952 108.343 59.6077C107.955 51.096 104.302 43.0611 98.142 37.1742C91.9821 31.2873 83.7901 28.0014 75.2695 28V28.0066Z" stroke="#373737" stroke-width="5"/>
</svg>
