<svg width="26" height="25" viewBox="0 0 26 25" fill="none" xmlns="http://www.w3.org/2000/svg">
<path d="M21.5248 3.63487C19.1749 1.29206 16.0494 0.00124057 12.7234 0C5.86609 0 0.28484 5.559 0.281727 12.3927C0.281105 14.4812 0.810221 16.5393 1.81368 18.3611L0.204538 24.216C0.146024 24.43 0.205783 24.6582 0.362651 24.8158C0.480924 24.9349 0.640904 25 0.805241 25C0.858153 25 0.911065 24.9932 0.963354 24.9795L6.99342 23.404C8.75382 24.3146 10.7271 24.7953 12.7185 24.7959C19.5808 24.7959 25.162 19.2363 25.1651 12.4026C25.1664 9.09091 23.8735 5.97707 21.5248 3.63487ZM19.2901 17.1571C19.0106 17.9374 17.6411 18.6898 17.0261 18.7457C16.4111 18.8015 15.834 19.0223 13.0011 17.9095C9.59169 16.5697 7.43912 13.0874 7.27167 12.8647C7.10422 12.642 5.90219 11.0529 5.90219 9.40849C5.90219 7.76412 6.7687 6.95588 7.07683 6.62155C7.38434 6.2866 7.74725 6.20286 7.97072 6.20286C8.1942 6.20286 8.41767 6.20224 8.61313 6.21092C8.85279 6.22085 9.11735 6.23201 9.36822 6.78841C9.66639 7.44901 10.3181 9.10207 10.4009 9.26955C10.485 9.43641 10.541 9.6318 10.4289 9.8551C10.3175 10.0778 10.2615 10.2173 10.094 10.4121C9.92597 10.6075 9.74109 10.8476 9.59044 10.9977C9.42237 11.1645 9.24745 11.3456 9.44354 11.6794C9.63962 12.0137 10.3125 13.1079 11.3091 13.9936C12.5908 15.1319 13.6715 15.4842 14.0064 15.6523C14.3413 15.8198 14.5374 15.7919 14.7335 15.5686C14.9295 15.3459 15.572 14.5928 15.7954 14.2591C16.0195 13.9248 16.243 13.98 16.5505 14.0917C16.858 14.2033 18.5076 15.0109 18.8425 15.179C19.1774 15.3465 19.4009 15.4296 19.4849 15.5692C19.5696 15.7081 19.5696 16.3768 19.2901 17.1571Z" fill="#00B828"/>
</svg>
