<svg width="150" height="150" viewBox="0 0 150 150" fill="none" xmlns="http://www.w3.org/2000/svg">
<path d="M96.2637 48.7619H88.0134V45.5602H96.2637C97.6742 45.5602 98.8273 44.4072 98.8273 42.9967C98.8273 41.5862 97.6742 40.4332 96.2637 40.4332H93.7674V37.2316H96.2637C99.443 37.2316 102.029 39.8175 102.029 42.9967C102.029 46.1759 99.443 48.7619 96.2637 48.7619Z" fill="#0D8BFF"/>
<path d="M92.1778 33C95.2451 33 95.6817 35.4292 95.4802 36.5934C93.7787 46.3662 85.2597 53.7881 75.0056 53.7881C64.7514 53.7881 56.2325 46.3662 54.5309 36.5934C54.3294 35.4292 54.766 33 57.8333 33H92.1778ZM31.1345 57.0345H118.854V114.552H31.1345V57.0345Z" fill="#0D8BFF"/>
<path d="M31.1345 82.1411H40.3811V86.5853H31.1345V82.1411ZM45.7433 69.1668H54.9899V73.611H45.7433V69.1668ZM74.222 67.7675H83.4686V72.2117H74.222V67.7675Z" fill="#0D8BFF"/>
<path d="M109.619 74.3748H118.865V78.819H109.619V74.3748ZM108.096 101.7H117.343V106.145H108.096V101.7Z" fill="#0D8BFF"/>
<path d="M72.2406 93.3044H81.4873V97.7486H72.2406V93.3044ZM34.9631 105.439H44.2097V109.883H34.9631V105.439Z" fill="#0D8BFF"/>
<path d="M29.1309 59.2734V62.1168C29.1309 65.7326 32.0638 68.6656 35.6796 68.6656C39.2954 68.6656 42.2284 65.7326 42.2284 62.1168V59.2734H29.1309Z" fill="#0D8BFF"/>
<path d="M42.2395 59.2734V62.1168C42.2395 65.7326 45.1724 68.6656 48.7883 68.6656C52.4041 68.6656 55.337 65.7326 55.337 62.1168V59.2734H42.2395Z" fill="white"/>
<path d="M55.3481 59.2734V62.1168C55.3481 65.7326 58.2811 68.6656 61.8969 68.6656C65.5127 68.6656 68.4456 65.7326 68.4456 62.1168V59.2734H55.3481Z" fill="#0D8BFF"/>
<path d="M68.4456 59.2734V62.1168C68.4456 65.7326 71.3785 68.6656 74.9943 68.6656C78.6101 68.6656 81.5431 65.7326 81.5431 62.1168V59.2734H68.4456Z" fill="white"/>
<path d="M81.5544 59.2734V62.1168C81.5544 65.7326 84.4874 68.6656 88.1032 68.6656C91.719 68.6656 94.6519 65.7326 94.6519 62.1168V59.2734H81.5544Z" fill="#0D8BFF"/>
<path d="M94.6631 59.2734V62.1168C94.6631 65.7326 97.596 68.6656 101.212 68.6656C104.828 68.6656 107.761 65.7326 107.761 62.1168V59.2734H94.6631Z" fill="white"/>
<path d="M107.76 59.2734V62.1168C107.76 65.7326 110.693 68.6656 114.309 68.6656C117.925 68.6656 120.858 65.7326 120.858 62.1168V59.2734H107.76Z" fill="#0D8BFF"/>
<path d="M122.048 59.8992V59.9003C122.048 60.7996 121.31 61.5385 120.41 61.5385H29.5898C28.6905 61.5385 27.9517 60.7996 27.9517 59.9003V54.8852C27.9517 53.9859 28.6905 53.2471 29.5898 53.2471H120.422C121.32 53.2471 122.059 53.9854 122.06 54.8842C122.06 54.8846 122.06 54.8849 122.06 54.8852L122.048 59.8992Z" fill="white" stroke="#0D8BFF"/>
<path d="M79.2148 76.5912H108.063V114.552H79.2148V76.5912Z" fill="white"/>
<path d="M84.2969 82.0428H102.969V95.4538H84.2969V82.0428Z" fill="#0D8BFF"/>
<path d="M89.2114 86.2969H98.0662V89.4985H89.2114V86.2969Z" fill="white"/>
<path d="M84.3081 101.723C84.3081 102.144 84.4756 102.549 84.7737 102.847C85.0718 103.145 85.4761 103.312 85.8977 103.312C86.3193 103.312 86.7236 103.145 87.0217 102.847C87.3199 102.549 87.4873 102.144 87.4873 101.723C87.4873 101.301 87.3199 100.897 87.0217 100.599C86.7236 100.301 86.3193 100.133 85.8977 100.133C85.4761 100.133 85.0718 100.301 84.7737 100.599C84.4756 100.897 84.3081 101.301 84.3081 101.723Z" fill="white"/>
<path d="M124.5 115.167C124.5 115.361 124.332 115.529 124.138 115.529H25.862C25.6679 115.529 25.5 115.361 25.5 115.167V112.078C25.5 111.884 25.6679 111.716 25.862 111.716H124.138C124.332 111.716 124.5 111.884 124.5 112.078V115.167Z" fill="white" stroke="#0D8BFF"/>
<path d="M75.1624 111.216H112.104V116.018H75.1624V111.216Z" fill="white"/>
<path d="M38.1536 76.5912H72.2071V100.122H38.1536V76.5912Z" fill="white"/>
<path d="M59.6356 82.3228H50.7137L48.7546 89.1066H61.5947L59.6356 82.3228Z" fill="#0D8BFF"/>
<path d="M53.5793 76.5912H56.781V82.3116H53.5793V76.5912Z" fill="white"/>
<path d="M42.8887 100.122V95.4538C42.8887 94.5695 43.6051 93.853 44.4895 93.853C45.3738 93.853 46.0903 94.5695 46.0903 95.4538V100.122H42.8887ZM64.2589 100.122V95.4538C64.2589 94.5695 64.9753 93.853 65.8597 93.853C66.744 93.853 67.4605 94.5695 67.4605 95.4538V100.122H64.2589Z" fill="#0D8BFF"/>
<circle cx="75" cy="75" r="73.5" stroke="#0D8BFF" stroke-width="3"/>
</svg>
