<svg width="150" height="150" viewBox="0 0 150 150" fill="none" xmlns="http://www.w3.org/2000/svg">
<path d="M69.5041 26.992H79.5019V33.6649H69.5041V26.992Z" fill="white" stroke="#0D8BFF" stroke-width="1.01386"/>
<path d="M69.5041 77.6778H79.5019V116.775H69.5041V77.6778Z" fill="white" stroke="#0D8BFF" stroke-width="1.01386"/>
<mask id="path-3-inside-1_391_38" fill="white">
<path d="M79.0569 58.4703H93.6052L87.2741 46.3212L93.6052 34.1719H35.1107L26.7994 46.3212L35.1107 58.4703H75.0965"/>
</mask>
<path d="M79.0569 58.4703H93.6052L87.2741 46.3212L93.6052 34.1719H35.1107L26.7994 46.3212L35.1107 58.4703H75.0965" fill="white"/>
<path d="M93.6052 58.4703V59.4842H95.2768L94.5043 58.0018L93.6052 58.4703ZM87.2741 46.3212L86.375 45.8527L86.1308 46.3212L86.375 46.7897L87.2741 46.3212ZM93.6052 34.1719L94.5043 34.6404L95.2768 33.158H93.6052V34.1719ZM35.1107 34.1719V33.158H34.5759L34.2739 33.5994L35.1107 34.1719ZM26.7994 46.3212L25.9626 45.7487L25.571 46.3212L25.9627 46.8936L26.7994 46.3212ZM35.1107 58.4703L34.2739 59.0427L34.5759 59.4842H35.1107V58.4703ZM79.0569 59.4842H93.6052V57.4564H79.0569V59.4842ZM94.5043 58.0018L88.1732 45.8526L86.375 46.7897L92.7061 58.9388L94.5043 58.0018ZM88.1732 46.7897L94.5043 34.6404L92.7061 33.7033L86.375 45.8527L88.1732 46.7897ZM93.6052 33.158H35.1107V35.1857H93.6052V33.158ZM34.2739 33.5994L25.9626 45.7487L27.6362 46.8936L35.9475 34.7443L34.2739 33.5994ZM25.9627 46.8936L34.2739 59.0427L35.9475 57.8978L27.6362 45.7487L25.9627 46.8936ZM35.1107 59.4842H75.0965V57.4564H35.1107V59.4842Z" fill="#0D8BFF" mask="url(#path-3-inside-1_391_38)"/>
<mask id="path-5-inside-2_391_38" fill="white">
<path d="M79.0573 58.4703H93.6052L90.6878 52.8723H113.896L122.207 65.0214L113.896 77.1709H55.4012L61.7323 65.0214L59.2309 58.4703H75.0965"/>
</mask>
<path d="M79.0573 58.4703H93.6052L90.6878 52.8723H113.896L122.207 65.0214L113.896 77.1709H55.4012L61.7323 65.0214L59.2309 58.4703H75.0965" fill="white"/>
<path d="M93.6052 58.4703V59.4842H95.2769L94.5043 58.0018L93.6052 58.4703ZM90.6878 52.8723V51.8585H89.0161L89.7887 53.3409L90.6878 52.8723ZM113.896 52.8723L114.733 52.2999L114.431 51.8585H113.896V52.8723ZM122.207 65.0214L123.044 65.5939L123.435 65.0214L123.044 64.449L122.207 65.0214ZM113.896 77.1709V78.1848H114.431L114.733 77.7434L113.896 77.1709ZM55.4012 77.1709L54.5021 76.7024L53.7297 78.1848H55.4012V77.1709ZM61.7323 65.0214L62.6314 65.49L62.8421 65.0857L62.6795 64.6598L61.7323 65.0214ZM59.2309 58.4703V57.4565H57.7586L58.2838 58.832L59.2309 58.4703ZM79.0573 59.4842H93.6052V57.4565H79.0573V59.4842ZM94.5043 58.0018L91.5869 52.4038L89.7887 53.3409L92.7061 58.9389L94.5043 58.0018ZM90.6878 53.8862H113.896V51.8585H90.6878V53.8862ZM113.059 53.4448L121.37 65.5939L123.044 64.449L114.733 52.2999L113.059 53.4448ZM121.37 64.449L113.059 76.5985L114.733 77.7434L123.044 65.5939L121.37 64.449ZM113.896 76.1571H55.4012V78.1848H113.896V76.1571ZM56.3004 77.6395L62.6314 65.49L60.8332 64.5529L54.5021 76.7024L56.3004 77.6395ZM62.6795 64.6598L60.1781 58.1087L58.2838 58.832L60.7852 65.3831L62.6795 64.6598ZM59.2309 59.4842H75.0965V57.4565H59.2309V59.4842Z" fill="#0D8BFF" mask="url(#path-5-inside-2_391_38)"/>
<path d="M78.6579 46.3212C78.6579 48.6156 76.7979 50.4756 74.5034 50.4756C72.209 50.4756 70.349 48.6156 70.349 46.3212C70.349 44.0267 72.209 42.1667 74.5034 42.1667C76.7979 42.1667 78.6579 44.0267 78.6579 46.3212Z" fill="white" stroke="#0D8BFF" stroke-width="1.01386"/>
<path d="M32.2085 122.537H58.2572V124.493H32.2085V122.537Z" fill="#0D8BFF" stroke="#0D8BFF" stroke-width="1.01386"/>
<path d="M63.4267 122.537H116.798V124.493H63.4267V122.537Z" fill="#0D8BFF" stroke="#0D8BFF" stroke-width="1.01386"/>
<path d="M68.8637 46.3212C68.8637 43.2121 71.394 40.6816 74.5031 40.6816C77.6125 40.6816 80.143 43.2121 80.143 46.3212C80.143 49.4303 77.6125 51.9608 74.5031 51.9608C71.394 51.9608 68.8637 49.4304 68.8637 46.3212ZM70.8202 46.3212C70.8202 48.3527 72.4719 50.0044 74.5031 50.0044C76.5346 50.0044 78.1865 48.3527 78.1865 46.3212C78.1865 44.2897 76.5346 42.638 74.5031 42.638C72.4719 42.638 70.8202 44.2898 70.8202 46.3212Z" fill="#0D8BFF" stroke="#0D8BFF" stroke-width="1.01386"/>
<path d="M98.5666 116.303H116.798V118.26H81.4943H67.5123H32.2085V116.303H67.5123H68.0192V115.796V78.6561V78.1491H67.5123H53.7887L60.5563 65.1616L60.6616 64.9595L60.5803 64.7465L58.6821 59.7748L58.5576 59.4487H58.2085H34.5949L25.6142 46.3212L34.5947 33.1937H67.5121H68.019V32.6867V25.5069H80.9871V32.6867V33.1937H81.4941H95.2179L88.4992 46.0869L88.3771 46.3212L88.4992 46.5555L91.1392 51.6214L91.2813 51.8941H91.5887H114.411L123.392 65.0216L114.411 78.1491H81.4941H80.9871V78.6561V115.796V116.303H81.4941H95.322H95.9303L95.8206 115.705C95.1058 111.806 91.7941 108.804 87.7481 108.571V106.612C90.6431 106.748 93.2397 108.043 95.0866 110.044L95.966 110.996V109.7V106.072C95.966 101.431 92.3244 97.6251 87.7481 97.3617V95.4026C91.4922 95.5786 94.7377 97.6935 96.5048 100.765L96.9442 101.529L97.3836 100.765C99.1507 97.6935 102.396 95.5786 106.14 95.4026V97.3617C101.564 97.6251 97.9224 101.431 97.9224 106.072V109.7V110.996L98.8018 110.044C100.649 108.043 103.245 106.748 106.14 106.612V108.571C102.094 108.804 98.7825 111.806 98.0679 115.705L97.9583 116.303H98.5666ZM70.4824 27.4634H69.9755V27.9703V32.6867V33.1937H70.4824H78.5238H79.0307V32.6867V27.9703V27.4634H78.5238H70.4824ZM57.4002 75.4515L57.0139 76.1927H57.8497H67.5123H81.4943H113.112H113.38L113.53 75.972L120.826 65.3076L121.022 65.0214L120.826 64.7352L113.53 54.071L113.38 53.8503H113.112H93.1365H92.3007L92.6869 54.5915L95.2179 59.4485H79.5636L79.5639 57.4921H91.1562H91.992L91.6058 56.7509L88.6886 51.1527L86.1708 46.321L91.6058 35.8913L91.992 35.1501H91.1562H81.4941H67.5121H35.8941H35.6267L35.4757 35.3708L28.1802 46.0348L27.9844 46.321L28.1802 46.6072L35.4757 57.2714L35.6267 57.4921H35.8941H57.0739H74.5893V59.4485H61.3875H60.6513L60.914 60.1363L62.8029 65.0835L57.4002 75.4515ZM69.9755 115.796V116.303H70.4824H78.5238H79.0307V115.796V78.6561V78.1491H78.5238H70.4824H69.9755V78.6561V115.796Z" fill="#0D8BFF" stroke="#0D8BFF" stroke-width="1.01386"/>
<circle cx="75" cy="75" r="73.5" stroke="#0D8BFF" stroke-width="3"/>
</svg>
