<svg width="150" height="150" viewBox="0 0 150 150" fill="none" xmlns="http://www.w3.org/2000/svg">
<path d="M91.8458 88.3377C91.8591 106.651 77.0133 121.49 58.6932 121.49C40.373 121.49 25.5273 106.651 25.5405 88.3377C25.5273 70.0374 40.373 55.1851 58.6932 55.1851C77.0133 55.1851 91.8591 70.0374 91.8458 88.3377Z" fill="#FF15A1"/>
<path d="M75.2696 28.0066C67.9646 28.0034 60.8631 30.4139 55.0696 34.8634C49.276 39.3129 45.115 45.5521 43.2335 52.6106C41.3521 59.6692 41.8556 67.1517 44.6658 73.8945C47.476 80.6374 52.4354 86.2628 58.7728 89.896C58.764 89.7236 58.7522 89.5519 58.7404 89.3802C58.7168 89.0369 58.6933 88.6936 58.6933 88.3444C58.6928 82.5328 60.2206 76.8233 63.1234 71.7887C66.0263 66.754 70.2021 62.5712 75.2319 59.66C80.2618 56.7488 85.9687 55.2115 91.7803 55.2023C97.5918 55.1931 103.304 56.7124 108.343 59.6077C107.955 51.096 104.302 43.0611 98.142 37.1742C91.9822 31.2873 83.7901 28.0014 75.2696 28V28.0066Z" fill="#1583FF"/>
<path d="M75.2696 28.0066C67.9646 28.0034 60.8631 30.4139 55.0696 34.8634C49.276 39.3129 45.115 45.5521 43.2335 52.6106C41.3521 59.6692 41.8556 67.1517 44.6658 73.8945C47.476 80.6374 52.4354 86.2628 58.7728 89.896C58.764 89.7236 58.7522 89.5519 58.7404 89.3802C58.7168 89.0369 58.6933 88.6936 58.6933 88.3444C58.6928 82.5328 60.2206 76.8233 63.1234 71.7887C66.0263 66.754 70.2021 62.5712 75.2319 59.66C80.2618 56.7488 85.9687 55.2115 91.7803 55.2023C97.5918 55.1931 103.304 56.7124 108.343 59.6077C107.955 51.096 104.302 43.0611 98.142 37.1742C91.9822 31.2873 83.7901 28.0014 75.2696 28V28.0066Z" stroke="white"/>
<path d="M91.8457 55.1852C87.4916 55.1834 83.1798 56.0398 79.1567 57.7052C75.1337 59.3707 71.4783 61.8126 68.3994 64.8915C65.3206 67.9703 62.8786 71.6257 61.2132 75.6488C59.5477 79.6718 58.6914 83.9837 58.6931 88.3378C58.6931 88.6924 58.7168 89.0381 58.7405 89.3829C58.7522 89.5538 58.7639 89.7245 58.7727 89.896C63.8117 92.7913 69.5235 94.3106 75.335 94.3014C81.1466 94.2922 86.8536 92.7549 91.8834 89.8437C96.9132 86.9325 101.089 82.7497 103.992 77.715C106.895 72.6804 108.423 66.9709 108.422 61.1593C108.422 60.8101 108.398 60.4668 108.375 60.1235C108.363 59.9518 108.351 59.7802 108.342 59.6077C103.327 56.7109 97.6376 55.1856 91.8457 55.1852Z" fill="#00CF2D"/>
<path d="M91.8457 55.1852C87.4916 55.1834 83.1798 56.0398 79.1567 57.7052C75.1337 59.3707 71.4783 61.8126 68.3994 64.8915C65.3206 67.9703 62.8786 71.6257 61.2132 75.6488C59.5477 79.6718 58.6914 83.9837 58.6931 88.3378C58.6931 88.6924 58.7168 89.0381 58.7405 89.3829C58.7522 89.5538 58.7639 89.7245 58.7727 89.896C63.8117 92.7913 69.5235 94.3106 75.335 94.3014C81.1466 94.2922 86.8536 92.7549 91.8834 89.8437C96.9132 86.9325 101.089 82.7497 103.992 77.715C106.895 72.6804 108.423 66.9709 108.422 61.1593C108.422 60.8101 108.398 60.4668 108.375 60.1235C108.363 59.9518 108.351 59.7802 108.342 59.6077C103.327 56.7109 97.6376 55.1856 91.8457 55.1852Z" stroke="white"/>
<path d="M108.343 59.6078C108.351 59.7802 108.363 59.9519 108.375 60.1235C108.399 60.4668 108.422 60.8101 108.422 61.1593C108.423 66.9719 106.896 72.6825 103.992 77.7181C101.089 82.7537 96.9126 86.9371 91.8818 89.8485C86.851 92.7599 81.1429 94.2969 75.3303 94.3053C69.5178 94.3136 63.8053 92.793 58.7661 89.896C59.1551 98.4077 62.8103 106.442 68.9713 112.328C75.1324 118.213 83.3252 121.497 91.8458 121.497C99.1508 121.5 106.252 119.09 112.046 114.64C117.839 110.191 122 103.952 123.882 96.8931C125.763 89.8345 125.26 82.3521 122.45 75.6092C119.639 68.8664 114.68 63.241 108.343 59.6078Z" fill="#F8FF15"/>
<path d="M108.343 59.6078C108.351 59.7802 108.363 59.9519 108.375 60.1235C108.399 60.4668 108.422 60.8101 108.422 61.1593C108.423 66.9719 106.896 72.6825 103.992 77.7181C101.089 82.7537 96.9126 86.9371 91.8818 89.8485C86.851 92.7599 81.1429 94.2969 75.3303 94.3053C69.5178 94.3136 63.8053 92.793 58.7661 89.896C59.1551 98.4077 62.8103 106.442 68.9713 112.328C75.1324 118.213 83.3252 121.497 91.8458 121.497C99.1508 121.5 106.252 119.09 112.046 114.64C117.839 110.191 122 103.952 123.882 96.8931C125.763 89.8345 125.26 82.3521 122.45 75.6092C119.639 68.8664 114.68 63.241 108.343 59.6078Z" stroke="white"/>
<path d="M58.7729 89.8959C59.0281 95.438 60.6711 100.827 63.5512 105.569C66.4312 110.311 70.4561 114.253 75.2564 117.035C80.0635 114.262 84.0954 110.324 86.9807 105.583C89.866 100.843 91.5118 95.4528 91.7664 89.9092C86.7482 92.7959 81.059 94.312 75.2697 94.3052C69.4785 94.3068 63.7889 92.7905 58.7729 89.8959Z" fill="#EF0000"/>
<path d="M58.7729 89.8959C59.0281 95.438 60.6711 100.827 63.5512 105.569C66.4312 110.311 70.4561 114.253 75.2564 117.035C80.0635 114.262 84.0954 110.324 86.9807 105.583C89.866 100.843 91.5118 95.4528 91.7664 89.9092C86.7482 92.7959 81.059 94.312 75.2697 94.3052C69.4785 94.3068 63.7889 92.7905 58.7729 89.8959Z" stroke="white"/>
<path d="M75.2562 59.6475C70.2178 62.5525 66.034 66.7341 63.1262 71.7709C60.2184 76.8077 58.6894 82.5219 58.6931 88.3378C58.6931 88.687 58.7167 89.0303 58.7403 89.3736C58.7521 89.5453 58.7638 89.7169 58.7727 89.8893C63.7884 92.7871 69.4784 94.3138 75.271 94.3161C81.0636 94.3184 86.7548 92.7963 91.7728 89.9026C91.7805 89.7005 91.7931 89.4995 91.8057 89.2986C91.8257 88.9788 91.8457 88.6595 91.8457 88.3378C91.8487 82.518 90.3165 76.8005 87.4038 71.762C84.4911 66.7236 80.3009 62.5492 75.2562 59.6475Z" fill="#383027"/>
<path d="M75.2562 59.6475C70.2178 62.5525 66.034 66.7341 63.1262 71.7709C60.2184 76.8077 58.6894 82.5219 58.6931 88.3378C58.6931 88.687 58.7167 89.0303 58.7403 89.3736C58.7521 89.5453 58.7638 89.7169 58.7727 89.8893C63.7884 92.7871 69.4784 94.3138 75.271 94.3161C81.0636 94.3184 86.7548 92.7963 91.7728 89.9026C91.7805 89.7005 91.7931 89.4995 91.8057 89.2986C91.8257 88.9788 91.8457 88.6595 91.8457 88.3378C91.8487 82.518 90.3165 76.8005 87.4038 71.762C84.4911 66.7236 80.3009 62.5492 75.2562 59.6475Z" stroke="white"/>
<path d="M58.6933 55.1852C52.6595 55.1852 47.0235 56.8229 42.1567 59.6276C41.8722 65.7125 43.273 71.7579 46.2049 77.0975C49.1368 82.4371 53.4858 86.8637 58.7728 89.8894C58.7641 89.7211 58.7525 89.5529 58.7408 89.3841C58.7171 89.0409 58.6933 88.6956 58.6933 88.3444C58.6883 82.5274 60.2168 76.8119 63.1246 71.7738C66.0325 66.7357 70.2169 62.5531 75.2563 59.6475C70.2254 56.7255 64.5112 55.186 58.6933 55.1852Z" fill="#5100CC"/>
<path d="M58.6933 55.1852C52.6595 55.1852 47.0235 56.8229 42.1567 59.6276C41.8722 65.7125 43.273 71.7579 46.2049 77.0975C49.1368 82.4371 53.4858 86.8637 58.7728 89.8894C58.7641 89.7211 58.7525 89.5529 58.7408 89.3841C58.7171 89.0409 58.6933 88.6956 58.6933 88.3444C58.6883 82.5274 60.2168 76.8119 63.1246 71.7738C66.0325 66.7357 70.2169 62.5531 75.2563 59.6475C70.2254 56.7255 64.5112 55.186 58.6933 55.1852Z" stroke="white"/>
<circle cx="75" cy="75" r="73.5" stroke="#75BDFF" stroke-width="3"/>
</svg>
