<svg width="85" height="85" viewBox="0 0 85 85" fill="none" xmlns="http://www.w3.org/2000/svg">
<circle cx="42.5" cy="42.5" r="42.5" fill="#0D8BFF"/>
<path fill-rule="evenodd" clip-rule="evenodd" d="M15.7512 17L30.0299 17.1733V21.68L16.6219 21.5067C13.8358 21.5067 12.4428 22.5467 12.2687 24.8C12.2687 25.6667 12.6169 26.36 13.1393 26.88C13.8358 27.4 14.5323 27.5733 15.5771 27.5733L22.7164 27.7467C24.1095 27.7467 25.3284 27.92 26.3731 28.0933C27.4179 28.2667 28.2886 28.96 29.3333 29.8267C30.3781 30.6933 30.9005 32.4267 30.9005 35.0267C30.9005 35.72 30.9005 36.24 30.7264 36.9333C30.5522 37.4533 30.3781 38.1467 30.0299 39.0133C29.6816 39.7067 29.1592 40.4 28.2886 41.0933C27.4179 41.6133 26.5473 42.1333 25.5025 42.3067C24.4577 42.48 23.2388 42.6533 21.6716 42.6533L7.21891 42.48V37.9733L20.801 38.1467C22.194 38.1467 23.2388 37.9733 23.9353 37.6267C24.6318 37.28 24.9801 36.5867 24.9801 35.3733V34.8533C24.9801 34.16 24.806 33.64 24.4577 33.2933C24.1095 32.9467 23.5871 32.7733 23.0647 32.6C22.5423 32.4267 21.8458 32.4267 21.1493 32.4267L14.7065 32.2533C11.9204 32.2533 9.83085 31.56 8.26368 30.52C6.69652 29.3067 6 27.5733 6 24.8C6 23.4133 6.17413 22.2 6.69652 21.16C7.21891 20.12 7.74129 19.2533 8.61194 18.7333C9.48259 18.2133 10.3532 17.8667 11.398 17.52C12.2687 17.3467 13.6617 17.1733 15.2289 17.1733L15.7512 17ZM50.403 38.84V42.6533L43.0896 42.48C39.7811 42.48 37.5174 41.6133 35.9503 39.88C34.3831 38.1467 33.6866 35.8933 33.6866 33.12C33.6866 30.3467 34.3831 28.2667 35.602 27.0533C36.8209 25.6667 38.0398 24.9733 39.2587 24.6267C40.4776 24.28 41.8706 24.1067 43.2637 24.1067L50.5771 24.28V28.0933L43.9602 27.92C42.9154 27.92 42.0448 27.92 41.3483 28.0933C40.6517 28.2667 40.3035 28.6133 39.7811 29.1333C39.2587 29.6533 39.0846 30.3467 39.0846 31.3867L50.403 31.56V35.3733L39.0846 35.2C39.0846 36.24 39.2587 36.9333 39.607 37.4533C39.9552 37.9733 40.4776 38.32 41.1741 38.4933C41.8706 38.6667 42.7413 38.6667 43.7861 38.6667L50.403 38.84ZM58.5871 42.8267H53.5373L53.7114 24.4533L62.0697 24.6267C63.6368 24.6267 64.6816 24.8 65.5522 25.32C66.2488 25.6667 66.7712 26.36 66.9453 27.0533C67.1194 27.7467 67.2935 28.7867 67.2935 30V31.2133V32.2533H62.592V30.8667C62.592 29.8267 62.592 29.3067 62.4179 28.96C62.2438 28.6133 62.0697 28.44 61.7214 28.2667C61.3731 28.2667 61.199 28.0933 60.8507 28.0933C60.6766 28.0933 60.1542 28.0933 59.6318 28.0933H58.5871L58.4129 43L58.5871 42.8267ZM70.7761 24.6267H76L75.8259 43H70.602L70.7761 24.6267ZM70.7761 17.8667H76V22.3733H70.7761V17.8667Z" fill="#FEFEFE"/>
<path fill-rule="evenodd" clip-rule="evenodd" d="M29.7783 60.3366C28.0333 62.1188 26.2883 63.5446 24.7179 64.6139C22.4494 66.2178 20.5299 66.9307 18.9594 66.9307C17.389 66.9307 15.993 66.0396 14.7715 64.2574C13.55 62.4752 12.852 60.5149 13.0265 58.3762C13.0265 56.7723 13.55 54.9901 14.4225 53.5644C15.295 51.9604 16.691 50.5347 18.436 49.1089C20.0064 47.8614 21.5769 46.7921 23.3219 46.0792C25.0669 45.3663 26.4628 45.0099 27.5098 45.0099C28.3823 45.0099 29.0803 45.1881 29.4293 45.5446C29.7783 45.901 29.9528 46.4356 29.9528 47.1485C29.9528 48.5743 29.2548 50 27.8588 51.7822C26.4628 53.3861 25.2414 54.2772 24.3689 54.2772C24.0199 54.2772 23.6709 54.099 23.4964 53.9208C23.3219 53.5644 23.1474 53.2079 23.1474 52.4951C21.5769 53.3861 20.3554 54.2772 19.3084 55.1683C18.2615 56.0594 17.389 56.9505 16.691 57.8416V58.3762C16.691 59.4455 17.04 60.5149 17.5635 61.0495C18.087 61.7624 18.9594 62.1188 20.0064 62.1188C21.5769 62.1188 23.3219 61.5842 25.2414 60.5149C26.6373 59.802 28.0333 58.7327 29.6038 57.4851C29.7783 56.4158 30.1273 55.5248 30.6508 54.6337C31.5233 53.0297 32.7447 51.4257 34.3152 50C35.8857 48.5743 37.6307 47.505 39.3756 46.6139C41.1206 45.901 42.8656 45.5446 44.6106 45.5446C46.0065 45.5446 46.879 45.7228 47.577 46.0792C48.275 46.4356 48.4495 47.1485 48.4495 47.8614C48.4495 49.6436 47.0535 51.604 44.4361 53.5644C41.8186 55.5248 38.5032 56.9505 34.6642 57.8416V58.0198C34.6642 59.2673 35.0132 60.1584 35.5367 60.8713C36.2347 61.5842 37.1072 61.9406 38.1542 61.9406C39.5501 61.9406 41.2951 61.4059 43.3891 60.3366C44.7851 59.6238 46.181 58.5545 47.7515 57.3069C48.1005 55.1683 48.973 52.6733 50.369 50C52.114 46.2574 54.5569 42.8713 57.5234 39.3069C59.4429 37.1683 61.1878 35.3861 62.9328 33.9604C64.6778 32.5347 65.8993 32 66.5972 32C66.9462 32 67.1207 32.1782 67.4697 32.5347C67.6442 32.8911 67.8187 33.2475 67.8187 33.9604C67.8187 37.703 66.4227 41.4455 63.9798 45.3663C61.3623 49.2871 57.8724 52.8515 53.1609 56.2376V57.3069C53.1609 58.9109 53.3354 60.1584 53.8589 61.0495C54.3824 61.9406 55.0804 62.297 55.9529 62.297C56.4764 62.297 57.3489 61.9406 58.5704 61.2277C59.4428 60.6931 60.8388 59.4455 62.9328 57.8416C63.2818 55.703 64.1543 53.3861 65.5503 50.5347C67.2952 46.7921 69.7382 43.4059 72.7047 39.8416C74.6241 37.703 76.3691 35.9208 78.1141 34.495C79.859 33.0693 81.0805 32.5347 81.7785 32.5347C82.1275 32.5347 82.302 32.7129 82.651 33.0693C82.8255 33.4257 83 33.7822 83 34.495C83 38.2376 81.604 41.9802 79.1611 45.901C76.5436 49.8218 73.0536 53.3861 68.3422 56.7723V57.8416C68.3422 59.4455 68.5167 60.6931 69.0402 61.5842C69.5637 62.4752 70.0872 62.8317 71.1342 62.8317C71.6577 62.8317 72.5302 62.4752 73.7516 61.7624C74.7986 61.0495 76.8926 59.2673 80.0335 56.5941V58.9109L78.8121 60.1584C73.5771 65.3267 70.0872 68 68.3422 68C66.7717 68 65.5503 67.1089 64.5033 65.6832C63.6308 64.4356 63.1073 62.8317 63.1073 61.0495C58.3959 65.6832 55.2549 68 53.5099 68C51.9395 68 50.718 67.1089 49.671 65.6832C48.7985 64.4356 48.275 62.8317 48.275 61.0495C46.181 63.0099 44.4361 64.6139 42.6911 65.5049C40.4226 66.9307 38.3287 67.6436 36.2347 67.4653C34.1407 67.4653 32.7447 66.7525 31.6978 65.5049C30.8253 64.4356 30.3018 63.0099 30.1273 61.0495L29.7783 60.3366ZM35.1877 55.5248C38.1542 54.2772 40.4226 53.0297 42.1676 51.9604C43.9126 50.7129 44.6106 49.8218 44.6106 48.9307C44.6106 48.7525 44.6106 48.5743 44.6106 48.396C44.6106 48.2178 44.4361 48.2178 44.2616 48.2178C43.0401 48.2178 41.6441 48.9307 39.7246 50.1782C37.8052 51.604 36.4092 53.3861 35.1877 55.3465V55.5248ZM54.3824 51.9604C56.8254 50.1782 58.7449 48.0396 60.4898 45.5446C62.2348 43.0495 63.4563 40.0198 64.5033 36.8119C62.0603 39.3069 59.9663 41.802 58.3959 44.297C56.6509 46.7921 55.4294 49.4653 54.3824 51.9604ZM69.2147 52.1386C71.6577 50.3564 73.5771 48.2178 75.3221 45.7228C77.0671 43.2277 78.2886 40.198 79.3356 36.9901C76.8926 39.4851 74.7986 41.9802 73.2281 44.4752C71.4832 46.9703 70.2617 49.6436 69.2147 52.1386Z" fill="#F8E53F"/>
</svg>
