<svg width="134" height="39" viewBox="0 0 134 39" fill="none" xmlns="http://www.w3.org/2000/svg">
<path d="M55.9564 8.49219C60.067 8.49219 63.7797 9.81909 66.5643 11.8094C66.6969 11.9421 66.8295 12.0748 66.9621 12.2075C66.6969 12.2075 66.4317 12.3402 66.1665 12.3402C66.0339 12.3402 65.9013 12.4729 65.7687 12.4729C63.2493 10.6152 59.6692 9.55371 55.9564 9.42102H55.8238C55.0283 9.42102 54.3653 9.42102 53.5697 9.55371C53.4371 9.55371 53.4371 9.55371 53.3045 9.55371H49.3265C51.3155 8.89026 53.4371 8.49219 55.6912 8.62488H55.8238L55.9564 8.49219ZM68.5532 13.6671C68.6858 13.7998 68.8184 13.9324 68.951 14.1978C68.951 14.3305 68.951 14.3305 68.951 14.4632C68.951 14.7286 68.8184 15.1267 68.8184 15.392C68.4206 14.7286 67.8903 14.0651 67.2273 13.5344C67.4925 13.5344 67.6251 13.5344 67.7577 13.5344C68.0229 13.5344 68.288 13.5344 68.4206 13.6671H68.5532ZM70.1444 16.0555C70.4096 16.7189 70.6748 17.3824 70.8074 18.0458C70.5422 18.4439 70.277 18.7093 70.1444 19.1074C70.1444 18.4439 69.8792 17.7805 69.614 17.117C69.7466 16.8516 69.8792 16.7189 70.0118 16.4536C70.0118 16.3209 70.1444 16.1882 70.1444 16.0555ZM70.94 20.6996C70.8074 21.7612 70.5422 22.8227 70.0118 23.7515C69.8792 23.6188 69.7466 23.6188 69.4814 23.6188C69.3488 23.6188 69.0836 23.7515 68.951 23.8842L68.8184 24.0169C68.951 23.7515 69.0836 23.6188 69.2162 23.3534C69.4814 23.0881 69.8792 22.9554 70.1444 22.69C70.277 22.5573 70.4096 22.4246 70.4096 22.2919C70.5422 21.8938 70.5422 21.6285 70.6748 21.3631C70.6748 21.2304 70.8074 20.965 70.94 20.8323V20.6996ZM62.0559 29.8552C60.1996 30.5187 58.078 30.7841 55.8238 30.7841H55.6912C54.1001 30.7841 52.5089 30.5187 51.0503 30.1206H53.1719C53.4371 30.1206 53.8349 29.8552 53.8349 29.5899C54.4979 29.5899 55.0283 29.7226 55.6912 29.7226H55.8238C57.1498 29.7226 58.3432 29.5899 59.6692 29.4572C60.1996 29.7226 60.73 29.8552 61.393 29.8552C61.6582 29.8552 61.7908 29.8552 62.0559 29.8552ZM48.531 29.3245C47.3376 28.7937 46.1442 28.1303 45.216 27.4668C43.0944 25.8745 41.5033 23.7515 40.9729 21.3631V18.7093H41.6359C41.6359 18.9747 41.6359 19.24 41.6359 19.5054C41.6359 22.2919 43.227 24.813 45.7464 26.6707C46.6746 27.3341 47.6028 27.8649 48.6636 28.3957V29.4572L48.531 29.3245ZM41.1055 17.117C41.2381 16.7189 41.3707 16.3209 41.5033 15.9228H42.4315C42.1663 16.3209 42.0337 16.7189 41.9011 17.117C41.7685 17.117 41.7685 17.117 41.6359 17.117H41.1055ZM42.4315 14.4632C43.227 13.4017 44.1552 12.3402 45.3486 11.544C46.4094 10.7479 47.6028 10.0844 49.0614 9.6864C48.9288 9.81909 48.7962 9.95178 48.7962 10.2171V10.7479C47.7354 11.146 46.6746 11.6767 45.879 12.3402C44.9508 13.0036 44.1552 13.6671 43.6248 14.4632C43.4922 14.4632 43.227 14.4632 43.0944 14.4632H42.5641H42.4315Z" fill="white"/>
<path d="M70.4095 0.13269C78.8958 0.26538 86.719 2.38842 92.2881 5.70567L92.5533 5.83836C92.2881 6.10374 92.1556 6.23643 91.8904 6.50181C86.4538 3.18456 78.7632 1.19421 70.4095 1.06152H70.1443C61.7906 0.92883 54.2326 2.91918 48.6634 5.97105C44.6855 8.22678 41.7684 11.146 40.4424 14.3305H39.5142C40.8402 10.7479 43.8899 7.43064 48.2656 5.04222C53.8348 1.85766 61.658 0 70.1443 0H70.4095V0.13269ZM93.8793 6.76719C94.1445 6.89988 94.4097 7.03257 94.5423 7.29795C94.2771 7.56333 94.1445 7.69602 93.8793 7.9614C93.6141 7.82871 93.3489 7.56333 93.0837 7.43064C93.2163 7.29795 93.3489 7.16526 93.4815 7.03257C93.6141 6.89988 93.6141 6.89988 93.7467 6.76719H93.8793ZM96.2661 8.62485C96.5313 8.89023 96.7965 9.15561 97.0617 9.2883C96.9291 9.55368 96.7965 9.81906 96.6639 10.2171C96.3987 9.95175 96.1335 9.81906 96.0009 9.55368C96.1335 9.2883 96.2661 9.02292 96.3987 8.62485H96.2661ZM98.1225 10.4825C98.5203 10.8806 98.7854 11.2786 99.0506 11.6767C98.918 11.9421 98.7854 12.0748 98.6528 12.3402L98.5203 12.4729C98.2551 12.0748 97.9899 11.6767 97.7247 11.4113C97.8573 11.146 97.9899 10.8806 98.1225 10.4825ZM99.9788 13.0036C100.244 13.5344 100.509 13.9324 100.642 14.4632C100.509 14.5959 100.509 14.8613 100.377 14.994C100.244 15.1267 100.244 15.2593 100.111 15.5247C99.9788 14.994 99.7136 14.4632 99.4484 13.7998C99.581 13.5344 99.7136 13.4017 99.8462 13.1363L99.9788 13.0036ZM101.57 17.7805C101.57 17.9131 101.57 18.1785 101.57 18.3112C101.305 18.5766 101.04 18.7093 100.774 18.9747C100.774 18.842 100.774 18.7093 100.774 18.5766C101.04 18.3112 101.305 18.1785 101.57 17.9131V17.7805ZM101.57 20.3016C101.305 21.7612 100.907 23.0881 100.111 24.415C99.9788 24.1496 99.8462 23.8842 99.8462 23.4861C99.8462 23.3534 99.8462 23.3534 99.8462 23.2207C100.244 22.5573 100.509 21.7612 100.642 20.965C101.04 20.6996 101.305 20.4343 101.57 20.1689V20.3016ZM99.3158 25.7419C98.7854 26.538 98.1225 27.3341 97.3269 27.9976C97.0617 27.8649 96.9291 27.5995 96.6639 27.3341C97.4595 26.538 98.1225 25.7419 98.7854 24.9457C98.7854 24.9457 98.7854 25.0784 98.918 25.0784C99.0506 25.3438 99.1832 25.4765 99.3158 25.7419ZM96.2661 29.0591C95.0727 29.9879 93.8793 30.9168 92.4207 31.7129C86.8516 34.8975 79.0284 36.7551 70.6747 36.7551H70.4095C61.9232 36.6224 54.1 34.4994 48.5308 31.1821C45.3485 29.3245 42.8291 26.9361 41.238 24.415V22.69C42.5639 25.6092 45.3485 28.263 48.9286 30.386C54.3652 33.7033 62.0558 35.6936 70.4095 35.8263H70.6747C79.0284 35.959 86.5864 33.9686 92.1556 30.9168C93.4815 30.1206 94.6749 29.3245 95.7357 28.3957C95.8683 28.661 96.1335 28.9264 96.3987 29.0591H96.2661ZM39.7794 21.0977C39.5142 20.0362 39.3816 18.9747 39.3816 17.9131C39.3816 17.2497 39.5142 16.4536 39.6468 15.7901H40.4424C40.3098 16.1882 40.3098 16.7189 40.1772 17.117C39.912 17.2497 39.7794 17.5151 39.7794 17.7805V21.0977Z" fill="white"/>
<path fill-rule="evenodd" clip-rule="evenodd" d="M69.4813 24.2823C68.1553 25.6092 66.8293 26.6707 65.6359 27.4668C63.9122 28.661 62.4536 29.1918 61.2602 29.1918C60.0668 29.1918 59.006 28.5283 58.0779 27.2014C57.1497 25.8745 56.6193 24.415 56.7519 22.8227C56.7519 21.6285 57.1497 20.3016 57.8127 19.24C58.4757 18.0458 59.5364 16.9843 60.8624 15.9228C62.0558 14.994 63.2492 14.1978 64.5752 13.6671C65.9011 13.1363 66.9619 12.8709 67.7575 12.8709C68.4205 12.8709 68.9509 13.0036 69.2161 13.269C69.4813 13.5344 69.6139 13.9324 69.6139 14.4632C69.6139 15.5247 69.0835 16.5862 68.0227 17.9131C66.9619 19.1074 66.0337 19.7708 65.3707 19.7708C65.1056 19.7708 64.8404 19.6381 64.7078 19.5054C64.5752 19.24 64.4425 18.9747 64.4425 18.4439C63.2491 19.1074 62.321 19.7708 61.5254 20.4343C60.7298 21.0977 60.0668 21.7612 59.5364 22.4246V22.8227C59.5364 23.6188 59.8016 24.415 60.1994 24.813C60.5972 25.3438 61.2602 25.6092 62.0558 25.6092C63.2492 25.6092 64.5752 25.2111 66.0337 24.415C67.0945 23.8842 68.1553 23.0881 69.3487 22.1592C69.4813 21.3631 69.7465 20.6996 70.1443 20.0362C70.8073 18.842 71.7354 17.6478 72.9288 16.5862C74.1222 15.5247 75.4482 14.7286 76.7742 14.0651C78.1002 13.5344 79.4261 13.269 80.7521 13.269C81.8129 13.269 82.4759 13.4017 83.0063 13.6671C83.5367 13.9324 83.6692 14.4632 83.6692 14.994C83.6692 16.3209 82.6085 17.7805 80.6195 19.24C78.6305 20.6996 76.1112 21.7612 73.194 22.4246V22.5573C73.194 23.4861 73.4592 24.1496 73.857 24.6803C74.3874 25.2111 75.0504 25.4765 75.846 25.4765C76.9068 25.4765 78.2327 25.0784 79.8239 24.2823C80.8847 23.7515 81.9455 22.9554 83.1389 22.0265C83.4041 20.4343 84.0671 18.5766 85.1278 16.5862C86.4538 13.7998 88.3102 11.2786 90.5644 8.62485C92.0229 7.03257 93.3489 5.70567 94.6749 4.64415C96.0009 3.58264 96.9291 3.18457 97.4594 3.18457C97.7246 3.18457 97.8572 3.31725 98.1224 3.58263C98.255 3.84801 98.3876 4.11339 98.3876 4.64415C98.3876 7.43064 97.3268 10.2171 95.4705 13.1363C93.4815 16.0555 90.8294 18.7093 87.2493 21.2304V22.0265C87.2493 23.2207 87.382 24.1496 87.7798 24.813C88.1776 25.4765 88.708 25.7419 89.371 25.7419C89.7688 25.7419 90.4318 25.4765 91.3599 24.9457C92.0229 24.5476 93.0837 23.6188 94.6749 22.4246C94.9401 20.8323 95.6031 19.1074 96.6639 16.9843C97.9898 14.1978 99.8462 11.6767 102.1 9.02292C103.559 7.43064 104.885 6.10374 106.211 5.04222C107.537 3.9807 108.465 3.58263 108.995 3.58263C109.261 3.58263 109.393 3.71532 109.658 3.9807C109.791 4.24608 109.924 4.51146 109.924 5.04222C109.924 7.82871 108.863 10.6152 107.006 13.5344C105.018 16.4536 102.366 19.1074 98.7854 21.6285V22.4246C98.7854 23.6188 98.918 24.5476 99.3158 25.2111C99.7136 25.8745 100.111 26.1399 100.907 26.1399C101.305 26.1399 101.968 25.8745 102.896 25.3438C103.692 24.813 105.283 23.4861 107.669 21.4958V23.2207L106.741 24.1496C102.763 27.9976 100.111 29.9879 98.7854 29.9879C97.592 29.9879 96.6639 29.3245 95.8683 28.263C95.2053 27.3341 94.8075 26.1399 94.8075 24.813C91.2273 28.263 88.8406 29.9879 87.5146 29.9879C86.3212 29.9879 85.3929 29.3245 84.5973 28.263C83.9344 27.3341 83.5366 26.1399 83.5366 24.813C81.9454 26.2726 80.6195 27.4668 79.2935 28.1303C77.5698 29.1918 75.9786 29.7226 74.3874 29.5899C72.7962 29.5899 71.7354 29.0591 70.9399 28.1303C70.2769 27.3341 69.8791 26.2726 69.7465 24.813L69.4813 24.2823ZM73.5917 20.6996C75.8459 19.7708 77.5698 18.842 78.8957 18.0458C80.2217 17.117 80.7521 16.4536 80.7521 15.7901C80.7521 15.6574 80.7521 15.5247 80.7521 15.392C80.7521 15.2593 80.6195 15.2593 80.4869 15.2593C79.5587 15.2593 78.4979 15.7901 77.0394 16.7189C75.5808 17.7805 74.5199 19.1074 73.5917 20.5669V20.6996ZM88.1775 18.0458C90.0339 16.7189 91.4925 15.1267 92.8185 13.269C94.1445 11.4113 95.0727 9.15561 95.8683 6.76719C94.0119 8.62485 92.4207 10.4825 91.2273 12.3402C89.9014 14.1978 88.9731 16.1882 88.1775 18.0458ZM99.4484 18.1785C101.305 16.8516 102.763 15.2593 104.089 13.4017C105.415 11.544 106.344 9.2883 107.139 6.89988C105.283 8.75754 103.692 10.6152 102.498 12.4729C101.172 14.3305 100.244 16.3209 99.4484 18.1785Z" fill="white"/>
<path fill-rule="evenodd" clip-rule="evenodd" d="M7.42548 9.55371L18.2985 9.6864V13.1363L8.08847 13.0036C5.96691 13.0036 4.90612 13.7998 4.77353 15.5247C4.77353 16.1882 5.03872 16.7189 5.43651 17.117C5.96691 17.5151 6.4973 17.6478 7.29288 17.6478L12.7294 17.7805C13.7902 17.7805 14.7184 17.9131 15.514 18.0458C16.3095 18.1785 16.9725 18.7093 17.7681 19.3727C18.5637 20.0362 18.9615 21.3631 18.9615 23.3534C18.9615 23.8842 18.9615 24.2823 18.8289 24.813C18.6963 25.2111 18.5637 25.7419 18.2985 26.4053C18.0333 26.9361 17.6355 27.4668 16.9725 27.9976C16.3095 28.3957 15.6466 28.7937 14.851 28.9264C14.0554 29.0591 13.1272 29.1918 11.9338 29.1918L0.928185 29.0591V25.6092L11.2708 25.7419C12.3316 25.7419 13.1272 25.6092 13.6576 25.3438C14.188 25.0784 14.4532 24.5476 14.4532 23.6188V23.2207C14.4532 22.69 14.3206 22.2919 14.0554 22.0265C13.7902 21.7612 13.3924 21.6285 12.9946 21.4958C12.5968 21.3631 12.0664 21.3631 11.536 21.3631L6.6299 21.2304C4.50833 21.2304 2.91715 20.6996 1.72377 19.9035C0.530392 18.9747 0 17.6478 0 15.5247C0 14.4632 0.132598 13.5344 0.530392 12.7382C0.928185 11.9421 1.32598 11.2787 1.98897 10.8806C2.65196 10.4825 3.31495 10.2171 4.11054 9.95178C4.77352 9.81909 5.83431 9.6864 7.02769 9.6864L7.42548 9.55371ZM33.8125 26.2726V29.1918L28.2434 29.0591C25.724 29.0591 24.0002 28.3957 22.8068 27.0688C21.6135 25.7419 21.0831 24.0169 21.0831 21.8938C21.0831 19.7708 21.6135 18.1785 22.5416 17.2497C23.4698 16.1882 24.398 15.6574 25.3262 15.392C26.2544 15.1267 27.3152 14.994 28.376 14.994L33.9451 15.1267V18.0458L28.9063 17.9131C28.1108 17.9131 27.4478 17.9131 26.9174 18.0458C26.387 18.1785 26.1218 18.4439 25.724 18.842C25.3262 19.24 25.1936 19.7708 25.1936 20.5669L33.8125 20.6996V23.6188L25.1936 23.4861C25.1936 24.2823 25.3262 24.813 25.5914 25.2111C25.8566 25.6092 26.2544 25.8745 26.7848 26.0072C27.3152 26.1399 27.9782 26.1399 28.7737 26.1399L33.8125 26.2726ZM40.0446 29.3245H36.1992L36.3318 15.2593L42.6965 15.392C43.8899 15.392 44.6855 15.5247 45.3485 15.9228C45.8789 16.1882 46.2767 16.7189 46.4093 17.2497C46.5419 17.7805 46.6745 18.5766 46.6745 19.5054V20.4343V21.2304H43.0943V20.1689C43.0943 19.3727 43.0943 18.9747 42.9617 18.7093C42.8291 18.4439 42.6965 18.3112 42.4313 18.1785C42.1661 18.1785 42.0335 18.0458 41.7683 18.0458C41.6357 18.0458 41.2379 18.0458 40.8402 18.0458H40.0446L39.912 29.4572L40.0446 29.3245ZM49.3264 15.392H53.3044L53.1718 29.4572H49.1938L49.3264 15.392ZM49.3264 10.2171H53.3044V13.6671H49.3264V10.2171Z" fill="white"/>
<mask id="path-5-outside-1_416_10" maskUnits="userSpaceOnUse" x="68" y="27" width="68" height="14" fill="black">
<rect fill="white" x="68" y="27" width="68" height="14"/>
<path d="M74.2012 36.5469V29H76.1875V38H74.4062L74.2012 36.5469ZM70.3105 34.9062V34.7832C70.3105 34.3027 70.3633 33.8652 70.4688 33.4707C70.5742 33.0723 70.7305 32.7305 70.9375 32.4453C71.1445 32.1562 71.4023 31.9336 71.7109 31.7773C72.0195 31.6211 72.375 31.543 72.7773 31.543C73.1367 31.543 73.4512 31.627 73.7207 31.7949C73.9902 31.959 74.2207 32.1895 74.4121 32.4863C74.6035 32.7832 74.7598 33.1309 74.8809 33.5293C75.002 33.9238 75.0938 34.3496 75.1562 34.8066V34.9531C75.0938 35.3828 75.002 35.7891 74.8809 36.1719C74.7598 36.5508 74.6035 36.8867 74.4121 37.1797C74.2207 37.4727 73.9883 37.7031 73.7148 37.8711C73.4453 38.0352 73.1289 38.1172 72.7656 38.1172C72.3633 38.1172 72.0078 38.0371 71.6992 37.877C71.3945 37.7168 71.1387 37.4922 70.9316 37.2031C70.7285 36.9141 70.5742 36.5742 70.4688 36.1836C70.3633 35.793 70.3105 35.3672 70.3105 34.9062ZM72.2852 34.7832V34.9062C72.2852 35.1445 72.3008 35.3652 72.332 35.5684C72.3633 35.7715 72.416 35.9512 72.4902 36.1074C72.5684 36.2598 72.6699 36.3789 72.7949 36.4648C72.9238 36.5508 73.082 36.5938 73.2695 36.5938C73.5234 36.5938 73.7324 36.5332 73.8965 36.4121C74.0645 36.291 74.1875 36.1191 74.2656 35.8965C74.3477 35.6738 74.3828 35.4121 74.3711 35.1113V34.6484C74.3789 34.3906 74.3613 34.1641 74.3184 33.9688C74.2754 33.7695 74.207 33.6035 74.1133 33.4707C74.0234 33.3379 73.9082 33.2383 73.7676 33.1719C73.6309 33.1016 73.4688 33.0664 73.2812 33.0664C73.0977 33.0664 72.9414 33.1094 72.8125 33.1953C72.6875 33.2812 72.5859 33.4023 72.5078 33.5586C72.4297 33.7109 72.373 33.8926 72.3379 34.1035C72.3027 34.3105 72.2852 34.5371 72.2852 34.7832ZM80.377 38.1172C79.8613 38.1172 79.4004 38.0371 78.9941 37.877C78.5879 37.7129 78.2441 37.4883 77.9629 37.2031C77.6855 36.918 77.4727 36.5898 77.3242 36.2188C77.1797 35.8477 77.1074 35.4551 77.1074 35.041V34.8184C77.1074 34.3535 77.1719 33.9238 77.3008 33.5293C77.4297 33.1309 77.6211 32.7832 77.875 32.4863C78.1289 32.1895 78.4473 31.959 78.8301 31.7949C79.2129 31.627 79.6582 31.543 80.166 31.543C80.6152 31.543 81.0176 31.6152 81.373 31.7598C81.7285 31.9043 82.0293 32.1113 82.2754 32.3809C82.5254 32.6504 82.7148 32.9766 82.8438 33.3594C82.9766 33.7422 83.043 34.1719 83.043 34.6484V35.4512H77.8633V34.2148H81.1152V34.0625C81.1191 33.8516 81.082 33.6719 81.0039 33.5234C80.9297 33.375 80.8203 33.2617 80.6758 33.1836C80.5312 33.1055 80.3555 33.0664 80.1484 33.0664C79.9336 33.0664 79.7559 33.1133 79.6152 33.207C79.4785 33.3008 79.3711 33.4297 79.293 33.5938C79.2188 33.7539 79.166 33.9395 79.1348 34.1504C79.1035 34.3613 79.0879 34.584 79.0879 34.8184V35.041C79.0879 35.2754 79.1191 35.4883 79.1816 35.6797C79.248 35.8711 79.3418 36.0352 79.4629 36.1719C79.5879 36.3047 79.7363 36.4082 79.9082 36.4824C80.084 36.5566 80.2832 36.5938 80.5059 36.5938C80.7754 36.5938 81.041 36.543 81.3027 36.4414C81.5645 36.3398 81.7891 36.1719 81.9766 35.9375L82.873 37.0039C82.7441 37.1875 82.5605 37.3652 82.3223 37.5371C82.0879 37.709 81.8066 37.8496 81.4785 37.959C81.1504 38.0645 80.7832 38.1172 80.377 38.1172ZM87.168 36.2188C87.168 36.1094 87.1309 36.0156 87.0566 35.9375C86.9863 35.8555 86.8613 35.7812 86.6816 35.7148C86.502 35.6445 86.25 35.5742 85.9258 35.5039C85.6172 35.4375 85.3262 35.3496 85.0527 35.2402C84.7832 35.1309 84.5469 34.998 84.3438 34.8418C84.1406 34.6855 83.9805 34.5 83.8633 34.2852C83.75 34.0703 83.6934 33.8242 83.6934 33.5469C83.6934 33.2773 83.75 33.0234 83.8633 32.7852C83.9805 32.543 84.1504 32.3301 84.373 32.1465C84.5996 31.959 84.875 31.8125 85.1992 31.707C85.5234 31.5977 85.8926 31.543 86.3066 31.543C86.877 31.543 87.3691 31.6309 87.7832 31.8066C88.1973 31.9785 88.5156 32.2207 88.7383 32.5332C88.9648 32.8418 89.0781 33.1992 89.0781 33.6055H87.1035C87.1035 33.4453 87.0762 33.3086 87.0215 33.1953C86.9707 33.082 86.8867 32.9961 86.7695 32.9375C86.6523 32.875 86.4961 32.8438 86.3008 32.8438C86.1641 32.8438 86.0391 32.8691 85.9258 32.9199C85.8164 32.9707 85.7285 33.041 85.6621 33.1309C85.5957 33.2207 85.5625 33.3262 85.5625 33.4473C85.5625 33.5332 85.582 33.6113 85.6211 33.6816C85.6641 33.748 85.7285 33.8105 85.8145 33.8691C85.9004 33.9238 86.0098 33.9746 86.1426 34.0215C86.2754 34.0645 86.4355 34.1035 86.623 34.1387C87.0488 34.2168 87.4473 34.3281 87.8184 34.4727C88.1895 34.6172 88.4902 34.8223 88.7207 35.0879C88.9551 35.3535 89.0723 35.7109 89.0723 36.1602C89.0723 36.4414 89.0078 36.7012 88.8789 36.9395C88.75 37.1738 88.5645 37.3809 88.3223 37.5605C88.0801 37.7363 87.7891 37.873 87.4492 37.9707C87.1094 38.0684 86.7266 38.1172 86.3008 38.1172C85.6953 38.1172 85.1836 38.0098 84.7656 37.7949C84.3477 37.5762 84.0312 37.3027 83.8164 36.9746C83.6055 36.6426 83.5 36.3066 83.5 35.9668H85.3398C85.3477 36.1621 85.3945 36.3223 85.4805 36.4473C85.5703 36.5723 85.6895 36.6641 85.8379 36.7227C85.9863 36.7812 86.1582 36.8105 86.3535 36.8105C86.5332 36.8105 86.6816 36.7852 86.7988 36.7344C86.9199 36.6836 87.0117 36.6152 87.0742 36.5293C87.1367 36.4395 87.168 36.3359 87.168 36.2188ZM93.6426 36.5469V29H95.6289V38H93.8477L93.6426 36.5469ZM89.752 34.9062V34.7832C89.752 34.3027 89.8047 33.8652 89.9102 33.4707C90.0156 33.0723 90.1719 32.7305 90.3789 32.4453C90.5859 32.1562 90.8438 31.9336 91.1523 31.7773C91.4609 31.6211 91.8164 31.543 92.2188 31.543C92.5781 31.543 92.8926 31.627 93.1621 31.7949C93.4316 31.959 93.6621 32.1895 93.8535 32.4863C94.0449 32.7832 94.2012 33.1309 94.3223 33.5293C94.4434 33.9238 94.5352 34.3496 94.5977 34.8066V34.9531C94.5352 35.3828 94.4434 35.7891 94.3223 36.1719C94.2012 36.5508 94.0449 36.8867 93.8535 37.1797C93.6621 37.4727 93.4297 37.7031 93.1562 37.8711C92.8867 38.0352 92.5703 38.1172 92.207 38.1172C91.8047 38.1172 91.4492 38.0371 91.1406 37.877C90.8359 37.7168 90.5801 37.4922 90.373 37.2031C90.1699 36.9141 90.0156 36.5742 89.9102 36.1836C89.8047 35.793 89.752 35.3672 89.752 34.9062ZM91.7266 34.7832V34.9062C91.7266 35.1445 91.7422 35.3652 91.7734 35.5684C91.8047 35.7715 91.8574 35.9512 91.9316 36.1074C92.0098 36.2598 92.1113 36.3789 92.2363 36.4648C92.3652 36.5508 92.5234 36.5938 92.7109 36.5938C92.9648 36.5938 93.1738 36.5332 93.3379 36.4121C93.5059 36.291 93.6289 36.1191 93.707 35.8965C93.7891 35.6738 93.8242 35.4121 93.8125 35.1113V34.6484C93.8203 34.3906 93.8027 34.1641 93.7598 33.9688C93.7168 33.7695 93.6484 33.6035 93.5547 33.4707C93.4648 33.3379 93.3496 33.2383 93.209 33.1719C93.0723 33.1016 92.9102 33.0664 92.7227 33.0664C92.5391 33.0664 92.3828 33.1094 92.2539 33.1953C92.1289 33.2812 92.0273 33.4023 91.9492 33.5586C91.8711 33.7109 91.8145 33.8926 91.7793 34.1035C91.7441 34.3105 91.7266 34.5371 91.7266 34.7832ZM99.8184 38.1172C99.3027 38.1172 98.8418 38.0371 98.4355 37.877C98.0293 37.7129 97.6855 37.4883 97.4043 37.2031C97.127 36.918 96.9141 36.5898 96.7656 36.2188C96.6211 35.8477 96.5488 35.4551 96.5488 35.041V34.8184C96.5488 34.3535 96.6133 33.9238 96.7422 33.5293C96.8711 33.1309 97.0625 32.7832 97.3164 32.4863C97.5703 32.1895 97.8887 31.959 98.2715 31.7949C98.6543 31.627 99.0996 31.543 99.6074 31.543C100.057 31.543 100.459 31.6152 100.814 31.7598C101.17 31.9043 101.471 32.1113 101.717 32.3809C101.967 32.6504 102.156 32.9766 102.285 33.3594C102.418 33.7422 102.484 34.1719 102.484 34.6484V35.4512H97.3047V34.2148H100.557V34.0625C100.561 33.8516 100.523 33.6719 100.445 33.5234C100.371 33.375 100.262 33.2617 100.117 33.1836C99.9727 33.1055 99.7969 33.0664 99.5898 33.0664C99.375 33.0664 99.1973 33.1133 99.0566 33.207C98.9199 33.3008 98.8125 33.4297 98.7344 33.5938C98.6602 33.7539 98.6074 33.9395 98.5762 34.1504C98.5449 34.3613 98.5293 34.584 98.5293 34.8184V35.041C98.5293 35.2754 98.5605 35.4883 98.623 35.6797C98.6895 35.8711 98.7832 36.0352 98.9043 36.1719C99.0293 36.3047 99.1777 36.4082 99.3496 36.4824C99.5254 36.5566 99.7246 36.5938 99.9473 36.5938C100.217 36.5938 100.482 36.543 100.744 36.4414C101.006 36.3398 101.23 36.1719 101.418 35.9375L102.314 37.0039C102.186 37.1875 102.002 37.3652 101.764 37.5371C101.529 37.709 101.248 37.8496 100.92 37.959C100.592 38.0645 100.225 38.1172 99.8184 38.1172ZM110.617 29.4688V38H108.643V31.6953L106.697 32.2637V30.7637L110.436 29.4688H110.617ZM114.455 36.5352H114.572C114.963 36.5352 115.314 36.4922 115.627 36.4062C115.939 36.3203 116.207 36.1875 116.43 36.0078C116.652 35.8242 116.822 35.5879 116.939 35.2988C117.061 35.0059 117.121 34.6523 117.121 34.2383V32.4746C117.121 32.2012 117.098 31.9648 117.051 31.7656C117.004 31.5625 116.936 31.3945 116.846 31.2617C116.756 31.1289 116.648 31.0312 116.523 30.9688C116.398 30.9023 116.258 30.8691 116.102 30.8691C115.945 30.8691 115.807 30.9141 115.686 31.0039C115.568 31.0898 115.467 31.207 115.381 31.3555C115.299 31.5 115.236 31.6641 115.193 31.8477C115.15 32.0273 115.129 32.209 115.129 32.3926C115.129 32.5996 115.15 32.793 115.193 32.9727C115.24 33.1484 115.307 33.3027 115.393 33.4355C115.482 33.5645 115.594 33.666 115.727 33.7402C115.863 33.8145 116.021 33.8516 116.201 33.8516C116.381 33.8516 116.535 33.8203 116.664 33.7578C116.797 33.6914 116.906 33.6055 116.992 33.5C117.078 33.3906 117.141 33.2734 117.18 33.1484C117.223 33.0234 117.242 32.9004 117.238 32.7793L117.812 33.2305C117.812 33.4805 117.756 33.7266 117.643 33.9688C117.529 34.2109 117.373 34.4316 117.174 34.6309C116.975 34.8262 116.744 34.9824 116.482 35.0996C116.225 35.2168 115.951 35.2754 115.662 35.2754C115.275 35.2754 114.926 35.207 114.613 35.0703C114.305 34.9336 114.041 34.7383 113.822 34.4844C113.604 34.2305 113.436 33.9277 113.318 33.5762C113.205 33.2207 113.148 32.8262 113.148 32.3926C113.148 31.9746 113.221 31.582 113.365 31.2148C113.51 30.8477 113.715 30.5254 113.98 30.248C114.246 29.9668 114.561 29.7461 114.924 29.5859C115.287 29.4258 115.686 29.3457 116.119 29.3457C116.529 29.3457 116.914 29.4238 117.273 29.5801C117.633 29.7324 117.949 29.957 118.223 30.2539C118.496 30.5508 118.711 30.916 118.867 31.3496C119.023 31.7832 119.102 32.2793 119.102 32.8379V33.5176C119.102 34.123 119.027 34.6699 118.879 35.1582C118.73 35.6465 118.52 36.0762 118.246 36.4473C117.973 36.8145 117.648 37.123 117.273 37.373C116.902 37.6191 116.49 37.8047 116.037 37.9297C115.588 38.0547 115.111 38.1172 114.607 38.1172H114.455V36.5352ZM121.416 36.5352H121.533C121.924 36.5352 122.275 36.4922 122.588 36.4062C122.9 36.3203 123.168 36.1875 123.391 36.0078C123.613 35.8242 123.783 35.5879 123.9 35.2988C124.021 35.0059 124.082 34.6523 124.082 34.2383V32.4746C124.082 32.2012 124.059 31.9648 124.012 31.7656C123.965 31.5625 123.896 31.3945 123.807 31.2617C123.717 31.1289 123.609 31.0312 123.484 30.9688C123.359 30.9023 123.219 30.8691 123.062 30.8691C122.906 30.8691 122.768 30.9141 122.646 31.0039C122.529 31.0898 122.428 31.207 122.342 31.3555C122.26 31.5 122.197 31.6641 122.154 31.8477C122.111 32.0273 122.09 32.209 122.09 32.3926C122.09 32.5996 122.111 32.793 122.154 32.9727C122.201 33.1484 122.268 33.3027 122.354 33.4355C122.443 33.5645 122.555 33.666 122.688 33.7402C122.824 33.8145 122.982 33.8516 123.162 33.8516C123.342 33.8516 123.496 33.8203 123.625 33.7578C123.758 33.6914 123.867 33.6055 123.953 33.5C124.039 33.3906 124.102 33.2734 124.141 33.1484C124.184 33.0234 124.203 32.9004 124.199 32.7793L124.773 33.2305C124.773 33.4805 124.717 33.7266 124.604 33.9688C124.49 34.2109 124.334 34.4316 124.135 34.6309C123.936 34.8262 123.705 34.9824 123.443 35.0996C123.186 35.2168 122.912 35.2754 122.623 35.2754C122.236 35.2754 121.887 35.207 121.574 35.0703C121.266 34.9336 121.002 34.7383 120.783 34.4844C120.564 34.2305 120.396 33.9277 120.279 33.5762C120.166 33.2207 120.109 32.8262 120.109 32.3926C120.109 31.9746 120.182 31.582 120.326 31.2148C120.471 30.8477 120.676 30.5254 120.941 30.248C121.207 29.9668 121.521 29.7461 121.885 29.5859C122.248 29.4258 122.646 29.3457 123.08 29.3457C123.49 29.3457 123.875 29.4238 124.234 29.5801C124.594 29.7324 124.91 29.957 125.184 30.2539C125.457 30.5508 125.672 30.916 125.828 31.3496C125.984 31.7832 126.062 32.2793 126.062 32.8379V33.5176C126.062 34.123 125.988 34.6699 125.84 35.1582C125.691 35.6465 125.48 36.0762 125.207 36.4473C124.934 36.8145 124.609 37.123 124.234 37.373C123.863 37.6191 123.451 37.8047 122.998 37.9297C122.549 38.0547 122.072 38.1172 121.568 38.1172H121.416V36.5352ZM133.059 29.4688V30.5234L129.871 38H127.785L130.979 30.9922H126.906V29.4688H133.059Z"/>
</mask>
<path d="M74.2012 36.5469V29H76.1875V38H74.4062L74.2012 36.5469ZM70.3105 34.9062V34.7832C70.3105 34.3027 70.3633 33.8652 70.4688 33.4707C70.5742 33.0723 70.7305 32.7305 70.9375 32.4453C71.1445 32.1562 71.4023 31.9336 71.7109 31.7773C72.0195 31.6211 72.375 31.543 72.7773 31.543C73.1367 31.543 73.4512 31.627 73.7207 31.7949C73.9902 31.959 74.2207 32.1895 74.4121 32.4863C74.6035 32.7832 74.7598 33.1309 74.8809 33.5293C75.002 33.9238 75.0938 34.3496 75.1562 34.8066V34.9531C75.0938 35.3828 75.002 35.7891 74.8809 36.1719C74.7598 36.5508 74.6035 36.8867 74.4121 37.1797C74.2207 37.4727 73.9883 37.7031 73.7148 37.8711C73.4453 38.0352 73.1289 38.1172 72.7656 38.1172C72.3633 38.1172 72.0078 38.0371 71.6992 37.877C71.3945 37.7168 71.1387 37.4922 70.9316 37.2031C70.7285 36.9141 70.5742 36.5742 70.4688 36.1836C70.3633 35.793 70.3105 35.3672 70.3105 34.9062ZM72.2852 34.7832V34.9062C72.2852 35.1445 72.3008 35.3652 72.332 35.5684C72.3633 35.7715 72.416 35.9512 72.4902 36.1074C72.5684 36.2598 72.6699 36.3789 72.7949 36.4648C72.9238 36.5508 73.082 36.5938 73.2695 36.5938C73.5234 36.5938 73.7324 36.5332 73.8965 36.4121C74.0645 36.291 74.1875 36.1191 74.2656 35.8965C74.3477 35.6738 74.3828 35.4121 74.3711 35.1113V34.6484C74.3789 34.3906 74.3613 34.1641 74.3184 33.9688C74.2754 33.7695 74.207 33.6035 74.1133 33.4707C74.0234 33.3379 73.9082 33.2383 73.7676 33.1719C73.6309 33.1016 73.4688 33.0664 73.2812 33.0664C73.0977 33.0664 72.9414 33.1094 72.8125 33.1953C72.6875 33.2812 72.5859 33.4023 72.5078 33.5586C72.4297 33.7109 72.373 33.8926 72.3379 34.1035C72.3027 34.3105 72.2852 34.5371 72.2852 34.7832ZM80.377 38.1172C79.8613 38.1172 79.4004 38.0371 78.9941 37.877C78.5879 37.7129 78.2441 37.4883 77.9629 37.2031C77.6855 36.918 77.4727 36.5898 77.3242 36.2188C77.1797 35.8477 77.1074 35.4551 77.1074 35.041V34.8184C77.1074 34.3535 77.1719 33.9238 77.3008 33.5293C77.4297 33.1309 77.6211 32.7832 77.875 32.4863C78.1289 32.1895 78.4473 31.959 78.8301 31.7949C79.2129 31.627 79.6582 31.543 80.166 31.543C80.6152 31.543 81.0176 31.6152 81.373 31.7598C81.7285 31.9043 82.0293 32.1113 82.2754 32.3809C82.5254 32.6504 82.7148 32.9766 82.8438 33.3594C82.9766 33.7422 83.043 34.1719 83.043 34.6484V35.4512H77.8633V34.2148H81.1152V34.0625C81.1191 33.8516 81.082 33.6719 81.0039 33.5234C80.9297 33.375 80.8203 33.2617 80.6758 33.1836C80.5312 33.1055 80.3555 33.0664 80.1484 33.0664C79.9336 33.0664 79.7559 33.1133 79.6152 33.207C79.4785 33.3008 79.3711 33.4297 79.293 33.5938C79.2188 33.7539 79.166 33.9395 79.1348 34.1504C79.1035 34.3613 79.0879 34.584 79.0879 34.8184V35.041C79.0879 35.2754 79.1191 35.4883 79.1816 35.6797C79.248 35.8711 79.3418 36.0352 79.4629 36.1719C79.5879 36.3047 79.7363 36.4082 79.9082 36.4824C80.084 36.5566 80.2832 36.5938 80.5059 36.5938C80.7754 36.5938 81.041 36.543 81.3027 36.4414C81.5645 36.3398 81.7891 36.1719 81.9766 35.9375L82.873 37.0039C82.7441 37.1875 82.5605 37.3652 82.3223 37.5371C82.0879 37.709 81.8066 37.8496 81.4785 37.959C81.1504 38.0645 80.7832 38.1172 80.377 38.1172ZM87.168 36.2188C87.168 36.1094 87.1309 36.0156 87.0566 35.9375C86.9863 35.8555 86.8613 35.7812 86.6816 35.7148C86.502 35.6445 86.25 35.5742 85.9258 35.5039C85.6172 35.4375 85.3262 35.3496 85.0527 35.2402C84.7832 35.1309 84.5469 34.998 84.3438 34.8418C84.1406 34.6855 83.9805 34.5 83.8633 34.2852C83.75 34.0703 83.6934 33.8242 83.6934 33.5469C83.6934 33.2773 83.75 33.0234 83.8633 32.7852C83.9805 32.543 84.1504 32.3301 84.373 32.1465C84.5996 31.959 84.875 31.8125 85.1992 31.707C85.5234 31.5977 85.8926 31.543 86.3066 31.543C86.877 31.543 87.3691 31.6309 87.7832 31.8066C88.1973 31.9785 88.5156 32.2207 88.7383 32.5332C88.9648 32.8418 89.0781 33.1992 89.0781 33.6055H87.1035C87.1035 33.4453 87.0762 33.3086 87.0215 33.1953C86.9707 33.082 86.8867 32.9961 86.7695 32.9375C86.6523 32.875 86.4961 32.8438 86.3008 32.8438C86.1641 32.8438 86.0391 32.8691 85.9258 32.9199C85.8164 32.9707 85.7285 33.041 85.6621 33.1309C85.5957 33.2207 85.5625 33.3262 85.5625 33.4473C85.5625 33.5332 85.582 33.6113 85.6211 33.6816C85.6641 33.748 85.7285 33.8105 85.8145 33.8691C85.9004 33.9238 86.0098 33.9746 86.1426 34.0215C86.2754 34.0645 86.4355 34.1035 86.623 34.1387C87.0488 34.2168 87.4473 34.3281 87.8184 34.4727C88.1895 34.6172 88.4902 34.8223 88.7207 35.0879C88.9551 35.3535 89.0723 35.7109 89.0723 36.1602C89.0723 36.4414 89.0078 36.7012 88.8789 36.9395C88.75 37.1738 88.5645 37.3809 88.3223 37.5605C88.0801 37.7363 87.7891 37.873 87.4492 37.9707C87.1094 38.0684 86.7266 38.1172 86.3008 38.1172C85.6953 38.1172 85.1836 38.0098 84.7656 37.7949C84.3477 37.5762 84.0312 37.3027 83.8164 36.9746C83.6055 36.6426 83.5 36.3066 83.5 35.9668H85.3398C85.3477 36.1621 85.3945 36.3223 85.4805 36.4473C85.5703 36.5723 85.6895 36.6641 85.8379 36.7227C85.9863 36.7812 86.1582 36.8105 86.3535 36.8105C86.5332 36.8105 86.6816 36.7852 86.7988 36.7344C86.9199 36.6836 87.0117 36.6152 87.0742 36.5293C87.1367 36.4395 87.168 36.3359 87.168 36.2188ZM93.6426 36.5469V29H95.6289V38H93.8477L93.6426 36.5469ZM89.752 34.9062V34.7832C89.752 34.3027 89.8047 33.8652 89.9102 33.4707C90.0156 33.0723 90.1719 32.7305 90.3789 32.4453C90.5859 32.1562 90.8438 31.9336 91.1523 31.7773C91.4609 31.6211 91.8164 31.543 92.2188 31.543C92.5781 31.543 92.8926 31.627 93.1621 31.7949C93.4316 31.959 93.6621 32.1895 93.8535 32.4863C94.0449 32.7832 94.2012 33.1309 94.3223 33.5293C94.4434 33.9238 94.5352 34.3496 94.5977 34.8066V34.9531C94.5352 35.3828 94.4434 35.7891 94.3223 36.1719C94.2012 36.5508 94.0449 36.8867 93.8535 37.1797C93.6621 37.4727 93.4297 37.7031 93.1562 37.8711C92.8867 38.0352 92.5703 38.1172 92.207 38.1172C91.8047 38.1172 91.4492 38.0371 91.1406 37.877C90.8359 37.7168 90.5801 37.4922 90.373 37.2031C90.1699 36.9141 90.0156 36.5742 89.9102 36.1836C89.8047 35.793 89.752 35.3672 89.752 34.9062ZM91.7266 34.7832V34.9062C91.7266 35.1445 91.7422 35.3652 91.7734 35.5684C91.8047 35.7715 91.8574 35.9512 91.9316 36.1074C92.0098 36.2598 92.1113 36.3789 92.2363 36.4648C92.3652 36.5508 92.5234 36.5938 92.7109 36.5938C92.9648 36.5938 93.1738 36.5332 93.3379 36.4121C93.5059 36.291 93.6289 36.1191 93.707 35.8965C93.7891 35.6738 93.8242 35.4121 93.8125 35.1113V34.6484C93.8203 34.3906 93.8027 34.1641 93.7598 33.9688C93.7168 33.7695 93.6484 33.6035 93.5547 33.4707C93.4648 33.3379 93.3496 33.2383 93.209 33.1719C93.0723 33.1016 92.9102 33.0664 92.7227 33.0664C92.5391 33.0664 92.3828 33.1094 92.2539 33.1953C92.1289 33.2812 92.0273 33.4023 91.9492 33.5586C91.8711 33.7109 91.8145 33.8926 91.7793 34.1035C91.7441 34.3105 91.7266 34.5371 91.7266 34.7832ZM99.8184 38.1172C99.3027 38.1172 98.8418 38.0371 98.4355 37.877C98.0293 37.7129 97.6855 37.4883 97.4043 37.2031C97.127 36.918 96.9141 36.5898 96.7656 36.2188C96.6211 35.8477 96.5488 35.4551 96.5488 35.041V34.8184C96.5488 34.3535 96.6133 33.9238 96.7422 33.5293C96.8711 33.1309 97.0625 32.7832 97.3164 32.4863C97.5703 32.1895 97.8887 31.959 98.2715 31.7949C98.6543 31.627 99.0996 31.543 99.6074 31.543C100.057 31.543 100.459 31.6152 100.814 31.7598C101.17 31.9043 101.471 32.1113 101.717 32.3809C101.967 32.6504 102.156 32.9766 102.285 33.3594C102.418 33.7422 102.484 34.1719 102.484 34.6484V35.4512H97.3047V34.2148H100.557V34.0625C100.561 33.8516 100.523 33.6719 100.445 33.5234C100.371 33.375 100.262 33.2617 100.117 33.1836C99.9727 33.1055 99.7969 33.0664 99.5898 33.0664C99.375 33.0664 99.1973 33.1133 99.0566 33.207C98.9199 33.3008 98.8125 33.4297 98.7344 33.5938C98.6602 33.7539 98.6074 33.9395 98.5762 34.1504C98.5449 34.3613 98.5293 34.584 98.5293 34.8184V35.041C98.5293 35.2754 98.5605 35.4883 98.623 35.6797C98.6895 35.8711 98.7832 36.0352 98.9043 36.1719C99.0293 36.3047 99.1777 36.4082 99.3496 36.4824C99.5254 36.5566 99.7246 36.5938 99.9473 36.5938C100.217 36.5938 100.482 36.543 100.744 36.4414C101.006 36.3398 101.23 36.1719 101.418 35.9375L102.314 37.0039C102.186 37.1875 102.002 37.3652 101.764 37.5371C101.529 37.709 101.248 37.8496 100.92 37.959C100.592 38.0645 100.225 38.1172 99.8184 38.1172ZM110.617 29.4688V38H108.643V31.6953L106.697 32.2637V30.7637L110.436 29.4688H110.617ZM114.455 36.5352H114.572C114.963 36.5352 115.314 36.4922 115.627 36.4062C115.939 36.3203 116.207 36.1875 116.43 36.0078C116.652 35.8242 116.822 35.5879 116.939 35.2988C117.061 35.0059 117.121 34.6523 117.121 34.2383V32.4746C117.121 32.2012 117.098 31.9648 117.051 31.7656C117.004 31.5625 116.936 31.3945 116.846 31.2617C116.756 31.1289 116.648 31.0312 116.523 30.9688C116.398 30.9023 116.258 30.8691 116.102 30.8691C115.945 30.8691 115.807 30.9141 115.686 31.0039C115.568 31.0898 115.467 31.207 115.381 31.3555C115.299 31.5 115.236 31.6641 115.193 31.8477C115.15 32.0273 115.129 32.209 115.129 32.3926C115.129 32.5996 115.15 32.793 115.193 32.9727C115.24 33.1484 115.307 33.3027 115.393 33.4355C115.482 33.5645 115.594 33.666 115.727 33.7402C115.863 33.8145 116.021 33.8516 116.201 33.8516C116.381 33.8516 116.535 33.8203 116.664 33.7578C116.797 33.6914 116.906 33.6055 116.992 33.5C117.078 33.3906 117.141 33.2734 117.18 33.1484C117.223 33.0234 117.242 32.9004 117.238 32.7793L117.812 33.2305C117.812 33.4805 117.756 33.7266 117.643 33.9688C117.529 34.2109 117.373 34.4316 117.174 34.6309C116.975 34.8262 116.744 34.9824 116.482 35.0996C116.225 35.2168 115.951 35.2754 115.662 35.2754C115.275 35.2754 114.926 35.207 114.613 35.0703C114.305 34.9336 114.041 34.7383 113.822 34.4844C113.604 34.2305 113.436 33.9277 113.318 33.5762C113.205 33.2207 113.148 32.8262 113.148 32.3926C113.148 31.9746 113.221 31.582 113.365 31.2148C113.51 30.8477 113.715 30.5254 113.98 30.248C114.246 29.9668 114.561 29.7461 114.924 29.5859C115.287 29.4258 115.686 29.3457 116.119 29.3457C116.529 29.3457 116.914 29.4238 117.273 29.5801C117.633 29.7324 117.949 29.957 118.223 30.2539C118.496 30.5508 118.711 30.916 118.867 31.3496C119.023 31.7832 119.102 32.2793 119.102 32.8379V33.5176C119.102 34.123 119.027 34.6699 118.879 35.1582C118.73 35.6465 118.52 36.0762 118.246 36.4473C117.973 36.8145 117.648 37.123 117.273 37.373C116.902 37.6191 116.49 37.8047 116.037 37.9297C115.588 38.0547 115.111 38.1172 114.607 38.1172H114.455V36.5352ZM121.416 36.5352H121.533C121.924 36.5352 122.275 36.4922 122.588 36.4062C122.9 36.3203 123.168 36.1875 123.391 36.0078C123.613 35.8242 123.783 35.5879 123.9 35.2988C124.021 35.0059 124.082 34.6523 124.082 34.2383V32.4746C124.082 32.2012 124.059 31.9648 124.012 31.7656C123.965 31.5625 123.896 31.3945 123.807 31.2617C123.717 31.1289 123.609 31.0312 123.484 30.9688C123.359 30.9023 123.219 30.8691 123.062 30.8691C122.906 30.8691 122.768 30.9141 122.646 31.0039C122.529 31.0898 122.428 31.207 122.342 31.3555C122.26 31.5 122.197 31.6641 122.154 31.8477C122.111 32.0273 122.09 32.209 122.09 32.3926C122.09 32.5996 122.111 32.793 122.154 32.9727C122.201 33.1484 122.268 33.3027 122.354 33.4355C122.443 33.5645 122.555 33.666 122.688 33.7402C122.824 33.8145 122.982 33.8516 123.162 33.8516C123.342 33.8516 123.496 33.8203 123.625 33.7578C123.758 33.6914 123.867 33.6055 123.953 33.5C124.039 33.3906 124.102 33.2734 124.141 33.1484C124.184 33.0234 124.203 32.9004 124.199 32.7793L124.773 33.2305C124.773 33.4805 124.717 33.7266 124.604 33.9688C124.49 34.2109 124.334 34.4316 124.135 34.6309C123.936 34.8262 123.705 34.9824 123.443 35.0996C123.186 35.2168 122.912 35.2754 122.623 35.2754C122.236 35.2754 121.887 35.207 121.574 35.0703C121.266 34.9336 121.002 34.7383 120.783 34.4844C120.564 34.2305 120.396 33.9277 120.279 33.5762C120.166 33.2207 120.109 32.8262 120.109 32.3926C120.109 31.9746 120.182 31.582 120.326 31.2148C120.471 30.8477 120.676 30.5254 120.941 30.248C121.207 29.9668 121.521 29.7461 121.885 29.5859C122.248 29.4258 122.646 29.3457 123.08 29.3457C123.49 29.3457 123.875 29.4238 124.234 29.5801C124.594 29.7324 124.91 29.957 125.184 30.2539C125.457 30.5508 125.672 30.916 125.828 31.3496C125.984 31.7832 126.062 32.2793 126.062 32.8379V33.5176C126.062 34.123 125.988 34.6699 125.84 35.1582C125.691 35.6465 125.48 36.0762 125.207 36.4473C124.934 36.8145 124.609 37.123 124.234 37.373C123.863 37.6191 123.451 37.8047 122.998 37.9297C122.549 38.0547 122.072 38.1172 121.568 38.1172H121.416V36.5352ZM133.059 29.4688V30.5234L129.871 38H127.785L130.979 30.9922H126.906V29.4688H133.059Z" fill="white"/>
<path d="M74.2012 36.5469H72.2012V36.6873L72.2208 36.8264L74.2012 36.5469ZM74.2012 29V27L72.2012 29H74.2012ZM76.1875 29H78.1875L76.1875 27V29ZM76.1875 38V40L78.1875 38H76.1875ZM74.4062 38L72.4259 38.2795L72.6687 40H74.4062V38ZM70.4688 33.4707L72.4009 33.9872L72.4022 33.9825L70.4688 33.4707ZM70.9375 32.4453L72.556 33.6204L72.5635 33.6099L70.9375 32.4453ZM73.7207 31.7949L72.6629 33.4923L72.6718 33.4979L72.6808 33.5033L73.7207 31.7949ZM74.8809 33.5293L72.9673 34.1109L72.9689 34.1161L74.8809 33.5293ZM75.1562 34.8066H77.1562V34.6705L77.1378 34.5357L75.1562 34.8066ZM75.1562 34.9531L77.1354 35.241L77.1562 35.0978V34.9531H75.1562ZM74.8809 36.1719L76.7859 36.7807L76.7877 36.7751L74.8809 36.1719ZM73.7148 37.8711L74.7547 39.5795L74.7617 39.5752L73.7148 37.8711ZM71.6992 37.877L70.7686 39.6473L70.7779 39.6521L71.6992 37.877ZM70.9316 37.2031L69.2953 38.353L69.3004 38.3604L69.3057 38.3677L70.9316 37.2031ZM72.4902 36.1074L70.6837 36.9655L70.6967 36.993L70.7106 37.0201L72.4902 36.1074ZM72.7949 36.4648L71.6619 38.1129L71.6736 38.121L71.6855 38.1289L72.7949 36.4648ZM73.8965 36.4121L72.7269 34.7898L72.7178 34.7963L72.7088 34.803L73.8965 36.4121ZM74.2656 35.8965L72.3889 35.2051L72.3836 35.2197L72.3784 35.2343L74.2656 35.8965ZM74.3711 35.1113H72.3711V35.1503L72.3726 35.1892L74.3711 35.1113ZM74.3711 34.6484L72.372 34.5879L72.3711 34.6181V34.6484H74.3711ZM74.3184 33.9688L72.3633 34.3904L72.3651 34.3985L74.3184 33.9688ZM74.1133 33.4707L72.4567 34.5913L72.4679 34.6078L72.4793 34.6241L74.1133 33.4707ZM73.7676 33.1719L72.8529 34.9505L72.883 34.9659L72.9136 34.9804L73.7676 33.1719ZM72.8125 33.1953L71.7031 31.5312L71.6912 31.5391L71.6794 31.5472L72.8125 33.1953ZM72.5078 33.5586L74.2874 34.4712L74.2921 34.4621L74.2967 34.453L72.5078 33.5586ZM72.3379 34.1035L74.3097 34.4383L74.3107 34.4323L72.3379 34.1035ZM76.2012 36.5469V29H72.2012V36.5469H76.2012ZM74.2012 31H76.1875V27H74.2012V31ZM74.1875 29V38H78.1875V29H74.1875ZM76.1875 36H74.4062V40H76.1875V36ZM76.3866 37.7205L76.1815 36.2674L72.2208 36.8264L72.4259 38.2795L76.3866 37.7205ZM72.3105 34.9062V34.7832H68.3105V34.9062H72.3105ZM72.3105 34.7832C72.3105 34.4473 72.3476 34.1867 72.4009 33.9872L68.5366 32.9542C68.379 33.5438 68.3105 34.1582 68.3105 34.7832H72.3105ZM72.4022 33.9825C72.455 33.7829 72.5163 33.675 72.5559 33.6203L69.3191 31.2703C68.9447 31.786 68.6934 32.3616 68.5353 32.9589L72.4022 33.9825ZM72.5635 33.6099C72.5885 33.5749 72.6012 33.5683 72.6144 33.5617L70.8075 29.993C70.2035 30.2989 69.7006 30.7376 69.3115 31.2808L72.5635 33.6099ZM72.6144 33.5617C72.6108 33.5635 72.6165 33.5597 72.6383 33.5549C72.6611 33.5499 72.7056 33.543 72.7773 33.543V29.543C72.1123 29.543 71.4385 29.6735 70.8075 29.993L72.6144 33.5617ZM72.7773 33.543C72.8007 33.543 72.7942 33.5456 72.7666 33.5382C72.7375 33.5304 72.7003 33.5156 72.6629 33.4923L74.7785 30.0975C74.1513 29.7067 73.4602 29.543 72.7773 29.543V33.543ZM72.6808 33.5033C72.6751 33.4999 72.6752 33.4987 72.6815 33.505C72.6884 33.5119 72.706 33.5311 72.7312 33.5701L76.093 31.4026C75.7576 30.8823 75.3176 30.4256 74.7606 30.0865L72.6808 33.5033ZM72.7312 33.5701C72.8061 33.6863 72.8907 33.859 72.9673 34.1109L76.7944 32.9477C76.6288 32.4027 76.4009 31.8801 76.093 31.4026L72.7312 33.5701ZM72.9689 34.1161C73.0549 34.3962 73.1251 34.7153 73.1747 35.0776L77.1378 34.5357C77.0624 33.9839 76.949 33.4514 76.7928 32.9425L72.9689 34.1161ZM73.1562 34.8066V34.9531H77.1562V34.8066H73.1562ZM73.1771 34.6652C73.1289 34.9966 73.06 35.2968 72.974 35.5687L76.7877 36.7751C76.9439 36.2813 77.0586 35.769 77.1354 35.241L73.1771 34.6652ZM72.9758 35.563C72.9021 35.7935 72.8185 35.9623 72.7378 36.0858L76.0864 38.2736C76.3886 37.8111 76.6174 37.308 76.7859 36.7807L72.9758 35.563ZM72.7378 36.0858C72.7138 36.1225 72.6957 36.1425 72.686 36.1521C72.6768 36.1613 72.6711 36.165 72.668 36.1669L74.7617 39.5752C75.3089 39.2391 75.7483 38.7911 76.0864 38.2736L72.7378 36.0858ZM72.6749 36.1627C72.7133 36.1393 72.749 36.126 72.7735 36.1197C72.7962 36.1138 72.7965 36.1172 72.7656 36.1172V40.1172C73.4392 40.1172 74.1269 39.9617 74.7547 39.5795L72.6749 36.1627ZM72.7656 36.1172C72.6972 36.1172 72.6562 36.1104 72.6368 36.106C72.6185 36.1019 72.6153 36.0991 72.6205 36.1018L70.7779 39.6521C71.4129 39.9817 72.0932 40.1172 72.7656 40.1172V36.1172ZM72.6298 36.1066C72.6102 36.0963 72.5894 36.0829 72.5576 36.0386L69.3057 38.3677C69.688 38.9015 70.1789 39.3373 70.7687 39.6473L72.6298 36.1066ZM72.568 36.0532C72.5169 35.9805 72.453 35.86 72.3996 35.6623L68.5379 36.7049C68.6954 37.2884 68.9401 37.8477 69.2953 38.353L72.568 36.0532ZM72.3996 35.6623C72.3459 35.4633 72.3105 35.2151 72.3105 34.9062H68.3105C68.3105 35.5193 68.3807 36.1226 68.5379 36.7049L72.3996 35.6623ZM70.2852 34.7832V34.9062H74.2852V34.7832H70.2852ZM70.2852 34.9062C70.2852 35.2307 70.3063 35.5543 70.3553 35.8725L74.3088 35.2642C74.2952 35.1761 74.2852 35.0584 74.2852 34.9062H70.2852ZM70.3553 35.8725C70.4107 36.2326 70.5122 36.6045 70.6837 36.9655L74.2968 35.2493C74.3084 35.2738 74.3132 35.2892 74.3141 35.2923C74.3149 35.2952 74.3122 35.2866 74.3088 35.2642L70.3553 35.8725ZM70.7106 37.0201C70.9202 37.4289 71.2302 37.8161 71.6619 38.1129L73.928 34.8168C74.1097 34.9417 74.2165 35.0907 74.2699 35.1948L70.7106 37.0201ZM71.6855 38.1289C72.2065 38.4763 72.7712 38.5938 73.2695 38.5938V34.5938C73.3929 34.5938 73.6411 34.6253 73.9043 34.8007L71.6855 38.1289ZM73.2695 38.5938C73.8446 38.5938 74.4995 38.4528 75.0842 38.0213L72.7088 34.803C72.9654 34.6136 73.2023 34.5938 73.2695 34.5938V38.5938ZM75.0661 38.0345C75.6107 37.6418 75.9589 37.1114 76.1528 36.5587L72.3784 35.2343C72.3949 35.1873 72.4277 35.1131 72.4885 35.0282C72.5507 34.9414 72.6311 34.8588 72.7269 34.7898L75.0661 38.0345ZM76.1423 36.5879C76.3357 36.0629 76.3889 35.5286 76.3696 35.0335L72.3726 35.1892C72.3746 35.2402 72.3716 35.2646 72.3713 35.2669C72.3711 35.2687 72.374 35.2456 72.3889 35.2051L76.1423 36.5879ZM76.3711 35.1113V34.6484H72.3711V35.1113H76.3711ZM76.3702 34.709C76.3816 34.3313 76.3585 33.9338 76.2716 33.539L72.3651 34.3985C72.3641 34.3943 72.3762 34.4499 72.372 34.5879L76.3702 34.709ZM76.2734 33.5471C76.1876 33.1493 76.0301 32.7181 75.7472 32.3173L72.4793 34.6241C72.4316 34.5564 72.4024 34.4974 72.3855 34.4563C72.3688 34.4159 72.3636 34.3917 72.3633 34.3904L76.2734 33.5471ZM75.7698 32.3501C75.4856 31.9298 75.097 31.5879 74.6216 31.3634L72.9136 34.9804C72.7194 34.8887 72.5613 34.746 72.4567 34.5913L75.7698 32.3501ZM74.6823 31.3933C74.2071 31.1489 73.718 31.0664 73.2812 31.0664V35.0664C73.2195 35.0664 73.0546 35.0542 72.8529 34.9505L74.6823 31.3933ZM73.2812 31.0664C72.7772 31.0664 72.2174 31.1883 71.7031 31.5312L73.9219 34.8594C73.6654 35.0304 73.4181 35.0664 73.2812 35.0664V31.0664ZM71.6794 31.5472C71.2358 31.8522 70.9252 32.2516 70.719 32.6642L74.2967 34.453C74.2466 34.5531 74.1392 34.7103 73.9456 34.8434L71.6794 31.5472ZM70.7282 32.646C70.5359 33.0209 70.4261 33.4088 70.3651 33.7747L74.3107 34.4323C74.315 34.4062 74.3181 34.3981 74.3161 34.4045C74.314 34.411 74.306 34.435 74.2874 34.4712L70.7282 32.646ZM70.3661 33.7687C70.3093 34.1032 70.2852 34.4435 70.2852 34.7832H74.2852C74.2852 34.6308 74.2962 34.5178 74.3097 34.4383L70.3661 33.7687ZM78.9941 37.877L78.2452 39.7314L78.2529 39.7345L78.2606 39.7376L78.9941 37.877ZM77.9629 37.2031L76.5291 38.5976L76.539 38.6076L77.9629 37.2031ZM77.3242 36.2188L75.4606 36.9446L75.4639 36.9531L75.4673 36.9615L77.3242 36.2188ZM77.3008 33.5293L79.2019 34.1505L79.2037 34.1449L77.3008 33.5293ZM78.8301 31.7949L79.6179 33.6332L79.6258 33.6298L79.6337 33.6264L78.8301 31.7949ZM82.2754 32.3809L80.7984 33.7294L80.8037 33.7352L80.809 33.7409L82.2754 32.3809ZM82.8438 33.3594L80.9483 33.9976L80.9512 34.0063L80.9542 34.0149L82.8438 33.3594ZM83.043 35.4512V37.4512L85.043 35.4512H83.043ZM77.8633 35.4512H75.8633L77.8633 37.4512V35.4512ZM77.8633 34.2148V32.2148L75.8633 34.2148H77.8633ZM81.1152 34.2148V36.2148L83.1152 34.2148H81.1152ZM81.1152 34.0625L79.1156 34.0255L79.1152 34.044V34.0625H81.1152ZM81.0039 33.5234L79.2151 34.4179L79.2244 34.4365L79.2341 34.4549L81.0039 33.5234ZM79.6152 33.207L78.5058 31.5429L78.495 31.5502L78.4842 31.5576L79.6152 33.207ZM79.293 33.5938L77.4872 32.7339L77.4827 32.7433L77.4783 32.7528L79.293 33.5938ZM79.1816 35.6797L77.2804 36.3005L77.2861 36.3179L77.2921 36.3352L79.1816 35.6797ZM79.4629 36.1719L77.9657 37.4979L77.9858 37.5206L78.0065 37.5426L79.4629 36.1719ZM79.9082 36.4824L79.1153 38.3185L79.1228 38.3218L79.1303 38.3249L79.9082 36.4824ZM81.9766 35.9375L83.5075 34.6505L80.4148 34.6881L81.9766 35.9375ZM82.873 37.0039L84.5099 38.1532L85.3937 36.8943L84.404 35.7169L82.873 37.0039ZM82.3223 37.5371L81.1523 35.9151L81.1459 35.9196L81.1395 35.9243L82.3223 37.5371ZM81.4785 37.959L82.0905 39.863L82.1008 39.8598L82.111 39.8564L81.4785 37.959ZM80.377 36.1172C80.0679 36.1172 79.8622 36.0694 79.7277 36.0163L78.2606 39.7376C78.9386 40.0049 79.6548 40.1172 80.377 40.1172V36.1172ZM79.7431 36.0225C79.5662 35.9511 79.4588 35.8717 79.3868 35.7987L76.539 38.6076C77.0295 39.1049 77.6096 39.4747 78.2452 39.7314L79.7431 36.0225ZM79.3966 35.8087C79.3025 35.7119 79.233 35.6055 79.1812 35.476L75.4673 36.9615C75.7123 37.5742 76.0686 38.124 76.5292 38.5976L79.3966 35.8087ZM79.1879 35.4929C79.137 35.3624 79.1074 35.2168 79.1074 35.041H75.1074C75.1074 35.6934 75.2224 36.333 75.4606 36.9446L79.1879 35.4929ZM79.1074 35.041V34.8184H75.1074V35.041H79.1074ZM79.1074 34.8184C79.1074 34.5395 79.1458 34.322 79.2019 34.1504L75.3997 32.9081C75.1979 33.5257 75.1074 34.1676 75.1074 34.8184H79.1074ZM79.2037 34.1449C79.2572 33.9793 79.3246 33.8684 79.3949 33.7863L76.3551 31.1864C75.9175 31.698 75.6021 32.2824 75.3979 32.9137L79.2037 34.1449ZM79.3949 33.7863C79.4363 33.7379 79.4981 33.6846 79.6179 33.6332L78.0422 29.9566C77.3964 30.2334 76.8216 30.641 76.3551 31.1864L79.3949 33.7863ZM79.6337 33.6264C79.7149 33.5907 79.8768 33.543 80.166 33.543V29.543C79.4396 29.543 78.7109 29.6632 78.0265 29.9635L79.6337 33.6264ZM80.166 33.543C80.4004 33.543 80.5407 33.5803 80.6197 33.6125L82.1263 29.9071C81.4945 29.6501 80.8301 29.543 80.166 29.543V33.543ZM80.6197 33.6125C80.714 33.6508 80.7633 33.691 80.7984 33.7294L83.7524 31.0323C83.2953 30.5317 82.743 30.1578 82.1263 29.9071L80.6197 33.6125ZM80.809 33.7409C80.8483 33.7832 80.9008 33.8563 80.9483 33.9976L84.7392 32.7211C84.5289 32.0968 84.2025 31.5176 83.7417 31.0208L80.809 33.7409ZM80.9542 34.0149C81.0023 34.1535 81.043 34.3566 81.043 34.6484H85.043C85.043 33.9871 84.9508 33.3309 84.7333 32.7038L80.9542 34.0149ZM81.043 34.6484V35.4512H85.043V34.6484H81.043ZM83.043 33.4512H77.8633V37.4512H83.043V33.4512ZM79.8633 35.4512V34.2148H75.8633V35.4512H79.8633ZM77.8633 36.2148H81.1152V32.2148H77.8633V36.2148ZM83.1152 34.2148V34.0625H79.1152V34.2148H83.1152ZM83.1149 34.0995C83.1235 33.6369 83.0443 33.1061 82.7737 32.5919L79.2341 34.4549C79.1197 34.2377 79.1148 34.0663 79.1156 34.0255L83.1149 34.0995ZM82.7928 32.629C82.5368 32.117 82.1368 31.6998 81.6268 31.4242L79.7247 34.943C79.6243 34.8887 79.5214 34.8137 79.4274 34.7163C79.3335 34.6191 79.2639 34.5156 79.2151 34.4179L82.7928 32.629ZM81.6268 31.4242C81.1238 31.1523 80.6029 31.0664 80.1484 31.0664V35.0664C80.1081 35.0664 79.9387 35.0587 79.7247 34.943L81.6268 31.4242ZM80.1484 31.0664C79.6454 31.0664 79.0538 31.1777 78.5058 31.5429L80.7246 34.8711C80.458 35.0489 80.2218 35.0664 80.1484 35.0664V31.0664ZM78.4842 31.5576C78.0295 31.8693 77.7018 32.2833 77.4872 32.7339L81.0987 34.4536C81.0404 34.5761 80.9275 34.7322 80.7463 34.8565L78.4842 31.5576ZM77.4783 32.7528C77.3089 33.1185 77.2101 33.4948 77.1564 33.8573L81.1132 34.4435C81.1174 34.4148 81.1212 34.4011 81.1216 34.3998C81.1219 34.3986 81.1184 34.4114 81.1076 34.4347L77.4783 32.7528ZM77.1564 33.8573C77.1094 34.1743 77.0879 34.4954 77.0879 34.8184H81.0879C81.0879 34.6726 81.0976 34.5484 81.1132 34.4435L77.1564 33.8573ZM77.0879 34.8184V35.041H81.0879V34.8184H77.0879ZM77.0879 35.041C77.0879 35.4524 77.1428 35.8789 77.2804 36.3005L81.0829 35.0589C81.0955 35.0977 81.0879 35.0983 81.0879 35.041H77.0879ZM77.2921 36.3352C77.4349 36.7466 77.6533 37.1452 77.9657 37.4979L80.9601 34.8458C81.0303 34.9251 81.0612 34.9956 81.0712 35.0241L77.2921 36.3352ZM78.0065 37.5426C78.3236 37.8795 78.6996 38.139 79.1153 38.3185L80.7011 34.6463C80.773 34.6774 80.8522 34.7298 80.9193 34.8011L78.0065 37.5426ZM79.1303 38.3249C79.5898 38.519 80.06 38.5938 80.5059 38.5938V34.5938C80.5055 34.5938 80.5234 34.5937 80.5557 34.5997C80.5887 34.6059 80.6337 34.6178 80.6861 34.6399L79.1303 38.3249ZM80.5059 38.5938C81.0331 38.5938 81.5436 38.4933 82.0263 38.3059L80.5792 34.5769C80.5385 34.5927 80.5177 34.5938 80.5059 34.5938V38.5938ZM82.0263 38.3059C82.6395 38.068 83.1463 37.6769 83.5383 37.1869L80.4148 34.6881C80.4196 34.6822 80.4371 34.662 80.4697 34.6376C80.503 34.6127 80.5409 34.5917 80.5792 34.5769L82.0263 38.3059ZM80.4457 37.2245L81.3421 38.2909L84.404 35.7169L83.5075 34.6505L80.4457 37.2245ZM81.2362 35.8546C81.2536 35.8299 81.2608 35.8251 81.2476 35.8379C81.2343 35.8508 81.2046 35.8773 81.1523 35.9151L83.4923 39.1592C83.8586 38.8949 84.2201 38.5659 84.5099 38.1532L81.2362 35.8546ZM81.1395 35.9243C81.101 35.9525 81.0134 36.0058 80.8461 36.0616L82.111 39.8564C82.5998 39.6934 83.0748 39.4654 83.505 39.1499L81.1395 35.9243ZM80.8665 36.0549C80.7678 36.0866 80.6116 36.1172 80.377 36.1172V40.1172C80.9548 40.1172 81.5329 40.0423 82.0905 39.863L80.8665 36.0549ZM87.0566 35.9375L85.5381 37.2391L85.5714 37.2779L85.6066 37.315L87.0566 35.9375ZM86.6816 35.7148L85.9528 37.5773L85.9705 37.5842L85.9883 37.5908L86.6816 35.7148ZM85.9258 35.5039L86.3497 33.5493L86.3465 33.5487L85.9258 35.5039ZM85.0527 35.2402L84.3007 37.0935L84.31 37.0972L85.0527 35.2402ZM83.8633 34.2852L82.0941 35.218L82.1007 35.2305L82.1075 35.2429L83.8633 34.2852ZM83.8633 32.7852L82.0629 31.914L82.057 31.9264L83.8633 32.7852ZM84.373 32.1465L85.6454 33.6896L85.6482 33.6873L84.373 32.1465ZM85.1992 31.707L85.8179 33.6089L85.8282 33.6056L85.8385 33.6021L85.1992 31.707ZM87.7832 31.8066L87.0017 33.6476L87.009 33.6507L87.0164 33.6538L87.7832 31.8066ZM88.7383 32.5332L87.1094 33.6938L87.1177 33.7053L87.1261 33.7168L88.7383 32.5332ZM89.0781 33.6055V35.6055L91.0781 33.6055H89.0781ZM87.1035 33.6055H85.1035L87.1035 35.6055V33.6055ZM87.0215 33.1953L85.1965 34.0134L85.2081 34.0393L85.2204 34.0648L87.0215 33.1953ZM86.7695 32.9375L85.8284 34.7022L85.8516 34.7146L85.8751 34.7264L86.7695 32.9375ZM85.9258 32.9199L85.1077 31.0949L85.0956 31.1003L85.0836 31.1059L85.9258 32.9199ZM85.6211 33.6816L83.8728 34.6529L83.9054 34.7117L83.942 34.7681L85.6211 33.6816ZM85.8145 33.8691L84.6878 35.5216L84.714 35.5394L84.7407 35.5565L85.8145 33.8691ZM86.1426 34.0215L85.4769 35.9075L85.5018 35.9162L85.5269 35.9244L86.1426 34.0215ZM86.623 34.1387L86.2545 36.1044L86.2621 36.1058L86.623 34.1387ZM88.7207 35.0879L87.2101 36.3986L87.2155 36.4049L87.221 36.4111L88.7207 35.0879ZM88.8789 36.9395L90.6314 37.9033L90.638 37.8911L88.8789 36.9395ZM88.3223 37.5605L89.4971 39.1791L89.5055 39.173L89.514 39.1667L88.3223 37.5605ZM84.7656 37.7949L83.8382 39.5669L83.8448 39.5703L83.8513 39.5737L84.7656 37.7949ZM83.8164 36.9746L82.1283 38.0471L82.1356 38.0587L82.1432 38.0702L83.8164 36.9746ZM83.5 35.9668V33.9668L81.5 35.9668H83.5ZM85.3398 35.9668L87.3382 35.8869L87.2614 33.9668H85.3398V35.9668ZM85.4805 36.4473L83.8324 37.5803L83.8442 37.5976L83.8564 37.6145L85.4805 36.4473ZM86.7988 36.7344L86.0254 34.89L86.0145 34.8946L86.0036 34.8993L86.7988 36.7344ZM87.0742 36.5293L88.6917 37.7056L88.704 37.6887L88.716 37.6714L87.0742 36.5293ZM89.168 36.2188C89.168 35.6053 88.9398 35.016 88.5066 34.56L85.6066 37.315C85.4797 37.1813 85.3625 37.0097 85.2805 36.8025C85.1987 36.5959 85.168 36.3946 85.168 36.2188H89.168ZM88.5752 34.6359C88.1717 34.1652 87.6615 33.9448 87.3749 33.8389L85.9883 37.5908C85.998 37.5944 85.9577 37.5807 85.8891 37.54C85.8246 37.5017 85.6844 37.4097 85.5381 37.2391L88.5752 34.6359ZM87.4104 33.8524C87.0861 33.7254 86.7153 33.6286 86.3497 33.5493L85.5019 37.4585C85.7847 37.5198 85.9179 37.5636 85.9528 37.5773L87.4104 33.8524ZM86.3465 33.5487C86.1401 33.5042 85.9574 33.448 85.7955 33.3833L84.31 37.0972C84.6949 37.2512 85.0943 37.3708 85.505 37.4591L86.3465 33.5487ZM85.8048 33.387C85.6803 33.3365 85.6055 33.2891 85.5632 33.2565L83.1243 36.427C83.4882 36.707 83.8861 36.9252 84.3007 37.0935L85.8048 33.387ZM85.5632 33.2565C85.5641 33.2573 85.5729 33.2643 85.5853 33.2786C85.5978 33.2931 85.6096 33.3101 85.6191 33.3275L82.1075 35.2429C82.3641 35.7134 82.7113 36.1094 83.1243 36.427L85.5632 33.2565ZM85.6324 33.3523C85.6596 33.4038 85.676 33.4521 85.6849 33.4909C85.6936 33.5285 85.6934 33.5492 85.6934 33.5469H81.6934C81.6934 34.1028 81.8089 34.6771 82.0941 35.218L85.6324 33.3523ZM85.6934 33.5469C85.6934 33.5533 85.6926 33.5687 85.6879 33.5897C85.6831 33.611 85.6763 33.6298 85.6695 33.6439L82.057 31.9264C81.8134 32.4389 81.6934 32.9869 81.6934 33.5469H85.6934ZM85.6636 33.6563C85.6566 33.6708 85.6484 33.6831 85.6417 33.6915C85.6353 33.6995 85.6347 33.6984 85.6454 33.6896L83.1007 30.6034C82.6721 30.9568 82.3146 31.3939 82.063 31.914L85.6636 33.6563ZM85.6482 33.6873C85.6523 33.6839 85.6956 33.6487 85.8179 33.6089L84.5805 29.8051C84.0544 29.9763 83.5469 30.2341 83.0979 30.6057L85.6482 33.6873ZM85.8385 33.6021C85.9187 33.5751 86.0658 33.543 86.3066 33.543V29.543C85.7194 29.543 85.1282 29.6203 84.5599 29.812L85.8385 33.6021ZM86.3066 33.543C86.6776 33.543 86.8914 33.6008 87.0017 33.6476L88.5647 29.9657C87.8469 29.6609 87.0763 29.543 86.3066 29.543V33.543ZM87.0164 33.6538C87.0839 33.6818 87.1142 33.7033 87.1216 33.7089C87.1274 33.7134 87.1198 33.7083 87.1094 33.6938L90.3671 31.3727C89.8927 30.7067 89.2508 30.2504 88.55 29.9595L87.0164 33.6538ZM87.1261 33.7168C87.1131 33.6991 87.0973 33.6705 87.0866 33.637C87.0764 33.6046 87.0781 33.5903 87.0781 33.6055H91.0781C91.0781 32.8011 90.8449 32.0231 90.3504 31.3496L87.1261 33.7168ZM89.0781 31.6055H87.1035V35.6055H89.0781V31.6055ZM89.1035 33.6055C89.1035 33.2239 89.0389 32.7739 88.8226 32.3258L85.2204 34.0648C85.1134 33.8433 85.1035 33.6667 85.1035 33.6055H89.1035ZM88.8465 32.3772C88.5959 31.8181 88.1694 31.4014 87.664 31.1486L85.8751 34.7264C85.7525 34.665 85.6171 34.5738 85.49 34.4438C85.3619 34.3127 85.2642 34.1645 85.1965 34.0134L88.8465 32.3772ZM87.7107 31.1728C87.1995 30.9001 86.6812 30.8438 86.3008 30.8438V34.8438C86.295 34.8438 86.2483 34.8436 86.1722 34.8283C86.0957 34.813 85.9725 34.7791 85.8284 34.7022L87.7107 31.1728ZM86.3008 30.8438C85.9109 30.8438 85.5033 30.9175 85.1077 31.0949L86.7439 34.7449C86.5748 34.8207 86.4173 34.8438 86.3008 34.8438V30.8438ZM85.0836 31.1059C84.6953 31.2862 84.3348 31.5618 84.0538 31.9421L87.2705 34.3196C87.1222 34.5202 86.9375 34.6552 86.768 34.7339L85.0836 31.1059ZM84.0538 31.9421C83.7113 32.4054 83.5625 32.9362 83.5625 33.4473H87.5625C87.5625 33.7161 87.4801 34.036 87.2705 34.3196L84.0538 31.9421ZM83.5625 33.4473C83.5625 33.8491 83.6574 34.2652 83.8728 34.6529L87.3694 32.7104C87.5067 32.9575 87.5625 33.2173 87.5625 33.4473H83.5625ZM83.942 34.7681C84.1674 35.1165 84.4477 35.3579 84.6878 35.5216L86.9411 32.2167C87.0093 32.2632 87.1608 32.3796 87.3002 32.5951L83.942 34.7681ZM84.7407 35.5565C84.9929 35.7169 85.2511 35.8278 85.4769 35.9075L86.8082 32.1355C86.7921 32.1298 86.7916 32.1288 86.8032 32.1342C86.8143 32.1394 86.8448 32.1542 86.8882 32.1818L84.7407 35.5565ZM85.5269 35.9244C85.7639 36.001 86.0114 36.0588 86.2545 36.1044L86.9916 32.1729C86.8597 32.1482 86.7869 32.1279 86.7582 32.1186L85.5269 35.9244ZM86.2621 36.1058C86.5739 36.163 86.8492 36.2415 87.0925 36.3363L88.5442 32.609C88.0453 32.4147 87.5237 32.2705 86.984 32.1715L86.2621 36.1058ZM87.0925 36.3363C87.15 36.3587 87.1815 36.3777 87.1956 36.3873C87.2088 36.3964 87.2115 36.4003 87.2101 36.3986L90.2313 33.7772C89.7613 33.2354 89.1774 32.8556 88.5442 32.609L87.0925 36.3363ZM87.221 36.4111C87.1475 36.3278 87.1047 36.2415 87.0839 36.1783C87.0652 36.1212 87.0723 36.1073 87.0723 36.1602H91.0723C91.0723 35.3584 90.8564 34.4855 90.2204 33.7646L87.221 36.4111ZM87.0723 36.1602C87.0723 36.1467 87.074 36.1198 87.0828 36.0843C87.0917 36.0484 87.105 36.0152 87.1198 35.9878L90.638 37.8911C90.9312 37.3492 91.0723 36.7606 91.0723 36.1602H87.0723ZM87.1265 35.9756C87.1321 35.9655 87.1376 35.9568 87.1427 35.9497C87.1477 35.9426 87.1516 35.938 87.1537 35.9357C87.158 35.9309 87.1526 35.938 87.1306 35.9544L89.514 39.1667C89.9576 38.8376 90.3472 38.4199 90.6313 37.9033L87.1265 35.9756ZM87.1475 35.9419C87.1243 35.9588 87.0528 36.0037 86.8969 36.0485L88.0016 39.8929C88.5253 39.7424 89.0359 39.5139 89.4971 39.1791L87.1475 35.9419ZM86.8969 36.0485C86.7688 36.0853 86.5765 36.1172 86.3008 36.1172V40.1172C86.8767 40.1172 87.45 40.0514 88.0016 39.8929L86.8969 36.0485ZM86.3008 36.1172C85.9245 36.1172 85.7454 36.0498 85.6799 36.0162L83.8513 39.5737C84.6218 39.9697 85.4662 40.1172 86.3008 40.1172V36.1172ZM85.693 36.0229C85.6033 35.976 85.5506 35.9368 85.5226 35.9126C85.5086 35.9005 85.5002 35.8917 85.4957 35.8866C85.4913 35.8815 85.4897 35.8791 85.4896 35.879L82.1432 38.0702C82.5793 38.7363 83.1792 39.222 83.8382 39.5669L85.693 36.0229ZM85.5045 35.9021C85.482 35.8666 85.482 35.8576 85.4873 35.8746C85.4899 35.8828 85.4932 35.8957 85.4959 35.9125C85.4985 35.9295 85.5 35.9478 85.5 35.9668H81.5C81.5 36.7433 81.7464 37.446 82.1283 38.0471L85.5045 35.9021ZM83.5 37.9668H85.3398V33.9668H83.5V37.9668ZM83.3414 36.0467C83.36 36.5118 83.479 37.0664 83.8324 37.5803L87.1286 35.3142C87.31 35.5782 87.3353 35.8124 87.3382 35.8869L83.3414 36.0467ZM83.8564 37.6145C84.1787 38.0629 84.612 38.3889 85.1036 38.583L86.5722 34.8623C86.7669 34.9392 86.9619 35.0816 87.1045 35.28L83.8564 37.6145ZM85.1036 38.583C85.5317 38.752 85.9614 38.8105 86.3535 38.8105V34.8105C86.355 34.8105 86.4409 34.8105 86.5722 34.8623L85.1036 38.583ZM86.3535 38.8105C86.7033 38.8105 87.1457 38.7638 87.594 38.5695L86.0036 34.8993C86.1151 34.851 86.2063 34.8297 86.2624 34.8201C86.3184 34.8106 86.3512 34.8105 86.3535 34.8105V38.8105ZM87.5723 38.5788C87.9513 38.4198 88.3688 38.1497 88.6917 37.7056L85.4567 35.353C85.6547 35.0808 85.8885 34.9474 86.0254 34.89L87.5723 38.5788ZM88.716 37.6714C89.0285 37.2222 89.168 36.7138 89.168 36.2188H85.168C85.168 35.958 85.2449 35.6567 85.4324 35.3872L88.716 37.6714ZM93.6426 36.5469H91.6426V36.6873L91.6622 36.8264L93.6426 36.5469ZM93.6426 29V27L91.6426 29H93.6426ZM95.6289 29H97.6289L95.6289 27V29ZM95.6289 38V40L97.6289 38H95.6289ZM93.8477 38L91.8673 38.2795L92.1101 40H93.8477V38ZM89.9102 33.4707L91.8423 33.9872L91.8436 33.9825L89.9102 33.4707ZM90.3789 32.4453L91.9974 33.6204L92.0049 33.6099L90.3789 32.4453ZM93.1621 31.7949L92.1043 33.4923L92.1132 33.4979L92.1222 33.5033L93.1621 31.7949ZM94.3223 33.5293L92.4087 34.1109L92.4103 34.1161L94.3223 33.5293ZM94.5977 34.8066H96.5977V34.6705L96.5792 34.5357L94.5977 34.8066ZM94.5977 34.9531L96.5768 35.241L96.5977 35.0978V34.9531H94.5977ZM94.3223 36.1719L96.2274 36.7807L96.2291 36.7751L94.3223 36.1719ZM93.1562 37.8711L94.1962 39.5795L94.2031 39.5752L93.1562 37.8711ZM91.1406 37.877L90.2101 39.6473L90.2193 39.6521L91.1406 37.877ZM90.373 37.2031L88.7367 38.353L88.7418 38.3604L88.7471 38.3677L90.373 37.2031ZM91.9316 36.1074L90.1251 36.9655L90.1381 36.993L90.152 37.0201L91.9316 36.1074ZM92.2363 36.4648L91.1033 38.1129L91.115 38.121L91.1269 38.1289L92.2363 36.4648ZM93.3379 36.4121L92.1683 34.7898L92.1592 34.7963L92.1502 34.803L93.3379 36.4121ZM93.707 35.8965L91.8303 35.2051L91.825 35.2197L91.8198 35.2343L93.707 35.8965ZM93.8125 35.1113H91.8125V35.1503L91.814 35.1892L93.8125 35.1113ZM93.8125 34.6484L91.8134 34.5879L91.8125 34.6181V34.6484H93.8125ZM93.7598 33.9688L91.8047 34.3904L91.8065 34.3985L93.7598 33.9688ZM93.5547 33.4707L91.8981 34.5913L91.9093 34.6078L91.9208 34.6241L93.5547 33.4707ZM93.209 33.1719L92.2943 34.9505L92.3244 34.9659L92.355 34.9804L93.209 33.1719ZM92.2539 33.1953L91.1445 31.5312L91.1326 31.5391L91.1208 31.5472L92.2539 33.1953ZM91.9492 33.5586L93.7289 34.4712L93.7335 34.4621L93.7381 34.453L91.9492 33.5586ZM91.7793 34.1035L93.7511 34.4383L93.7521 34.4323L91.7793 34.1035ZM95.6426 36.5469V29H91.6426V36.5469H95.6426ZM93.6426 31H95.6289V27H93.6426V31ZM93.6289 29V38H97.6289V29H93.6289ZM95.6289 36H93.8477V40H95.6289V36ZM95.828 37.7205L95.623 36.2674L91.6622 36.8264L91.8673 38.2795L95.828 37.7205ZM91.752 34.9062V34.7832H87.752V34.9062H91.752ZM91.752 34.7832C91.752 34.4473 91.789 34.1867 91.8423 33.9872L87.978 32.9542C87.8204 33.5438 87.752 34.1582 87.752 34.7832H91.752ZM91.8436 33.9825C91.8964 33.7829 91.9577 33.675 91.9973 33.6203L88.7605 31.2703C88.3861 31.786 88.1349 32.3616 87.9767 32.9589L91.8436 33.9825ZM92.0049 33.6099C92.0299 33.5749 92.0426 33.5683 92.0558 33.5617L90.2489 29.993C89.6449 30.2989 89.142 30.7376 88.7529 31.2808L92.0049 33.6099ZM92.0558 33.5617C92.0522 33.5635 92.0579 33.5597 92.0797 33.5549C92.1025 33.5499 92.147 33.543 92.2188 33.543V29.543C91.5537 29.543 90.8799 29.6735 90.2489 29.993L92.0558 33.5617ZM92.2188 33.543C92.2421 33.543 92.2356 33.5456 92.208 33.5382C92.1789 33.5304 92.1417 33.5156 92.1043 33.4923L94.2199 30.0975C93.5927 29.7067 92.9016 29.543 92.2188 29.543V33.543ZM92.1222 33.5033C92.1165 33.4999 92.1166 33.4987 92.1229 33.505C92.1298 33.5119 92.1475 33.5311 92.1726 33.5701L95.5344 31.4026C95.199 30.8823 94.759 30.4256 94.202 30.0865L92.1222 33.5033ZM92.1726 33.5701C92.2475 33.6863 92.3322 33.859 92.4087 34.1109L96.2358 32.9477C96.0702 32.4027 95.8423 31.8801 95.5344 31.4026L92.1726 33.5701ZM92.4103 34.1161C92.4963 34.3962 92.5666 34.7153 92.6161 35.0776L96.5792 34.5357C96.5038 33.9839 96.3905 33.4514 96.2342 32.9425L92.4103 34.1161ZM92.5977 34.8066V34.9531H96.5977V34.8066H92.5977ZM92.6185 34.6652C92.5703 34.9966 92.5014 35.2968 92.4154 35.5687L96.2291 36.7751C96.3853 36.2813 96.5 35.769 96.5768 35.241L92.6185 34.6652ZM92.4172 35.563C92.3435 35.7935 92.2599 35.9623 92.1792 36.0858L95.5278 38.2736C95.83 37.8111 96.0588 37.308 96.2273 36.7807L92.4172 35.563ZM92.1792 36.0858C92.1552 36.1225 92.1371 36.1425 92.1274 36.1521C92.1182 36.1613 92.1126 36.165 92.1094 36.1669L94.2031 39.5752C94.7503 39.2391 95.1897 38.7911 95.5278 38.2736L92.1792 36.0858ZM92.1164 36.1627C92.1548 36.1393 92.1904 36.126 92.2149 36.1197C92.2376 36.1138 92.2379 36.1172 92.207 36.1172V40.1172C92.8806 40.1172 93.5683 39.9617 94.1961 39.5795L92.1164 36.1627ZM92.207 36.1172C92.1386 36.1172 92.0976 36.1104 92.0782 36.106C92.0599 36.1019 92.0567 36.0991 92.0619 36.1018L90.2193 39.6521C90.8543 39.9817 91.5346 40.1172 92.207 40.1172V36.1172ZM92.0712 36.1066C92.0516 36.0963 92.0308 36.0829 91.999 36.0386L88.7471 38.3677C89.1294 38.9015 89.6203 39.3373 90.2101 39.6473L92.0712 36.1066ZM92.0094 36.0532C91.9583 35.9805 91.8944 35.86 91.841 35.6623L87.9793 36.7049C88.1368 37.2884 88.3816 37.8477 88.7367 38.353L92.0094 36.0532ZM91.841 35.6623C91.7873 35.4633 91.752 35.2151 91.752 34.9062H87.752C87.752 35.5193 87.8221 36.1226 87.9793 36.7049L91.841 35.6623ZM89.7266 34.7832V34.9062H93.7266V34.7832H89.7266ZM89.7266 34.9062C89.7266 35.2307 89.7478 35.5543 89.7967 35.8725L93.7502 35.2642C93.7366 35.1761 93.7266 35.0584 93.7266 34.9062H89.7266ZM89.7967 35.8725C89.8521 36.2326 89.9536 36.6045 90.1251 36.9655L93.7382 35.2493C93.7498 35.2738 93.7546 35.2892 93.7555 35.2923C93.7563 35.2952 93.7536 35.2866 93.7502 35.2642L89.7967 35.8725ZM90.152 37.0201C90.3617 37.4289 90.6716 37.8161 91.1033 38.1129L93.3694 34.8168C93.5511 34.9417 93.6579 35.0907 93.7113 35.1948L90.152 37.0201ZM91.1269 38.1289C91.6479 38.4763 92.2126 38.5938 92.7109 38.5938V34.5938C92.8343 34.5938 93.0825 34.6253 93.3457 34.8007L91.1269 38.1289ZM92.7109 38.5938C93.286 38.5938 93.9409 38.4528 94.5256 38.0213L92.1502 34.803C92.4068 34.6136 92.6437 34.5938 92.7109 34.5938V38.5938ZM94.5075 38.0345C95.0521 37.6418 95.4003 37.1114 95.5942 36.5587L91.8198 35.2343C91.8363 35.1873 91.8691 35.1131 91.9299 35.0282C91.9921 34.9414 92.0725 34.8588 92.1683 34.7898L94.5075 38.0345ZM95.5837 36.5879C95.7771 36.0629 95.8303 35.5286 95.811 35.0335L91.814 35.1892C91.816 35.2402 91.813 35.2646 91.8127 35.2669C91.8125 35.2687 91.8154 35.2456 91.8303 35.2051L95.5837 36.5879ZM95.8125 35.1113V34.6484H91.8125V35.1113H95.8125ZM95.8116 34.709C95.823 34.3313 95.7999 33.9338 95.7131 33.539L91.8065 34.3985C91.8056 34.3943 91.8176 34.4499 91.8134 34.5879L95.8116 34.709ZM95.7148 33.5471C95.629 33.1493 95.4715 32.7181 95.1886 32.3173L91.9208 34.6241C91.873 34.5564 91.8438 34.4974 91.8269 34.4563C91.8103 34.4159 91.805 34.3917 91.8047 34.3904L95.7148 33.5471ZM95.2113 32.3501C94.927 31.9298 94.5384 31.5879 94.063 31.3634L92.355 34.9804C92.1608 34.8887 92.0027 34.746 91.8981 34.5913L95.2113 32.3501ZM94.1237 31.3933C93.6485 31.1489 93.1594 31.0664 92.7227 31.0664V35.0664C92.6609 35.0664 92.496 35.0542 92.2943 34.9505L94.1237 31.3933ZM92.7227 31.0664C92.2187 31.0664 91.6589 31.1883 91.1445 31.5312L93.3633 34.8594C93.1068 35.0304 92.8595 35.0664 92.7227 35.0664V31.0664ZM91.1208 31.5472C90.6772 31.8522 90.3666 32.2516 90.1604 32.6642L93.7381 34.453C93.688 34.5531 93.5806 34.7103 93.387 34.8434L91.1208 31.5472ZM90.1696 32.646C89.9773 33.0209 89.8675 33.4088 89.8065 33.7747L93.7521 34.4323C93.7564 34.4062 93.7595 34.3981 93.7575 34.4045C93.7554 34.411 93.7474 34.435 93.7289 34.4712L90.1696 32.646ZM89.8075 33.7687C89.7507 34.1032 89.7266 34.4435 89.7266 34.7832H93.7266C93.7266 34.6308 93.7376 34.5178 93.7511 34.4383L89.8075 33.7687ZM98.4355 37.877L97.6866 39.7314L97.6943 39.7345L97.702 39.7376L98.4355 37.877ZM97.4043 37.2031L95.9705 38.5976L95.9804 38.6076L97.4043 37.2031ZM96.7656 36.2188L94.902 36.9446L94.9053 36.9531L94.9087 36.9615L96.7656 36.2188ZM96.7422 33.5293L98.6433 34.1505L98.6451 34.1449L96.7422 33.5293ZM98.2715 31.7949L99.0593 33.6332L99.0672 33.6298L99.0751 33.6264L98.2715 31.7949ZM101.717 32.3809L100.24 33.7294L100.245 33.7352L100.25 33.7409L101.717 32.3809ZM102.285 33.3594L100.39 33.9976L100.393 34.0063L100.396 34.0149L102.285 33.3594ZM102.484 35.4512V37.4512L104.484 35.4512H102.484ZM97.3047 35.4512H95.3047L97.3047 37.4512V35.4512ZM97.3047 34.2148V32.2148L95.3047 34.2148H97.3047ZM100.557 34.2148V36.2148L102.557 34.2148H100.557ZM100.557 34.0625L98.557 34.0255L98.5566 34.044V34.0625H100.557ZM100.445 33.5234L98.6565 34.4179L98.6658 34.4365L98.6755 34.4549L100.445 33.5234ZM99.0566 33.207L97.9472 31.5429L97.9364 31.5502L97.9256 31.5576L99.0566 33.207ZM98.7344 33.5938L96.9287 32.7339L96.9242 32.7433L96.9198 32.7528L98.7344 33.5938ZM98.623 35.6797L96.7218 36.3005L96.7275 36.3179L96.7335 36.3352L98.623 35.6797ZM98.9043 36.1719L97.4071 37.4979L97.4272 37.5206L97.4479 37.5426L98.9043 36.1719ZM99.3496 36.4824L98.5567 38.3185L98.5642 38.3218L98.5717 38.3249L99.3496 36.4824ZM101.418 35.9375L102.949 34.6505L99.8562 34.6881L101.418 35.9375ZM102.314 37.0039L103.951 38.1532L104.835 36.8943L103.845 35.7169L102.314 37.0039ZM101.764 37.5371L100.594 35.9151L100.587 35.9196L100.581 35.9243L101.764 37.5371ZM100.92 37.959L101.532 39.863L101.542 39.8598L101.552 39.8564L100.92 37.959ZM99.8184 36.1172C99.5093 36.1172 99.3036 36.0694 99.1691 36.0163L97.702 39.7376C98.38 40.0049 99.0962 40.1172 99.8184 40.1172V36.1172ZM99.1845 36.0225C99.0076 35.9511 98.9002 35.8717 98.8282 35.7987L95.9804 38.6076C96.4709 39.1049 97.051 39.4747 97.6866 39.7314L99.1845 36.0225ZM98.838 35.8087C98.7439 35.7119 98.6744 35.6055 98.6226 35.476L94.9087 36.9615C95.1538 37.5742 95.51 38.124 95.9706 38.5976L98.838 35.8087ZM98.6293 35.4929C98.5784 35.3624 98.5488 35.2168 98.5488 35.041H94.5488C94.5488 35.6934 94.6638 36.333 94.902 36.9446L98.6293 35.4929ZM98.5488 35.041V34.8184H94.5488V35.041H98.5488ZM98.5488 34.8184C98.5488 34.5395 98.5872 34.322 98.6433 34.1504L94.8411 32.9081C94.6393 33.5257 94.5488 34.1676 94.5488 34.8184H98.5488ZM98.6451 34.1449C98.6986 33.9793 98.766 33.8684 98.8363 33.7863L95.7965 31.1864C95.359 31.698 95.0435 32.2824 94.8393 32.9137L98.6451 34.1449ZM98.8363 33.7863C98.8777 33.7379 98.9395 33.6846 99.0593 33.6332L97.4836 29.9566C96.8378 30.2334 96.263 30.641 95.7965 31.1864L98.8363 33.7863ZM99.0751 33.6264C99.1563 33.5907 99.3182 33.543 99.6074 33.543V29.543C98.8811 29.543 98.1523 29.6632 97.4679 29.9635L99.0751 33.6264ZM99.6074 33.543C99.8418 33.543 99.9821 33.5803 100.061 33.6125L101.568 29.9071C100.936 29.6501 100.271 29.543 99.6074 29.543V33.543ZM100.061 33.6125C100.155 33.6508 100.205 33.691 100.24 33.7294L103.194 31.0323C102.737 30.5317 102.184 30.1578 101.568 29.9071L100.061 33.6125ZM100.25 33.7409C100.29 33.7832 100.342 33.8563 100.39 33.9976L104.181 32.7211C103.97 32.0968 103.644 31.5176 103.183 31.0208L100.25 33.7409ZM100.396 34.0149C100.444 34.1535 100.484 34.3566 100.484 34.6484H104.484C104.484 33.9871 104.392 33.3309 104.175 32.7038L100.396 34.0149ZM100.484 34.6484V35.4512H104.484V34.6484H100.484ZM102.484 33.4512H97.3047V37.4512H102.484V33.4512ZM99.3047 35.4512V34.2148H95.3047V35.4512H99.3047ZM97.3047 36.2148H100.557V32.2148H97.3047V36.2148ZM102.557 34.2148V34.0625H98.5566V34.2148H102.557ZM102.556 34.0995C102.565 33.6369 102.486 33.1061 102.215 32.5919L98.6755 34.4549C98.5611 34.2377 98.5562 34.0663 98.557 34.0255L102.556 34.0995ZM102.234 32.629C101.978 32.117 101.578 31.6998 101.068 31.4242L99.1662 34.943C99.0657 34.8887 98.9628 34.8137 98.8688 34.7163C98.7749 34.6191 98.7053 34.5156 98.6565 34.4179L102.234 32.629ZM101.068 31.4242C100.565 31.1523 100.044 31.0664 99.5898 31.0664V35.0664C99.5495 35.0664 99.3801 35.0587 99.1662 34.943L101.068 31.4242ZM99.5898 31.0664C99.0868 31.0664 98.4952 31.1777 97.9472 31.5429L100.166 34.8711C99.8994 35.0489 99.6632 35.0664 99.5898 35.0664V31.0664ZM97.9256 31.5576C97.4709 31.8693 97.1432 32.2833 96.9287 32.7339L100.54 34.4536C100.482 34.5761 100.369 34.7322 100.188 34.8565L97.9256 31.5576ZM96.9198 32.7528C96.7503 33.1185 96.6515 33.4948 96.5978 33.8573L100.555 34.4435C100.559 34.4148 100.563 34.4011 100.563 34.3998C100.563 34.3986 100.56 34.4114 100.549 34.4347L96.9198 32.7528ZM96.5978 33.8573C96.5508 34.1743 96.5293 34.4954 96.5293 34.8184H100.529C100.529 34.6726 100.539 34.5484 100.555 34.4435L96.5978 33.8573ZM96.5293 34.8184V35.041H100.529V34.8184H96.5293ZM96.5293 35.041C96.5293 35.4524 96.5842 35.8789 96.7218 36.3005L100.524 35.0589C100.537 35.0977 100.529 35.0983 100.529 35.041H96.5293ZM96.7335 36.3352C96.8763 36.7466 97.0947 37.1452 97.4071 37.4979L100.401 34.8458C100.472 34.9251 100.503 34.9956 100.513 35.0241L96.7335 36.3352ZM97.4479 37.5426C97.765 37.8795 98.141 38.139 98.5567 38.3185L100.142 34.6463C100.214 34.6774 100.294 34.7298 100.361 34.8011L97.4479 37.5426ZM98.5717 38.3249C99.0312 38.519 99.5014 38.5938 99.9473 38.5938V34.5938C99.9469 34.5938 99.9648 34.5937 99.9971 34.5997C100.03 34.6059 100.075 34.6178 100.128 34.6399L98.5717 38.3249ZM99.9473 38.5938C100.475 38.5938 100.985 38.4933 101.468 38.3059L100.021 34.5769C99.9799 34.5927 99.9591 34.5938 99.9473 34.5938V38.5938ZM101.468 38.3059C102.081 38.068 102.588 37.6769 102.98 37.1869L99.8562 34.6881C99.861 34.6822 99.8785 34.662 99.9111 34.6376C99.9444 34.6127 99.9823 34.5917 100.021 34.5769L101.468 38.3059ZM99.8871 37.2245L100.784 38.2909L103.845 35.7169L102.949 34.6505L99.8871 37.2245ZM100.678 35.8546C100.695 35.8299 100.702 35.8251 100.689 35.8379C100.676 35.8508 100.646 35.8773 100.594 35.9151L102.934 39.1592C103.3 38.8949 103.661 38.5659 103.951 38.1532L100.678 35.8546ZM100.581 35.9243C100.542 35.9525 100.455 36.0058 100.287 36.0616L101.552 39.8564C102.041 39.6934 102.516 39.4654 102.946 39.1499L100.581 35.9243ZM100.308 36.0549C100.209 36.0866 100.053 36.1172 99.8184 36.1172V40.1172C100.396 40.1172 100.974 40.0423 101.532 39.863L100.308 36.0549ZM110.617 29.4688H112.617L110.617 27.4688V29.4688ZM110.617 38V40L112.617 38H110.617ZM108.643 38H106.643L108.643 40V38ZM108.643 31.6953H110.643L108.082 29.7756L108.643 31.6953ZM106.697 32.2637H104.697L107.258 34.1834L106.697 32.2637ZM106.697 30.7637L106.043 28.8738L104.697 29.3399V30.7637H106.697ZM110.436 29.4688V27.4688H110.099L109.781 27.5789L110.436 29.4688ZM108.617 29.4688V38H112.617V29.4688H108.617ZM110.617 36H108.643V40H110.617V36ZM110.643 38V31.6953H106.643V38H110.643ZM108.082 29.7756L106.136 30.3439L107.258 34.1834L109.203 33.6151L108.082 29.7756ZM108.697 32.2637V30.7637H104.697V32.2637H108.697ZM107.352 32.6535L111.09 31.3586L109.781 27.5789L106.043 28.8738L107.352 32.6535ZM110.436 31.4688H110.617V27.4688H110.436V31.4688ZM114.455 36.5352V34.5352L112.455 36.5352H114.455ZM116.43 36.0078L117.686 37.5642L117.694 37.5576L117.702 37.5509L116.43 36.0078ZM116.939 35.2988L115.091 34.5348L115.086 34.5474L116.939 35.2988ZM117.051 31.7656L115.102 32.2153L115.104 32.2237L117.051 31.7656ZM116.523 30.9688L115.585 32.735L115.607 32.7466L115.629 32.7576L116.523 30.9688ZM115.686 31.0039L116.868 32.6167L116.877 32.6101L115.686 31.0039ZM115.381 31.3555L113.65 30.3534L113.646 30.3608L113.641 30.3683L115.381 31.3555ZM115.193 31.8477L117.139 32.3128L117.141 32.3034L115.193 31.8477ZM115.193 32.9727L113.248 33.4378L113.254 33.463L113.261 33.488L115.193 32.9727ZM115.393 33.4355L113.713 34.522L113.732 34.5509L113.752 34.5791L115.393 33.4355ZM115.727 33.7402L114.751 35.4861L114.762 35.4921L114.772 35.4979L115.727 33.7402ZM116.664 33.7578L117.537 35.5574L117.548 35.5521L117.558 35.5467L116.664 33.7578ZM116.992 33.5L118.543 34.7633L118.554 34.7496L118.565 34.7356L116.992 33.5ZM117.18 33.1484L115.288 32.4983L115.279 32.525L115.271 32.5519L117.18 33.1484ZM117.238 32.7793L118.474 31.2067L115.239 32.8438L117.238 32.7793ZM117.812 33.2305H119.812V32.2584L119.048 31.6578L117.812 33.2305ZM117.174 34.6309L118.574 36.059L118.581 36.0521L118.588 36.0451L117.174 34.6309ZM116.482 35.0996L115.665 33.2742L115.655 33.2789L116.482 35.0996ZM114.613 35.0703L113.803 36.8989L113.812 36.9026L114.613 35.0703ZM113.318 33.5762L111.413 34.1834L111.417 34.1961L111.421 34.2086L113.318 33.5762ZM113.98 30.248L115.425 31.6314L115.434 31.6213L113.98 30.248ZM117.273 29.5801L116.476 31.4142L116.484 31.4179L116.493 31.4215L117.273 29.5801ZM118.246 36.4473L119.85 37.6418L119.856 37.6337L118.246 36.4473ZM117.273 37.373L118.379 39.0398L118.383 39.0371L117.273 37.373ZM116.037 37.9297L115.505 36.0017L115.501 36.0029L116.037 37.9297ZM114.455 38.1172H112.455L114.455 40.1172V38.1172ZM114.455 38.5352H114.572V34.5352H114.455V38.5352ZM114.572 38.5352C115.107 38.5352 115.641 38.4767 116.157 38.3347L115.097 34.4778C114.988 34.5077 114.819 34.5352 114.572 34.5352V38.5352ZM116.157 38.3347C116.7 38.1855 117.223 37.9379 117.686 37.5642L115.174 34.4514C115.181 34.4458 115.182 34.4462 115.173 34.4507C115.163 34.4555 115.14 34.4661 115.097 34.4778L116.157 38.3347ZM117.702 37.5509C118.202 37.1389 118.561 36.6218 118.793 36.0502L115.086 34.5474C115.083 34.5551 115.086 34.5451 115.1 34.5253C115.115 34.5049 115.135 34.4834 115.157 34.4647L117.702 37.5509ZM118.788 36.0628C119.035 35.4658 119.121 34.8381 119.121 34.2383H115.121C115.121 34.4666 115.087 34.5459 115.091 34.5349L118.788 36.0628ZM119.121 34.2383V32.4746H115.121V34.2383H119.121ZM119.121 32.4746C119.121 32.095 119.089 31.6974 118.998 31.3075L115.104 32.2237C115.106 32.2323 115.121 32.3074 115.121 32.4746H119.121ZM119 31.3159C118.913 30.9414 118.764 30.5286 118.502 30.1411L115.189 32.3823C115.107 32.2604 115.095 32.1836 115.102 32.2153L119 31.3159ZM118.502 30.1411C118.249 29.7662 117.893 29.4174 117.418 29.1799L115.629 32.7576C115.404 32.6451 115.263 32.4916 115.189 32.3823L118.502 30.1411ZM117.462 29.2025C117.019 28.9671 116.55 28.8691 116.102 28.8691V32.8691C115.965 32.8691 115.778 32.8375 115.585 32.735L117.462 29.2025ZM116.102 28.8691C115.533 28.8691 114.973 29.0424 114.494 29.3977L116.877 32.6101C116.769 32.6901 116.641 32.7587 116.497 32.8055C116.353 32.852 116.218 32.8691 116.102 32.8691V28.8691ZM114.503 29.3911C114.126 29.6673 113.85 30.0082 113.65 30.3534L117.112 32.3575C117.084 32.4058 117.011 32.5124 116.868 32.6167L114.503 29.3911ZM113.641 30.3683C113.453 30.6997 113.327 31.0467 113.246 31.3919L117.141 32.3034C117.146 32.2814 117.144 32.3003 117.12 32.3427L113.641 30.3683ZM113.248 31.3825C113.169 31.7136 113.129 32.0513 113.129 32.3926H117.129C117.129 32.3666 117.132 32.3411 117.139 32.3128L113.248 31.3825ZM113.129 32.3926C113.129 32.7378 113.165 33.0887 113.248 33.4378L117.139 32.5075C117.136 32.4972 117.129 32.4615 117.129 32.3926H113.129ZM113.261 33.488C113.354 33.8365 113.498 34.1892 113.713 34.522L117.072 32.349C117.115 32.4163 117.127 32.4604 117.126 32.4573L113.261 33.488ZM113.752 34.5791C114.009 34.9482 114.345 35.2592 114.751 35.4861L116.702 31.9943C116.843 32.0728 116.956 32.1807 117.033 32.292L113.752 34.5791ZM114.772 35.4979C115.245 35.7543 115.74 35.8516 116.201 35.8516V31.8516C116.303 31.8516 116.482 31.8746 116.681 31.9825L114.772 35.4979ZM116.201 35.8516C116.608 35.8516 117.076 35.781 117.537 35.5574L115.792 31.9582C115.995 31.8597 116.153 31.8516 116.201 31.8516V35.8516ZM117.558 35.5467C117.921 35.3653 118.262 35.1079 118.543 34.7633L115.442 32.2367C115.551 32.103 115.672 32.0176 115.77 31.969L117.558 35.5467ZM118.565 34.7356C118.791 34.4474 118.973 34.1158 119.089 33.745L115.271 32.5519C115.308 32.4311 115.365 32.3339 115.42 32.2644L118.565 34.7356ZM119.071 33.7986C119.186 33.4648 119.25 33.0999 119.237 32.7148L115.239 32.8438C115.235 32.7009 115.26 32.582 115.288 32.4983L119.071 33.7986ZM116.003 34.3519L116.577 34.8031L119.048 31.6578L118.474 31.2067L116.003 34.3519ZM115.812 33.2305C115.812 33.203 115.816 33.1765 115.821 33.1539C115.826 33.1318 115.831 33.1205 115.831 33.1214L119.454 34.8161C119.683 34.3275 119.812 33.7934 119.812 33.2305H115.812ZM115.831 33.1214C115.821 33.1418 115.803 33.1729 115.76 33.2166L118.588 36.0451C118.943 35.6904 119.237 35.28 119.454 34.8161L115.831 33.1214ZM115.774 33.2027C115.748 33.2275 115.717 33.2511 115.665 33.2742L117.3 36.925C117.772 36.7137 118.201 36.4248 118.574 36.059L115.774 33.2027ZM115.655 33.2789C115.655 33.279 115.656 33.2785 115.658 33.2778C115.66 33.277 115.663 33.2764 115.665 33.2758C115.666 33.2756 115.667 33.2754 115.668 33.2753C115.668 33.2752 115.669 33.2752 115.669 33.2752C115.669 33.2752 115.668 33.2752 115.667 33.2753C115.666 33.2753 115.664 33.2754 115.662 33.2754V37.2754C116.231 37.2754 116.787 37.1582 117.31 36.9203L115.655 33.2789ZM115.662 33.2754C115.514 33.2754 115.443 33.2503 115.415 33.238L113.812 36.9026C114.409 37.1638 115.036 37.2754 115.662 37.2754V33.2754ZM115.423 33.2417C115.384 33.2241 115.361 33.2068 115.337 33.179L112.307 35.7898C112.721 36.2698 113.226 36.643 113.803 36.8989L115.423 33.2417ZM115.337 33.179C115.306 33.1422 115.259 33.0744 115.216 32.9437L111.421 34.2086C111.612 34.7811 111.901 35.3187 112.307 35.7898L115.337 33.179ZM115.224 32.9689C115.182 32.8386 115.148 32.6527 115.148 32.3926H111.148C111.148 32.9996 111.228 33.6028 111.413 34.1834L115.224 32.9689ZM115.148 32.3926C115.148 32.2103 115.179 32.0677 115.226 31.9474L111.504 30.4823C111.263 31.0964 111.148 31.7389 111.148 32.3926H115.148ZM115.226 31.9474C115.278 31.8153 115.344 31.7157 115.425 31.6314L112.536 28.8647C112.086 29.335 111.741 29.88 111.504 30.4823L115.226 31.9474ZM115.434 31.6213C115.512 31.5391 115.605 31.4714 115.731 31.416L114.117 27.7559C113.516 28.0207 112.98 28.3945 112.526 28.8748L115.434 31.6213ZM115.731 31.416C115.817 31.3779 115.938 31.3457 116.119 31.3457V27.3457C115.434 27.3457 114.757 27.4737 114.117 27.7559L115.731 31.416ZM116.119 31.3457C116.268 31.3457 116.38 31.3725 116.476 31.4142L118.071 27.7459C117.448 27.4752 116.791 27.3457 116.119 27.3457V31.3457ZM116.493 31.4215C116.581 31.4588 116.664 31.5141 116.752 31.6089L119.694 28.899C119.234 28.3999 118.685 28.006 118.054 27.7387L116.493 31.4215ZM116.752 31.6089C116.821 31.6838 116.907 31.8094 116.986 32.0276L120.749 30.6716C120.515 30.0226 120.172 29.4177 119.694 28.899L116.752 31.6089ZM116.986 32.0276C117.049 32.2032 117.102 32.463 117.102 32.8379H121.102C121.102 32.0956 120.998 31.3632 120.749 30.6716L116.986 32.0276ZM117.102 32.8379V33.5176H121.102V32.8379H117.102ZM117.102 33.5176C117.102 33.9616 117.047 34.3081 116.965 34.5765L120.792 35.7399C121.008 35.0318 121.102 34.2845 121.102 33.5176H117.102ZM116.965 34.5765C116.876 34.8706 116.761 35.0912 116.636 35.2609L119.856 37.6337C120.278 37.0612 120.585 36.4224 120.792 35.7399L116.965 34.5765ZM116.642 35.2527C116.503 35.4392 116.345 35.588 116.164 35.7089L118.383 39.0371C118.951 38.6581 119.442 38.1897 119.85 37.6418L116.642 35.2527ZM116.168 35.7063C115.983 35.8292 115.766 35.9298 115.505 36.0017L116.569 39.8577C117.214 39.6796 117.822 39.4091 118.379 39.0398L116.168 35.7063ZM115.501 36.0029C115.24 36.0756 114.945 36.1172 114.607 36.1172V40.1172C115.278 40.1172 115.936 40.0338 116.573 39.8565L115.501 36.0029ZM114.607 36.1172H114.455V40.1172H114.607V36.1172ZM116.455 38.1172V36.5352H112.455V38.1172H116.455ZM121.416 36.5352V34.5352L119.416 36.5352H121.416ZM123.391 36.0078L124.647 37.5642L124.655 37.5576L124.663 37.5509L123.391 36.0078ZM123.9 35.2988L122.052 34.5348L122.047 34.5474L123.9 35.2988ZM124.012 31.7656L122.063 32.2153L122.065 32.2237L124.012 31.7656ZM123.484 30.9688L122.546 32.735L122.568 32.7466L122.59 32.7576L123.484 30.9688ZM122.646 31.0039L123.829 32.6167L123.838 32.6101L122.646 31.0039ZM122.342 31.3555L120.611 30.3534L120.607 30.3608L120.602 30.3683L122.342 31.3555ZM122.154 31.8477L124.099 32.3128L124.102 32.3034L122.154 31.8477ZM122.154 32.9727L120.209 33.4378L120.215 33.463L120.222 33.488L122.154 32.9727ZM122.354 33.4355L120.674 34.522L120.693 34.5509L120.713 34.5791L122.354 33.4355ZM122.688 33.7402L121.712 35.4861L121.723 35.4921L121.733 35.4979L122.688 33.7402ZM123.625 33.7578L124.498 35.5574L124.509 35.5521L124.519 35.5467L123.625 33.7578ZM123.953 33.5L125.504 34.7633L125.515 34.7496L125.526 34.7356L123.953 33.5ZM124.141 33.1484L122.249 32.4983L122.24 32.525L122.232 32.5519L124.141 33.1484ZM124.199 32.7793L125.435 31.2067L122.2 32.8438L124.199 32.7793ZM124.773 33.2305H126.773V32.2584L126.009 31.6578L124.773 33.2305ZM124.135 34.6309L125.535 36.059L125.542 36.0521L125.549 36.0451L124.135 34.6309ZM123.443 35.0996L122.626 33.2742L122.616 33.2789L123.443 35.0996ZM121.574 35.0703L120.764 36.8989L120.773 36.9026L121.574 35.0703ZM120.279 33.5762L118.374 34.1834L118.378 34.1961L118.382 34.2086L120.279 33.5762ZM120.941 30.248L122.386 31.6314L122.395 31.6213L120.941 30.248ZM124.234 29.5801L123.437 31.4142L123.445 31.4179L123.454 31.4215L124.234 29.5801ZM125.207 36.4473L126.811 37.6418L126.817 37.6337L125.207 36.4473ZM124.234 37.373L125.34 39.0398L125.344 39.0371L124.234 37.373ZM122.998 37.9297L122.466 36.0017L122.462 36.0029L122.998 37.9297ZM121.416 38.1172H119.416L121.416 40.1172V38.1172ZM121.416 38.5352H121.533V34.5352H121.416V38.5352ZM121.533 38.5352C122.068 38.5352 122.602 38.4767 123.118 38.3347L122.058 34.4778C121.949 34.5077 121.78 34.5352 121.533 34.5352V38.5352ZM123.118 38.3347C123.66 38.1855 124.184 37.9379 124.647 37.5642L122.135 34.4514C122.141 34.4458 122.143 34.4462 122.134 34.4507C122.124 34.4555 122.1 34.4661 122.058 34.4778L123.118 38.3347ZM124.663 37.5509C125.163 37.1389 125.522 36.6218 125.754 36.0502L122.047 34.5474C122.044 34.5551 122.047 34.5451 122.061 34.5253C122.076 34.5049 122.096 34.4834 122.118 34.4647L124.663 37.5509ZM125.749 36.0628C125.995 35.4658 126.082 34.8381 126.082 34.2383H122.082C122.082 34.4666 122.047 34.5459 122.052 34.5349L125.749 36.0628ZM126.082 34.2383V32.4746H122.082V34.2383H126.082ZM126.082 32.4746C126.082 32.095 126.05 31.6974 125.959 31.3075L122.065 32.2237C122.067 32.2323 122.082 32.3074 122.082 32.4746H126.082ZM125.961 31.3159C125.874 30.9414 125.725 30.5286 125.463 30.1411L122.15 32.3823C122.068 32.2604 122.056 32.1836 122.063 32.2153L125.961 31.3159ZM125.463 30.1411C125.21 29.7662 124.854 29.4174 124.379 29.1799L122.59 32.7576C122.365 32.6451 122.224 32.4916 122.15 32.3823L125.463 30.1411ZM124.423 29.2025C123.98 28.9671 123.511 28.8691 123.062 28.8691V32.8691C122.926 32.8691 122.739 32.8375 122.546 32.735L124.423 29.2025ZM123.062 28.8691C122.494 28.8691 121.934 29.0424 121.455 29.3977L123.838 32.6101C123.73 32.6901 123.602 32.7587 123.458 32.8055C123.314 32.852 123.179 32.8691 123.062 32.8691V28.8691ZM121.464 29.3911C121.087 29.6673 120.811 30.0082 120.611 30.3534L124.073 32.3575C124.045 32.4058 123.971 32.5124 123.829 32.6167L121.464 29.3911ZM120.602 30.3683C120.414 30.6997 120.288 31.0467 120.207 31.3919L124.102 32.3034C124.107 32.2814 124.105 32.3003 124.081 32.3427L120.602 30.3683ZM120.209 31.3825C120.13 31.7136 120.09 32.0513 120.09 32.3926H124.09C124.09 32.3666 124.093 32.3411 124.099 32.3128L120.209 31.3825ZM120.09 32.3926C120.09 32.7378 120.126 33.0887 120.209 33.4378L124.099 32.5075C124.097 32.4972 124.09 32.4615 124.09 32.3926H120.09ZM120.222 33.488C120.315 33.8365 120.459 34.1892 120.674 34.522L124.033 32.349C124.076 32.4163 124.088 32.4604 124.087 32.4573L120.222 33.488ZM120.713 34.5791C120.97 34.9482 121.306 35.2592 121.712 35.4861L123.663 31.9943C123.804 32.0728 123.917 32.1807 123.994 32.292L120.713 34.5791ZM121.733 35.4979C122.206 35.7543 122.701 35.8516 123.162 35.8516V31.8516C123.264 31.8516 123.443 31.8746 123.642 31.9825L121.733 35.4979ZM123.162 35.8516C123.569 35.8516 124.037 35.781 124.498 35.5574L122.752 31.9582C122.956 31.8597 123.114 31.8516 123.162 31.8516V35.8516ZM124.519 35.5467C124.882 35.3653 125.223 35.1079 125.504 34.7633L122.403 32.2367C122.512 32.103 122.633 32.0176 122.731 31.969L124.519 35.5467ZM125.526 34.7356C125.752 34.4474 125.934 34.1158 126.05 33.745L122.232 32.5519C122.269 32.4311 122.326 32.3339 122.38 32.2644L125.526 34.7356ZM126.032 33.7986C126.147 33.4648 126.211 33.0999 126.198 32.7148L122.2 32.8438C122.196 32.7009 122.22 32.582 122.249 32.4983L126.032 33.7986ZM122.964 34.3519L123.538 34.8031L126.009 31.6578L125.435 31.2067L122.964 34.3519ZM122.773 33.2305C122.773 33.203 122.777 33.1765 122.782 33.1539C122.787 33.1318 122.792 33.1205 122.792 33.1214L126.415 34.8161C126.644 34.3275 126.773 33.7934 126.773 33.2305H122.773ZM122.792 33.1214C122.782 33.1418 122.764 33.1729 122.721 33.2166L125.549 36.0451C125.904 35.6904 126.198 35.28 126.415 34.8161L122.792 33.1214ZM122.735 33.2027C122.709 33.2275 122.678 33.2511 122.626 33.2742L124.261 36.925C124.733 36.7137 125.162 36.4248 125.535 36.059L122.735 33.2027ZM122.616 33.2789C122.616 33.279 122.617 33.2785 122.619 33.2778C122.621 33.277 122.623 33.2764 122.626 33.2758C122.627 33.2756 122.628 33.2754 122.629 33.2753C122.629 33.2752 122.63 33.2752 122.63 33.2752C122.63 33.2752 122.629 33.2752 122.628 33.2753C122.627 33.2753 122.625 33.2754 122.623 33.2754V37.2754C123.192 37.2754 123.748 37.1582 124.271 36.9203L122.616 33.2789ZM122.623 33.2754C122.475 33.2754 122.404 33.2503 122.376 33.238L120.773 36.9026C121.37 37.1638 121.997 37.2754 122.623 37.2754V33.2754ZM122.384 33.2417C122.345 33.2241 122.322 33.2068 122.298 33.179L119.268 35.7898C119.682 36.2698 120.187 36.643 120.764 36.8989L122.384 33.2417ZM122.298 33.179C122.267 33.1422 122.22 33.0744 122.177 32.9437L118.382 34.2086C118.573 34.7811 118.862 35.3187 119.268 35.7898L122.298 33.179ZM122.185 32.9689C122.143 32.8386 122.109 32.6527 122.109 32.3926H118.109C118.109 32.9996 118.189 33.6028 118.374 34.1834L122.185 32.9689ZM122.109 32.3926C122.109 32.2103 122.14 32.0677 122.187 31.9474L118.465 30.4823C118.223 31.0964 118.109 31.7389 118.109 32.3926H122.109ZM122.187 31.9474C122.239 31.8153 122.305 31.7157 122.386 31.6314L119.497 28.8647C119.047 29.335 118.702 29.88 118.465 30.4823L122.187 31.9474ZM122.395 31.6213C122.473 31.5391 122.566 31.4714 122.692 31.416L121.078 27.7559C120.477 28.0207 119.941 28.3945 119.487 28.8748L122.395 31.6213ZM122.692 31.416C122.778 31.3779 122.898 31.3457 123.08 31.3457V27.3457C122.395 27.3457 121.718 27.4737 121.078 27.7559L122.692 31.416ZM123.08 31.3457C123.229 31.3457 123.341 31.3725 123.437 31.4142L125.032 27.7459C124.409 27.4752 123.752 27.3457 123.08 27.3457V31.3457ZM123.454 31.4215C123.542 31.4588 123.625 31.5141 123.713 31.6089L126.655 28.899C126.195 28.3999 125.646 28.006 125.015 27.7387L123.454 31.4215ZM123.713 31.6089C123.782 31.6838 123.868 31.8094 123.947 32.0276L127.71 30.6716C127.476 30.0226 127.133 29.4177 126.655 28.899L123.713 31.6089ZM123.947 32.0276C124.01 32.2032 124.062 32.463 124.062 32.8379H128.062C128.062 32.0956 127.959 31.3632 127.71 30.6716L123.947 32.0276ZM124.062 32.8379V33.5176H128.062V32.8379H124.062ZM124.062 33.5176C124.062 33.9616 124.008 34.3081 123.926 34.5765L127.753 35.7399C127.969 35.0318 128.062 34.2845 128.062 33.5176H124.062ZM123.926 34.5765C123.837 34.8706 123.722 35.0912 123.597 35.2609L126.817 37.6337C127.239 37.0612 127.546 36.4224 127.753 35.7399L123.926 34.5765ZM123.603 35.2527C123.464 35.4392 123.306 35.588 123.125 35.7089L125.344 39.0371C125.912 38.6581 126.403 38.1897 126.811 37.6418L123.603 35.2527ZM123.129 35.7063C122.944 35.8292 122.727 35.9298 122.466 36.0017L123.53 39.8577C124.175 39.6796 124.783 39.4091 125.34 39.0398L123.129 35.7063ZM122.462 36.0029C122.201 36.0756 121.906 36.1172 121.568 36.1172V40.1172C122.239 40.1172 122.897 40.0338 123.534 39.8565L122.462 36.0029ZM121.568 36.1172H121.416V40.1172H121.568V36.1172ZM123.416 38.1172V36.5352H119.416V38.1172H123.416ZM133.059 29.4688H135.059L133.059 27.4688V29.4688ZM133.059 30.5234L134.898 31.3078L135.059 30.932V30.5234H133.059ZM129.871 38V40H131.193L131.711 38.7844L129.871 38ZM127.785 38L125.965 37.1707L127.785 40V38ZM130.979 30.9922L132.798 31.8215L130.979 28.9922V30.9922ZM126.906 30.9922H124.906L126.906 32.9922V30.9922ZM126.906 29.4688V27.4688L124.906 29.4688H126.906ZM131.059 29.4688V30.5234H135.059V29.4688H131.059ZM131.219 29.7391L128.031 37.2156L131.711 38.7844L134.898 31.3078L131.219 29.7391ZM129.871 36H127.785V40H129.871V36ZM129.605 38.8293L132.798 31.8215L129.159 30.1629L125.965 37.1707L129.605 38.8293ZM130.979 28.9922H126.906V32.9922H130.979V28.9922ZM128.906 30.9922V29.4688H124.906V30.9922H128.906ZM126.906 31.4688H133.059V27.4688H126.906V31.4688Z" fill="#0042FF" mask="url(#path-5-outside-1_416_10)"/>
</svg>
