<svg width="110" height="37" viewBox="0 0 110 37" fill="none" xmlns="http://www.w3.org/2000/svg">
<path d="M55.9563 8.49216C60.0669 8.49216 63.7796 9.81906 66.5642 11.8094C66.6968 11.9421 66.8294 12.0748 66.962 12.2075C66.6968 12.2075 66.4316 12.3402 66.1664 12.3402C66.0338 12.3402 65.9012 12.4729 65.7686 12.4729C63.2492 10.6152 59.6691 9.55368 55.9563 9.42099H55.8237C55.0282 9.42099 54.3652 9.42099 53.5696 9.55368C53.437 9.55368 53.437 9.55368 53.3044 9.55368H49.3264C51.3154 8.89023 53.437 8.49216 55.6911 8.62485H55.8237L55.9563 8.49216ZM68.5531 13.6671C68.6857 13.7998 68.8183 13.9324 68.9509 14.1978C68.9509 14.3305 68.9509 14.3305 68.9509 14.4632C68.9509 14.7286 68.8183 15.1267 68.8183 15.392C68.4205 14.7286 67.8902 14.0651 67.2272 13.5344C67.4924 13.5344 67.625 13.5344 67.7576 13.5344C68.0228 13.5344 68.2879 13.5344 68.4205 13.6671H68.5531ZM70.1443 16.0555C70.4095 16.7189 70.6747 17.3824 70.8073 18.0458C70.5421 18.4439 70.2769 18.7093 70.1443 19.1074C70.1443 18.4439 69.8791 17.7805 69.6139 17.117C69.7465 16.8516 69.8791 16.7189 70.0117 16.4536C70.0117 16.3209 70.1443 16.1882 70.1443 16.0555ZM70.9399 20.6996C70.8073 21.7612 70.5421 22.8227 70.0117 23.7515C69.8791 23.6188 69.7465 23.6188 69.4813 23.6188C69.3487 23.6188 69.0835 23.7515 68.9509 23.8842L68.8183 24.0169C68.9509 23.7515 69.0835 23.6188 69.2161 23.3534C69.4813 23.0881 69.8791 22.9554 70.1443 22.69C70.2769 22.5573 70.4095 22.4246 70.4095 22.2919C70.5421 21.8938 70.5421 21.6285 70.6747 21.3631C70.6747 21.2304 70.8073 20.965 70.9399 20.8323V20.6996ZM62.0558 29.8552C60.1995 30.5187 58.0779 30.7841 55.8237 30.7841H55.6911C54.1 30.7841 52.5088 30.5187 51.0502 30.1206H53.1718C53.437 30.1206 53.8348 29.8552 53.8348 29.5899C54.4978 29.5899 55.0282 29.7226 55.6911 29.7226H55.8237C57.1497 29.7226 58.3431 29.5899 59.6691 29.4572C60.1995 29.7226 60.7299 29.8552 61.3929 29.8552C61.6581 29.8552 61.7907 29.8552 62.0558 29.8552ZM48.5309 29.3245C47.3375 28.7937 46.1441 28.1303 45.2159 27.4668C43.0943 25.8745 41.5032 23.7515 40.9728 21.3631V18.7093H41.6358C41.6358 18.9747 41.6358 19.2401 41.6358 19.5054C41.6358 22.2919 43.2269 24.813 45.7463 26.6707C46.6745 27.3341 47.6027 27.8649 48.6635 28.3957V29.4572L48.5309 29.3245ZM41.1054 17.117C41.238 16.7189 41.3706 16.3209 41.5032 15.9228H42.4314C42.1662 16.3209 42.0336 16.7189 41.901 17.117C41.7684 17.117 41.7684 17.117 41.6358 17.117H41.1054ZM42.4314 14.4632C43.2269 13.4017 44.1551 12.3402 45.3485 11.544C46.4093 10.7479 47.6027 10.0844 49.0613 9.68637C48.9287 9.81906 48.7961 9.95175 48.7961 10.2171V10.7479C47.7353 11.146 46.6745 11.6767 45.8789 12.3402C44.9507 13.0036 44.1551 13.6671 43.6247 14.4632C43.4921 14.4632 43.2269 14.4632 43.0943 14.4632H42.564H42.4314Z" fill="#F8E53F"/>
<path d="M70.4095 0.13269C78.8958 0.26538 86.719 2.38842 92.2881 5.70567L92.5533 5.83836C92.2881 6.10374 92.1556 6.23643 91.8904 6.50181C86.4538 3.18456 78.7632 1.19421 70.4095 1.06152H70.1443C61.7906 0.92883 54.2326 2.91918 48.6634 5.97105C44.6855 8.22678 41.7684 11.146 40.4424 14.3305H39.5142C40.8402 10.7479 43.8899 7.43064 48.2656 5.04222C53.8348 1.85766 61.658 0 70.1443 0H70.4095V0.13269ZM93.8793 6.76719C94.1445 6.89988 94.4097 7.03257 94.5423 7.29795C94.2771 7.56333 94.1445 7.69602 93.8793 7.9614C93.6141 7.82871 93.3489 7.56333 93.0837 7.43064C93.2163 7.29795 93.3489 7.16526 93.4815 7.03257C93.6141 6.89988 93.6141 6.89988 93.7467 6.76719H93.8793ZM96.2661 8.62485C96.5313 8.89023 96.7965 9.15561 97.0617 9.2883C96.9291 9.55368 96.7965 9.81906 96.6639 10.2171C96.3987 9.95175 96.1335 9.81906 96.0009 9.55368C96.1335 9.2883 96.2661 9.02292 96.3987 8.62485H96.2661ZM98.1225 10.4825C98.5203 10.8806 98.7854 11.2786 99.0506 11.6767C98.918 11.9421 98.7854 12.0748 98.6528 12.3402L98.5203 12.4729C98.2551 12.0748 97.9899 11.6767 97.7247 11.4113C97.8573 11.146 97.9899 10.8806 98.1225 10.4825ZM99.9788 13.0036C100.244 13.5344 100.509 13.9324 100.642 14.4632C100.509 14.5959 100.509 14.8613 100.377 14.994C100.244 15.1267 100.244 15.2593 100.111 15.5247C99.9788 14.994 99.7136 14.4632 99.4484 13.7998C99.581 13.5344 99.7136 13.4017 99.8462 13.1363L99.9788 13.0036ZM101.57 17.7805C101.57 17.9131 101.57 18.1785 101.57 18.3112C101.305 18.5766 101.04 18.7093 100.774 18.9747C100.774 18.842 100.774 18.7093 100.774 18.5766C101.04 18.3112 101.305 18.1785 101.57 17.9131V17.7805ZM101.57 20.3016C101.305 21.7612 100.907 23.0881 100.111 24.415C99.9788 24.1496 99.8462 23.8842 99.8462 23.4861C99.8462 23.3534 99.8462 23.3534 99.8462 23.2207C100.244 22.5573 100.509 21.7612 100.642 20.965C101.04 20.6996 101.305 20.4343 101.57 20.1689V20.3016ZM99.3158 25.7419C98.7854 26.538 98.1225 27.3341 97.3269 27.9976C97.0617 27.8649 96.9291 27.5995 96.6639 27.3341C97.4595 26.538 98.1225 25.7419 98.7854 24.9457C98.7854 24.9457 98.7854 25.0784 98.918 25.0784C99.0506 25.3438 99.1832 25.4765 99.3158 25.7419ZM96.2661 29.0591C95.0727 29.9879 93.8793 30.9168 92.4207 31.7129C86.8516 34.8975 79.0284 36.7551 70.6747 36.7551H70.4095C61.9232 36.6224 54.1 34.4994 48.5308 31.1821C45.3485 29.3245 42.8291 26.9361 41.238 24.415V22.69C42.5639 25.6092 45.3485 28.263 48.9286 30.386C54.3652 33.7033 62.0558 35.6936 70.4095 35.8263H70.6747C79.0284 35.959 86.5864 33.9686 92.1556 30.9168C93.4815 30.1206 94.6749 29.3245 95.7357 28.3957C95.8683 28.661 96.1335 28.9264 96.3987 29.0591H96.2661ZM39.7794 21.0977C39.5142 20.0362 39.3816 18.9747 39.3816 17.9131C39.3816 17.2497 39.5142 16.4536 39.6468 15.7901H40.4424C40.3098 16.1882 40.3098 16.7189 40.1772 17.117C39.912 17.2497 39.7794 17.5151 39.7794 17.7805V21.0977Z" fill="#2079FF"/>
<path fill-rule="evenodd" clip-rule="evenodd" d="M69.4813 24.2823C68.1553 25.6092 66.8293 26.6707 65.6359 27.4668C63.9122 28.661 62.4536 29.1918 61.2602 29.1918C60.0668 29.1918 59.006 28.5283 58.0779 27.2014C57.1497 25.8745 56.6193 24.415 56.7519 22.8227C56.7519 21.6285 57.1497 20.3016 57.8127 19.24C58.4757 18.0458 59.5364 16.9843 60.8624 15.9228C62.0558 14.994 63.2492 14.1978 64.5752 13.6671C65.9011 13.1363 66.9619 12.8709 67.7575 12.8709C68.4205 12.8709 68.9509 13.0036 69.2161 13.269C69.4813 13.5344 69.6139 13.9324 69.6139 14.4632C69.6139 15.5247 69.0835 16.5862 68.0227 17.9131C66.9619 19.1074 66.0337 19.7708 65.3707 19.7708C65.1056 19.7708 64.8404 19.6381 64.7078 19.5054C64.5752 19.24 64.4426 18.9747 64.4426 18.4439C63.2492 19.1074 62.321 19.7708 61.5254 20.4343C60.7298 21.0977 60.0668 21.7612 59.5364 22.4246V22.8227C59.5364 23.6188 59.8016 24.415 60.1994 24.813C60.5972 25.3438 61.2602 25.6092 62.0558 25.6092C63.2492 25.6092 64.5752 25.2111 66.0337 24.415C67.0945 23.8842 68.1553 23.0881 69.3487 22.1592C69.4813 21.3631 69.7465 20.6996 70.1443 20.0362C70.8073 18.842 71.7354 17.6478 72.9288 16.5862C74.1222 15.5247 75.4482 14.7286 76.7742 14.0651C78.1002 13.5344 79.4261 13.269 80.7521 13.269C81.8129 13.269 82.4759 13.4017 83.0063 13.6671C83.5367 13.9324 83.6693 14.4632 83.6693 14.994C83.6693 16.3209 82.6085 17.7805 80.6195 19.24C78.6305 20.6996 76.1112 21.7612 73.194 22.4246V22.5573C73.194 23.4861 73.4592 24.1496 73.857 24.6803C74.3874 25.2111 75.0504 25.4765 75.846 25.4765C76.9068 25.4765 78.2327 25.0784 79.8239 24.2823C80.8847 23.7515 81.9455 22.9554 83.1389 22.0265C83.4041 20.4343 84.0671 18.5766 85.1278 16.5862C86.4538 13.7998 88.3102 11.2786 90.5644 8.62485C92.0229 7.03257 93.3489 5.70567 94.6749 4.64415C96.0009 3.58263 96.9291 3.18456 97.4594 3.18456C97.7246 3.18456 97.8572 3.31725 98.1224 3.58263C98.255 3.84801 98.3876 4.11339 98.3876 4.64415C98.3876 7.43064 97.3268 10.2171 95.4705 13.1363C93.4815 16.0555 90.8295 18.7093 87.2494 21.2304V22.0265C87.2494 23.2207 87.382 24.1496 87.7798 24.813C88.1776 25.4765 88.708 25.7419 89.371 25.7419C89.7688 25.7419 90.4318 25.4765 91.3599 24.9457C92.0229 24.5476 93.0837 23.6188 94.6749 22.4246C94.9401 20.8323 95.6031 19.1074 96.6639 16.9843C97.9898 14.1978 99.8462 11.6767 102.1 9.02292C103.559 7.43064 104.885 6.10374 106.211 5.04222C107.537 3.9807 108.465 3.58263 108.995 3.58263C109.261 3.58263 109.393 3.71532 109.658 3.9807C109.791 4.24608 109.924 4.51146 109.924 5.04222C109.924 7.82871 108.863 10.6152 107.006 13.5344C105.018 16.4536 102.366 19.1074 98.7854 21.6285V22.4246C98.7854 23.6188 98.918 24.5476 99.3158 25.2111C99.7136 25.8745 100.111 26.1399 100.907 26.1399C101.305 26.1399 101.968 25.8745 102.896 25.3438C103.692 24.813 105.283 23.4861 107.669 21.4958V23.2207L106.741 24.1496C102.763 27.9976 100.111 29.9879 98.7854 29.9879C97.592 29.9879 96.6639 29.3245 95.8683 28.263C95.2053 27.3341 94.8075 26.1399 94.8075 24.813C91.2273 28.263 88.8406 29.9879 87.5146 29.9879C86.3212 29.9879 85.393 29.3245 84.5974 28.263C83.9345 27.3341 83.5367 26.1399 83.5367 24.813C81.9455 26.2726 80.6195 27.4668 79.2935 28.1303C77.5698 29.1918 75.9786 29.7226 74.3874 29.5899C72.7962 29.5899 71.7354 29.0591 70.9399 28.1303C70.2769 27.3341 69.8791 26.2726 69.7465 24.813L69.4813 24.2823ZM73.5918 20.6996C75.846 19.7708 77.5698 18.842 78.8957 18.0458C80.2217 17.117 80.7521 16.4536 80.7521 15.7901C80.7521 15.6574 80.7521 15.5247 80.7521 15.392C80.7521 15.2593 80.6195 15.2593 80.4869 15.2593C79.5587 15.2593 78.4979 15.7901 77.0394 16.7189C75.5808 17.7805 74.52 19.1074 73.5918 20.5669V20.6996ZM88.1776 18.0458C90.034 16.7189 91.4925 15.1267 92.8185 13.269C94.1445 11.4113 95.0727 9.15561 95.8683 6.76719C94.0119 8.62485 92.4207 10.4825 91.2273 12.3402C89.9014 14.1978 88.9732 16.1882 88.1776 18.0458ZM99.4484 18.1785C101.305 16.8516 102.763 15.2593 104.089 13.4017C105.415 11.544 106.344 9.2883 107.139 6.89988C105.283 8.75754 103.692 10.6152 102.498 12.4729C101.172 14.3305 100.244 16.3209 99.4484 18.1785Z" fill="#FEFEFE"/>
<path fill-rule="evenodd" clip-rule="evenodd" d="M7.42548 9.55368L18.2985 9.68637V13.1363L8.08847 13.0036C5.96691 13.0036 4.90612 13.7998 4.77353 15.5247C4.77353 16.1882 5.03872 16.7189 5.43651 17.117C5.96691 17.5151 6.4973 17.6478 7.29288 17.6478L12.7294 17.7805C13.7902 17.7805 14.7184 17.9131 15.514 18.0458C16.3095 18.1785 16.9725 18.7093 17.7681 19.3727C18.5637 20.0362 18.9615 21.3631 18.9615 23.3534C18.9615 23.8842 18.9615 24.2823 18.8289 24.813C18.6963 25.2111 18.5637 25.7419 18.2985 26.4053C18.0333 26.9361 17.6355 27.4668 16.9725 27.9976C16.3095 28.3957 15.6466 28.7937 14.851 28.9264C14.0554 29.0591 13.1272 29.1918 11.9338 29.1918L0.928185 29.0591V25.6092L11.2708 25.7419C12.3316 25.7419 13.1272 25.6092 13.6576 25.3438C14.188 25.0784 14.4532 24.5476 14.4532 23.6188V23.2207C14.4532 22.69 14.3206 22.2919 14.0554 22.0265C13.7902 21.7612 13.3924 21.6285 12.9946 21.4958C12.5968 21.3631 12.0664 21.3631 11.536 21.3631L6.6299 21.2304C4.50833 21.2304 2.91715 20.6996 1.72377 19.9035C0.530392 18.9747 0 17.6478 0 15.5247C0 14.4632 0.132598 13.5344 0.530392 12.7382C0.928185 11.9421 1.32598 11.2787 1.98897 10.8806C2.65196 10.4825 3.31495 10.2171 4.11054 9.95175C4.77352 9.81906 5.83431 9.68637 7.02769 9.68637L7.42548 9.55368ZM33.8125 26.2726V29.1918L28.2434 29.0591C25.724 29.0591 24.0002 28.3957 22.8068 27.0688C21.6135 25.7419 21.0831 24.0169 21.0831 21.8938C21.0831 19.7708 21.6135 18.1785 22.5416 17.2497C23.4698 16.1882 24.398 15.6574 25.3262 15.392C26.2544 15.1267 27.3152 14.994 28.376 14.994L33.9451 15.1267V18.0458L28.9063 17.9131C28.1108 17.9131 27.4478 17.9131 26.9174 18.0458C26.387 18.1785 26.1218 18.4439 25.724 18.842C25.3262 19.24 25.1936 19.7708 25.1936 20.5669L33.8125 20.6996V23.6188L25.1936 23.4861C25.1936 24.2823 25.3262 24.813 25.5914 25.2111C25.8566 25.6092 26.2544 25.8745 26.7848 26.0072C27.3152 26.1399 27.9782 26.1399 28.7737 26.1399L33.8125 26.2726ZM40.0446 29.3245H36.1992L36.3318 15.2593L42.6965 15.392C43.8899 15.392 44.6855 15.5247 45.3485 15.9228C45.8789 16.1882 46.2767 16.7189 46.4093 17.2497C46.5419 17.7805 46.6745 18.5766 46.6745 19.5054V20.4343V21.2304H43.0943V20.1689C43.0943 19.3727 43.0943 18.9747 42.9617 18.7093C42.8291 18.4439 42.6965 18.3112 42.4313 18.1785C42.1661 18.1785 42.0335 18.0458 41.7683 18.0458C41.6357 18.0458 41.2379 18.0458 40.8402 18.0458H40.0446L39.912 29.4572L40.0446 29.3245ZM49.3264 15.392H53.3044L53.1718 29.4572H49.1938L49.3264 15.392ZM49.3264 10.2171H53.3044V13.6671H49.3264V10.2171Z" fill="#FEFEFE"/>
</svg>
