<svg width="140" height="140" viewBox="0 0 140 140" fill="none" xmlns="http://www.w3.org/2000/svg">
<circle cx="70" cy="70" r="70" fill="#0D8BFF"/>
<path d="M69.9991 120.4C67.9114 120.4 66.033 119.235 64.9765 117.284L57.8158 104.024C56.3445 101.296 53.7469 99.4358 50.6919 98.9171C32.317 95.8049 18.959 78.2321 19.6239 58.0469C20.3178 36.8474 37.2059 19.6001 57.2672 19.6001H82.733C102.794 19.6001 119.682 36.8474 120.376 58.0469C121.041 78.23 107.681 95.8028 89.3064 98.9171C86.2533 99.4358 83.6557 101.296 82.1844 104.024L75.0237 117.282C73.9653 119.235 72.0869 120.4 69.9991 120.4ZM57.2672 23.8001C39.2684 23.8001 24.1192 39.2309 23.4969 58.1939C22.9038 76.2581 34.8526 91.9808 51.2928 94.7654C55.5051 95.4815 59.101 98.0813 61.1635 101.901L68.3243 115.159C68.8302 116.099 69.6638 116.2 69.9991 116.2C70.3345 116.2 71.168 116.099 71.674 115.159L78.8347 101.901C80.8953 98.0813 84.4931 95.4794 88.7035 94.7654C105.144 91.9787 117.094 76.2581 116.501 58.1939C115.879 39.2309 100.732 23.8001 82.7311 23.8001H57.2672Z" fill="white"/>
<path d="M56.4287 48.9958C53.217 48.9958 50.6133 51.8165 50.6133 55.2959C50.6133 58.7752 53.217 61.5959 56.4287 61.5959C59.6405 61.5959 62.2442 58.7752 62.2442 55.2959C62.2442 51.8165 59.6405 48.9958 56.4287 48.9958Z" fill="white"/>
<path d="M83.5674 48.9958C80.3556 48.9958 77.752 51.8165 77.752 55.2959C77.752 58.7752 80.3556 61.5959 83.5674 61.5959C86.7792 61.5959 89.3828 58.7752 89.3828 55.2959C89.3828 51.8165 86.7792 48.9958 83.5674 48.9958Z" fill="white"/>
<path d="M77.753 65.8H62.2451C61.1751 65.8 60.3066 66.7366 60.3066 67.8958V69.9958C60.3066 75.7939 64.6469 80.4959 69.999 80.4959C75.3512 80.4959 79.6914 75.7939 79.6914 69.9958V67.8958C79.6914 66.7366 78.823 65.8 77.753 65.8Z" fill="white"/>
<path d="M58.3667 28H81.6285V32.2H58.3667V28Z" fill="white"/>
</svg>
