<svg width="140" height="140" viewBox="0 0 140 140" fill="none" xmlns="http://www.w3.org/2000/svg">
<circle cx="70" cy="70" r="70" fill="#0042FF"/>
<path fill-rule="evenodd" clip-rule="evenodd" d="M90.5208 84.4573C91.9842 85.9582 93.1064 87.8783 94.8389 86.9453C95.5083 86.587 96.2236 86.0731 96.8405 85.4647C97.8643 84.4573 99.098 82.7806 98.1136 81.4419C94.7077 78.0682 88.1649 72.3957 88.1452 72.3822L90.2124 69.9685C90.2189 69.9753 91.6233 71.2463 93.4477 73.0177C95.8233 75.33 99.1505 77.5814 100.758 79.8936C101.664 81.1917 101.474 83.4837 100.995 84.8291C100.614 85.9109 99.8724 86.9318 98.993 87.7972C98.1661 88.6153 97.1883 89.3184 96.2696 89.8052C95.3442 90.2988 94.4124 90.5827 93.6183 90.5895C93.5921 90.7179 93.5592 90.8532 93.5264 90.9816C93.2639 91.8943 92.6996 92.6921 91.9908 93.348C91.3542 93.9362 90.5864 94.423 89.8186 94.7745C88.9786 95.1531 88.0992 95.3695 87.3117 95.383C87.2855 95.6467 87.233 95.9036 87.1608 96.1605C86.8983 97.0733 86.3339 97.8711 85.6252 98.5269C84.9886 99.1151 84.2208 99.6019 83.453 99.9534C82.3242 100.467 81.1167 100.677 80.1717 100.508C80.1389 100.853 80.0733 101.184 79.9814 101.495V101.502C79.6992 102.455 79.1611 103.26 78.472 103.855C77.7829 104.449 76.943 104.835 76.0504 104.963C74.9676 105.119 73.8192 104.896 72.7954 104.206C72.5133 104.017 72.2048 103.773 71.8439 103.476L71.6404 103.314L68.5889 100.886L70.492 98.3443L73.5436 100.772L73.747 100.934C74.0292 101.157 74.2654 101.353 74.5083 101.508C74.8626 101.752 75.2564 101.826 75.6239 101.779C75.9323 101.732 76.2211 101.596 76.4639 101.387C76.7001 101.184 76.8905 100.9 76.9889 100.569C77.1136 100.129 77.0939 99.5816 76.8642 98.946C74.2589 95.2005 68.812 90.6571 68.7989 90.6436L70.7676 88.1488C70.7807 88.1555 72.9858 90.0013 75.3483 92.3811C75.9783 93.0167 76.6739 93.7198 77.4023 94.3891C77.5336 94.5108 77.6714 94.6325 77.8026 94.7542C77.8289 94.7813 77.8617 94.8083 77.888 94.8354C78.0586 94.9909 78.2292 95.1531 78.3998 95.3154C78.9773 95.8495 79.5483 96.3904 80.1455 96.8637C80.8542 97.3843 80.8411 97.4924 81.6483 97.2423C81.8189 97.1882 82.0027 97.0935 82.1995 97.0056C82.6852 96.7893 83.1577 96.4851 83.5383 96.1335C83.8467 95.8428 84.083 95.5385 84.1683 95.241C84.2339 95.0044 84.188 94.7204 83.9648 94.4027C81.3464 90.6503 74.1473 84.1328 74.1276 84.1125L76.1948 81.6988C76.2079 81.7123 80.2111 85.3362 83.4727 88.879C84.3586 89.7782 85.6777 91.0087 86.6292 91.7726C86.977 92.0296 87.2199 92.3609 87.7449 92.1715C87.968 92.0904 88.2502 91.9755 88.5652 91.8335C89.0508 91.6171 89.5233 91.3129 89.9039 90.9613C90.2124 90.6774 90.4486 90.3664 90.5339 90.0689C90.5995 89.8322 90.5536 89.5483 90.3305 89.2238C87.712 85.4714 80.513 78.9538 80.4933 78.9336L82.5605 76.5199C82.567 76.5199 87.1674 80.6914 90.5208 84.4573Z" fill="white"/>
<path fill-rule="evenodd" clip-rule="evenodd" d="M119.974 73.0647L110.314 37.9346L109.894 36.3999L108.404 36.8191L96.0402 40.3145L94.5177 40.7472L94.9443 42.3022L95.5284 44.4252C89.5958 44.9796 83.8143 43.6747 78.4199 42.4645C67.6836 40.0508 58.3779 37.9617 51.192 49.7596C49.2495 52.9575 47.1298 56.7572 46.6376 59.6644C45.9617 63.6196 47.4645 66.155 53.5414 65.0056C57.2754 64.3024 59.5789 62.3688 61.7248 60.5636C64.153 58.5218 66.3383 56.6896 70.5777 57.9877C72.8024 58.9342 73.0058 59.0221 74.7449 60.5298C80.5264 65.5262 94.2684 77.865 94.4324 78.0069L97.2806 80.5896L98.0746 81.3063L99.0131 80.8128L104.722 77.8244L105.07 79.0887L106.567 78.6492L118.897 75.0524L120.4 74.6129L119.974 73.0647ZM98.5406 77.4458L96.4865 75.5865H96.4799C96.4405 75.5527 82.3639 62.9097 76.7399 58.0553C74.6333 56.2366 74.397 56.1352 71.7195 54.9926L71.6539 54.9655L71.5095 54.9115C65.6689 53.0927 62.8667 55.4523 59.7561 58.0688C57.9054 59.6239 55.9301 61.2871 52.9836 61.8415C50.2273 62.362 49.4923 61.5507 49.722 60.2121C50.1289 57.8254 52.0582 54.3909 53.8367 51.4634V51.4566C59.8414 41.5788 68.1627 43.4448 77.7571 45.6016C83.5518 46.8997 89.773 48.2992 96.3946 47.5555L103.85 74.667L98.5406 77.4458ZM107.216 75.1133L98.3831 42.9786L107.735 40.3351L116.548 72.3889L107.216 75.1133Z" fill="white"/>
<path fill-rule="evenodd" clip-rule="evenodd" d="M45.0495 42.2955L44.4261 44.5536C47.2217 44.6145 52.5177 44.5672 56.9277 43.5395L57.6102 46.6766C52.4258 47.8868 46.1783 47.8327 43.5533 47.7448L36.5839 73.0917C39.2286 73.9504 44.2095 76.1815 44.6099 80.9006L41.4927 81.1778C41.2498 78.318 37.7389 76.8102 35.7308 76.1747L35.3567 77.5337L34.9301 79.0819L33.4339 78.6425L21.1029 75.0456L19.6001 74.6062L20.0267 73.0647L29.6867 37.9346L30.1067 36.3999L31.5964 36.8191L43.9602 40.3145L45.4827 40.7472L45.0495 42.2955ZM32.7842 75.1133L41.6173 42.9783L32.2658 40.3348L23.4523 72.3886L32.7842 75.1133Z" fill="white"/>
<path fill-rule="evenodd" clip-rule="evenodd" d="M68.4972 96.2345C68.1953 96.0046 67.8278 95.9302 67.4734 95.9843C67.119 96.0384 66.7909 96.2277 66.5678 96.532L64.1528 99.9057H64.1593C63.9362 100.217 63.8575 100.602 63.91 100.96C63.9625 101.319 64.1462 101.657 64.4415 101.887L64.4875 101.927C64.7762 102.13 65.1306 102.198 65.4653 102.144C65.8196 102.089 66.1478 101.9 66.3709 101.596L68.7925 98.2155C69.0156 97.9045 69.0878 97.5258 69.0353 97.1607C68.9762 96.8024 68.7925 96.4644 68.4972 96.2345ZM50.9033 76.4045C52.0583 77.2835 52.7671 78.5681 52.964 79.927C53.0493 80.5085 53.0427 81.1034 52.9377 81.6849C53.4561 81.4144 54.014 81.2319 54.5849 81.144C55.9565 80.9344 57.4002 81.2522 58.6012 82.1649V82.1717C59.8087 83.0844 60.5371 84.4163 60.7405 85.8293C60.8258 86.3905 60.8193 86.9652 60.734 87.5331C60.898 87.4925 61.0555 87.4587 61.2196 87.4317C62.4599 87.2424 63.7724 87.5331 64.8552 88.358L64.934 88.4256C65.9774 89.2504 66.614 90.4336 66.7977 91.6708C66.8568 92.0562 66.8699 92.4483 66.8371 92.8405C66.8962 92.827 66.9487 92.8202 67.0077 92.8134C68.1365 92.6377 69.344 92.9081 70.3415 93.6653C71.3456 94.4293 71.9493 95.5313 72.1199 96.701C72.2906 97.8639 72.0281 99.1079 71.2865 100.136L68.8649 103.516C68.1234 104.55 67.0537 105.172 65.9184 105.348C64.7896 105.524 63.5887 105.254 62.5846 104.496V104.503C61.5871 103.746 60.9768 102.637 60.8062 101.461C60.7865 101.326 60.7733 101.19 60.7668 101.055C60.4912 101.15 60.209 101.224 59.9268 101.265C58.693 101.454 57.3805 101.163 56.2911 100.332C55.2018 99.5 54.539 98.2966 54.3552 97.0255C54.3158 96.7686 54.2961 96.5117 54.3027 96.248C53.8893 96.4238 53.4627 96.5523 53.023 96.6199C51.6514 96.8295 50.2077 96.5117 49.0068 95.599C47.8058 94.6862 47.0708 93.3476 46.8674 91.9345C46.7624 91.2381 46.7886 90.5215 46.9527 89.8251C46.5196 90.0279 46.0602 90.1631 45.5942 90.2375C44.2752 90.4403 42.8839 90.1293 41.7289 89.2572C40.5739 88.3782 39.8652 87.0936 39.6683 85.7347C39.4714 84.3757 39.7733 82.9424 40.6199 81.7525H40.6264L43.632 77.5539C44.4852 76.3572 45.7321 75.6338 47.0446 75.431C48.3505 75.2146 49.7418 75.5256 50.9033 76.4045ZM49.873 80.4003C49.7943 79.8526 49.5121 79.3388 49.0593 78.994V78.9872C48.5999 78.6424 48.0421 78.5207 47.5039 78.6019C46.9658 78.683 46.4671 78.9737 46.1324 79.4402L43.1267 83.632H43.1333C42.792 84.1053 42.6739 84.6867 42.7527 85.2344C42.8314 85.782 43.1136 86.2959 43.5664 86.6407C44.0258 86.9922 44.5902 87.1139 45.1217 87.0328C45.6533 86.9517 46.1521 86.661 46.4867 86.1944H46.4933L49.4989 82.0026H49.4924C49.8271 81.5294 49.9518 80.9479 49.873 80.4003ZM57.6493 86.3026C57.564 85.7009 57.2556 85.133 56.7568 84.7544V84.7611C56.2515 84.3757 55.6346 84.2405 55.0506 84.3284C54.4599 84.4231 53.9152 84.7341 53.5412 85.2479L50.3649 89.6831C49.9974 90.2037 49.8662 90.8392 49.9515 91.441C50.0368 92.0427 50.3452 92.6038 50.844 92.9892C51.3493 93.3746 51.9662 93.5098 52.5502 93.4219C53.1409 93.334 53.6856 93.0163 54.0596 92.5024L57.2359 88.0672C57.6099 87.5466 57.7412 86.9111 57.6493 86.3026ZM63.7065 92.1441C63.6409 91.6708 63.4046 91.2314 63.0175 90.9406V90.9474C62.6237 90.6499 62.1446 90.5417 61.6918 90.6161C61.239 90.6837 60.8124 90.9271 60.5303 91.3328L60.4778 91.4004L57.774 95.1798V95.1865C57.4853 95.5854 57.3868 96.079 57.459 96.5455C57.5312 97.0188 57.7674 97.4582 58.1546 97.7489C58.5418 98.0464 59.0209 98.1478 59.4803 98.0735C59.9396 97.9991 60.3662 97.7557 60.6484 97.3568L63.4049 93.5098C63.6737 93.1109 63.7787 92.6174 63.7065 92.1441Z" fill="white"/>
</svg>
