<svg width="140" height="140" viewBox="0 0 140 140" fill="none" xmlns="http://www.w3.org/2000/svg">
<circle cx="70" cy="70" r="70" fill="#0042FF"/>
<path d="M71.9275 93.0055C72.6092 93.0055 73.1617 92.4529 73.1617 91.7713C73.1617 91.0897 72.6092 90.5371 71.9275 90.5371C71.2459 90.5371 70.6934 91.0897 70.6934 91.7713C70.6934 92.4529 71.2459 93.0055 71.9275 93.0055Z" fill="white"/>
<path d="M78.1746 90.5371C77.9315 90.5371 77.6938 90.6092 77.4916 90.7443C77.2895 90.8794 77.1319 91.0713 77.0389 91.296C76.9458 91.5206 76.9215 91.7677 76.9689 92.0062C77.0164 92.2446 77.1334 92.4637 77.3054 92.6356C77.4773 92.8075 77.6963 92.9246 77.9348 92.972C78.1732 93.0194 78.4204 92.9951 78.645 92.9021C78.8696 92.809 79.0616 92.6515 79.1967 92.4493C79.3317 92.2472 79.4038 92.0095 79.4038 91.7664C79.4038 91.4404 79.2743 91.1277 79.0438 90.8972C78.8133 90.6666 78.5006 90.5371 78.1746 90.5371Z" fill="white"/>
<path d="M84.306 93.0055C84.9876 93.0055 85.5401 92.4529 85.5401 91.7713C85.5401 91.0897 84.9876 90.5371 84.306 90.5371C83.6243 90.5371 83.0718 91.0897 83.0718 91.7713C83.0718 92.4529 83.6243 93.0055 84.306 93.0055Z" fill="white"/>
<path d="M58.6465 83.1201C57.1492 83.1232 55.6784 83.5155 54.3785 84.2584V75.6536C54.3785 75.3276 54.249 75.0149 54.0184 74.7844C53.7879 74.5538 53.4752 74.4243 53.1492 74.4243H42.0342C41.7871 74.4246 41.5459 74.4993 41.3419 74.6388C41.1379 74.7782 40.9807 74.9758 40.8907 75.2059C40.8008 75.436 40.7822 75.6879 40.8375 75.9287C40.8928 76.1695 41.0194 76.3881 41.2008 76.5559C41.8396 77.1345 42.3502 77.8406 42.6995 78.6287C43.0489 79.4167 43.2293 80.2692 43.229 81.1312C43.229 82.7861 42.5716 84.3732 41.4015 85.5434C40.2313 86.7135 38.6442 87.3709 36.9893 87.3709C35.3344 87.3709 33.7473 86.7135 32.5771 85.5434C31.4069 84.3732 30.7495 82.7861 30.7495 81.1312C30.7493 80.2692 30.9297 79.4167 31.279 78.6287C31.6284 77.8406 32.1389 77.1345 32.7778 76.5559C32.9592 76.3881 33.0857 76.1695 33.141 75.9287C33.1963 75.6879 33.1778 75.436 33.0878 75.2059C32.9979 74.9758 32.8406 74.7782 32.6367 74.6388C32.4327 74.4993 32.1914 74.4246 31.9444 74.4243H20.8294C20.5033 74.4243 20.1907 74.5538 19.9601 74.7844C19.7296 75.0149 19.6001 75.3276 19.6001 75.6536V103.054C19.6001 104.684 20.2477 106.247 21.4003 107.4C22.553 108.553 24.1163 109.2 25.7464 109.2H53.1492C53.4752 109.2 53.7879 109.071 54.0184 108.84C54.249 108.61 54.3785 108.297 54.3785 107.971V99.3661C55.5364 100.02 56.829 100.4 58.1567 100.476C59.4844 100.551 60.8118 100.322 62.0366 99.8037C63.2615 99.2859 64.3513 98.4939 65.2219 97.4886C66.0925 96.4834 66.7209 95.2918 67.0585 94.0055C67.3962 92.7192 67.4342 91.3726 67.1696 90.0693C66.9049 88.7661 66.3447 87.5409 65.5321 86.4882C64.7195 85.4355 63.6762 84.5833 62.4824 83.9973C61.2887 83.4112 59.9763 83.1069 58.6465 83.1079V83.1201Z" fill="white"/>
<path d="M58.6474 98.0576C57.7818 98.0579 56.9258 97.8756 56.1353 97.5227C55.3448 97.1699 54.6376 96.6543 54.0598 96.0097C53.8915 95.8284 53.673 95.7013 53.4321 95.6448C53.1912 95.5883 52.939 95.6049 52.7076 95.6925C52.4762 95.7818 52.2772 95.939 52.1368 96.1435C51.9964 96.348 51.9211 96.5902 51.9209 96.8382V106.741H25.7474C24.7693 106.741 23.8313 106.353 23.1397 105.661C22.4481 104.969 22.0596 104.031 22.0596 103.053V76.8872H29.4081C28.6718 78.1817 28.287 79.6463 28.2919 81.1356C28.2919 83.4425 29.2084 85.6549 30.8396 87.2862C32.4709 88.9174 34.6833 89.8339 36.9902 89.8339C39.2972 89.8339 41.5096 88.9174 43.1408 87.2862C44.7721 85.6549 45.6885 83.4425 45.6885 81.1356C45.6934 79.6463 45.3086 78.1817 44.5723 76.8872H51.9209V86.7951C51.9206 87.0436 51.9957 87.2863 52.1361 87.4912C52.2766 87.6962 52.4758 87.8538 52.7076 87.9432C52.939 88.0308 53.1912 88.0474 53.4321 87.9909C53.673 87.9344 53.8915 87.8074 54.0598 87.6261C54.6376 86.9815 55.3448 86.4659 56.1353 86.113C56.9258 85.7602 57.7818 85.5779 58.6474 85.5781C59.4668 85.5781 60.2782 85.7395 61.0353 86.0531C61.7923 86.3667 62.4802 86.8263 63.0596 87.4057C63.639 87.9851 64.0986 88.673 64.4122 89.43C64.7258 90.1871 64.8872 90.9985 64.8872 91.8179C64.8872 92.6373 64.7258 93.4487 64.4122 94.2057C64.0986 94.9628 63.639 95.6506 63.0596 96.2301C62.4802 96.8095 61.7923 97.2691 61.0353 97.5827C60.2782 97.8962 59.4668 98.0576 58.6474 98.0576Z" fill="#0042FF"/>
<path d="M119.171 74.429H110.581C111.324 73.1297 111.713 71.6579 111.709 70.1609C111.709 67.854 110.793 65.6416 109.161 64.0103C107.53 62.3791 105.318 61.4626 103.011 61.4626C100.704 61.4626 98.4914 62.3791 96.8602 64.0103C95.2289 65.6416 94.3125 67.854 94.3125 70.1609C94.3083 71.6579 94.6975 73.1297 95.441 74.429H86.8508C86.5248 74.429 86.2122 74.5585 85.9816 74.789C85.7511 75.0195 85.6216 75.3322 85.6216 75.6582V86.7732C85.6219 87.0203 85.6966 87.2616 85.836 87.4655C85.9754 87.6695 86.1731 87.8267 86.4032 87.9167C86.6333 88.0067 86.8852 88.0252 87.126 87.9699C87.3668 87.9146 87.5853 87.788 87.7531 87.6067C88.3314 86.968 89.0371 86.4575 89.8247 86.1082C90.6123 85.7588 91.4644 85.5784 92.326 85.5784C93.9809 85.5784 95.568 86.2358 96.7382 87.406C97.9083 88.5762 98.5657 90.1633 98.5657 91.8182C98.5657 93.473 97.9083 95.0602 96.7382 96.2303C95.568 97.4005 93.9809 98.0579 92.326 98.0579C91.4644 98.0579 90.6123 97.8775 89.8247 97.5281C89.0371 97.1788 88.3314 96.6683 87.7531 96.0296C87.5853 95.8483 87.3668 95.7217 87.126 95.6664C86.8852 95.6111 86.6333 95.6297 86.4032 95.7196C86.1731 95.8096 85.9754 95.9668 85.836 96.1708C85.6966 96.3747 85.6219 96.616 85.6216 96.8631V107.971C85.6216 108.297 85.7511 108.609 85.9816 108.84C86.2122 109.07 86.5248 109.2 86.8508 109.2H114.254C115.884 109.2 117.447 108.552 118.6 107.4C119.752 106.247 120.4 104.684 120.4 103.054V75.6582C120.4 75.3322 120.27 75.0195 120.04 74.789C119.809 74.5585 119.497 74.429 119.171 74.429Z" fill="white"/>
<path d="M117.942 103.053C117.942 104.031 117.554 104.969 116.862 105.661C116.171 106.353 115.233 106.741 114.255 106.741H88.0811V99.3902C89.3746 100.127 90.8383 100.513 92.3269 100.509C93.4692 100.509 94.6003 100.284 95.6556 99.8467C96.7109 99.4095 97.6698 98.7688 98.4776 97.9611C99.2853 97.1534 99.926 96.1945 100.363 95.1392C100.8 94.0839 101.025 92.9528 101.025 91.8105C101.025 90.6682 100.8 89.5371 100.363 88.4818C99.926 87.4265 99.2853 86.4676 98.4776 85.6599C97.6698 84.8522 96.7109 84.2115 95.6556 83.7743C94.6003 83.3372 93.4692 83.1122 92.3269 83.1122C90.8387 83.1089 89.3753 83.4936 88.0811 84.2284V76.8872H97.9889C98.2369 76.8875 98.4791 76.8128 98.6838 76.673C98.8885 76.5331 99.0462 76.3346 99.1361 76.1035C99.2259 75.8725 99.2438 75.6196 99.1874 75.3782C99.131 75.1368 99.0029 74.918 98.8199 74.7507C98.1752 74.1725 97.6597 73.4648 97.3068 72.6739C96.9539 71.8831 96.7717 71.0267 96.772 70.1607C96.772 68.5058 97.4294 66.9187 98.5995 65.7485C99.7697 64.5783 101.357 63.9209 103.012 63.9209C104.667 63.9209 106.254 64.5783 107.424 65.7485C108.594 66.9187 109.251 68.5058 109.251 70.1607C109.252 71.0267 109.069 71.8831 108.717 72.6739C108.364 73.4648 107.848 74.1725 107.204 74.7507C107.021 74.9179 106.893 75.1364 106.836 75.3776C106.78 75.6188 106.797 75.8714 106.887 76.1024C106.976 76.3334 107.134 76.5319 107.338 76.6719C107.542 76.812 107.784 76.887 108.032 76.8872H117.942V103.053Z" fill="#0042FF"/>
<path d="M79.6112 55.7318C79.705 53.5093 80.6215 51.401 82.1828 49.8165C83.7635 48.1476 84.9839 46.1712 85.768 44.0104C86.5521 41.8496 86.8832 39.5505 86.7407 37.2562C86.5982 34.962 85.9851 32.7216 84.9396 30.6744C83.8941 28.6272 82.4385 26.8171 80.6634 25.3566C78.7328 23.7715 76.474 22.6353 74.0504 22.0302C71.6267 21.4252 69.0989 21.3664 66.6498 21.8581C63.7192 22.4545 61.0015 23.824 58.7786 25.8246C56.5556 27.8252 54.9082 30.384 54.0073 33.2358C53.1064 36.0875 52.9847 39.1283 53.6549 42.0429C54.3251 44.9575 55.7627 47.6398 57.8188 49.8116C59.3808 51.398 60.2989 53.5075 60.3953 55.7318C59.6476 55.8186 58.9573 56.1757 58.4543 56.7357C57.9513 57.2957 57.6702 58.0202 57.6639 58.773V61.0569C57.6652 61.8846 57.9946 62.6781 58.5798 63.2633C59.1651 63.8486 59.9585 64.178 60.7862 64.1793H61.0321C61.2289 66.4261 62.2606 68.5176 63.9236 70.0412C65.5866 71.5649 67.7601 72.41 70.0155 72.41C72.271 72.41 74.4445 71.5649 76.1075 70.0412C77.7705 68.5176 78.8021 66.4261 78.999 64.1793H79.2449C80.0726 64.178 80.866 63.8486 81.4513 63.2633C82.0365 62.6781 82.3659 61.8846 82.3672 61.0569V58.773C82.3601 58.0164 82.0756 57.2888 81.5676 56.7282C81.0595 56.1676 80.3634 55.813 79.6112 55.7318Z" fill="white"/>
<path d="M55.9134 35.7169C56.4121 32.9035 57.7479 30.3059 59.7462 28.2637C61.7446 26.2215 64.3125 24.8296 67.1144 24.2699C69.208 23.8501 71.3687 23.8998 73.4407 24.4154C75.5128 24.9311 77.4447 25.9 79.0973 27.2521C80.6124 28.4982 81.8548 30.0428 82.7472 31.7897C83.6397 33.5366 84.1631 35.4485 84.2849 37.4064C84.4066 39.3643 84.1241 41.3263 83.455 43.1703C82.7859 45.0143 81.7444 46.7009 80.3954 48.1251C78.4217 50.1463 77.268 52.8278 77.1575 55.6507H74.5933V45.0077H75.4857C76.3766 45.009 77.2316 44.6565 77.8627 44.0277C78.4939 43.3988 78.8495 42.5451 78.8514 41.6542V41.3445C78.8514 40.4551 78.4981 39.6021 77.8692 38.9732C77.2404 38.3443 76.3874 37.991 75.498 37.991C74.6086 37.991 73.7557 38.3443 73.1268 38.9732C72.4979 39.6021 72.1446 40.4551 72.1446 41.3445V42.5516H67.8667V41.3445C67.8667 40.4551 67.5134 39.6021 66.8845 38.9732C66.2556 38.3443 65.4027 37.991 64.5133 37.991C63.6239 37.991 62.7709 38.3443 62.1421 38.9732C61.5132 39.6021 61.1599 40.4551 61.1599 41.3445V41.6567C61.1618 42.5459 61.5161 43.3981 62.1451 44.0266C62.7741 44.6552 63.6265 45.0088 64.5157 45.0101H65.4082V55.6531H62.8415C62.7295 52.8287 61.5751 50.1459 59.6012 48.1226C58.0526 46.4916 56.9113 44.5176 56.2705 42.3617C55.6296 40.2058 55.5072 37.929 55.9134 35.7169Z" fill="#0042FF"/>
<path d="M65.408 42.5493H64.5155C64.3978 42.5496 64.2812 42.5267 64.1723 42.4819C64.0635 42.4371 63.9645 42.3712 63.8811 42.2881C63.7978 42.2049 63.7316 42.1062 63.6865 41.9974C63.6414 41.8887 63.6182 41.7721 63.6182 41.6544V41.3446C63.6182 41.1073 63.7124 40.8796 63.8803 40.7118C64.0481 40.544 64.2757 40.4497 64.5131 40.4497C64.7504 40.4497 64.978 40.544 65.1459 40.7118C65.3137 40.8796 65.408 41.1073 65.408 41.3446V42.5493Z" fill="#0042FF"/>
<path d="M72.1337 45.0078H67.8657V55.6533H72.1337V45.0078Z" fill="#0042FF"/>
<path d="M74.5923 42.5493V41.3446C74.5923 41.1073 74.6866 40.8796 74.8544 40.7118C75.0222 40.544 75.2498 40.4497 75.4872 40.4497C75.7245 40.4497 75.9522 40.544 76.12 40.7118C76.2878 40.8796 76.3821 41.1073 76.3821 41.3446V41.6568C76.3821 41.7746 76.3589 41.8911 76.3137 41.9999C76.2686 42.1086 76.2025 42.2074 76.1191 42.2905C76.0358 42.3736 75.9368 42.4395 75.828 42.4843C75.7191 42.5292 75.6025 42.5521 75.4847 42.5518L74.5923 42.5493Z" fill="#0042FF"/>
<path d="M70.0005 69.9543C68.3968 69.9494 66.8497 69.3604 65.6487 68.2975C64.4478 67.2346 63.6752 65.7705 63.4756 64.1792H76.5255C76.3258 65.7705 75.5533 67.2346 74.3523 68.2975C73.1514 69.3604 71.6043 69.9494 70.0005 69.9543Z" fill="#0042FF"/>
<path d="M79.217 58.1089H60.7805C60.4139 58.1089 60.1167 58.4061 60.1167 58.7727V61.0542C60.1167 61.4208 60.4139 61.718 60.7805 61.718H79.217C79.5836 61.718 79.8808 61.4208 79.8808 61.0542V58.7727C79.8808 58.4061 79.5836 58.1089 79.217 58.1089Z" fill="#0042FF"/>
<path d="M70.0003 19.5149C70.3263 19.5149 70.639 19.3854 70.8695 19.1549C71.1 18.9244 71.2295 18.6117 71.2295 18.2857V9.62917C71.2295 9.30315 71.1 8.99048 70.8695 8.75995C70.639 8.52941 70.3263 8.3999 70.0003 8.3999C69.6742 8.3999 69.3616 8.52941 69.131 8.75995C68.9005 8.99048 68.771 9.30315 68.771 9.62917V18.2857C68.771 18.6117 68.9005 18.9244 69.131 19.1549C69.3616 19.3854 69.6742 19.5149 70.0003 19.5149Z" fill="white"/>
<path d="M89.6958 39.2105C89.6958 39.5365 89.8253 39.8492 90.0558 40.0797C90.2864 40.3102 90.599 40.4397 90.9251 40.4397H99.5889C99.9149 40.4397 100.228 40.3102 100.458 40.0797C100.689 39.8492 100.818 39.5365 100.818 39.2105C100.818 38.8844 100.689 38.5718 100.458 38.3412C100.228 38.1107 99.9149 37.9812 99.5889 37.9812H90.9251C90.599 37.9812 90.2864 38.1107 90.0558 38.3412C89.8253 38.5718 89.6958 38.8844 89.6958 39.2105Z" fill="white"/>
<path d="M40.4114 40.4397H49.0753C49.4013 40.4397 49.7139 40.3102 49.9445 40.0797C50.175 39.8492 50.3045 39.5365 50.3045 39.2105C50.3045 38.8844 50.175 38.5718 49.9445 38.3412C49.7139 38.1107 49.4013 37.9812 49.0753 37.9812H40.4114C40.0854 37.9812 39.7727 38.1107 39.5422 38.3412C39.3116 38.5718 39.1821 38.8844 39.1821 39.2105C39.1821 39.5365 39.3116 39.8492 39.5422 40.0797C39.7727 40.3102 40.0854 40.4397 40.4114 40.4397Z" fill="white"/>
<path d="M58.4745 21.703C58.6375 21.9846 58.9055 22.1902 59.2198 22.2745C59.5342 22.3588 59.8691 22.3151 60.1512 22.1529C60.4335 21.9899 60.6395 21.7214 60.7239 21.4065C60.8083 21.0916 60.7641 20.756 60.6011 20.4737L56.2692 12.9703C56.1923 12.8234 56.0866 12.6935 55.9582 12.5886C55.8299 12.4836 55.6817 12.4057 55.5224 12.3595C55.3632 12.3133 55.1963 12.2998 55.0317 12.3198C54.8671 12.3398 54.7083 12.3928 54.5648 12.4758C54.4212 12.5588 54.296 12.6699 54.1965 12.8025C54.097 12.9352 54.0254 13.0866 53.986 13.2476C53.9465 13.4086 53.9401 13.576 53.967 13.7396C53.9939 13.9032 54.0536 14.0596 54.1425 14.1995L58.4745 21.703Z" fill="white"/>
<path d="M88.1223 29.9788C88.3381 29.9788 88.55 29.922 88.7369 29.814L96.2403 25.4821C96.3803 25.4014 96.503 25.2939 96.6014 25.1658C96.6998 25.0376 96.772 24.8914 96.8139 24.7353C96.8558 24.5793 96.8666 24.4165 96.8456 24.2563C96.8246 24.0962 96.7722 23.9417 96.6915 23.8017C96.6108 23.6617 96.5033 23.5391 96.3752 23.4406C96.247 23.3422 96.1008 23.27 95.9447 23.2281C95.7887 23.1862 95.6259 23.1755 95.4657 23.1965C95.3055 23.2175 95.151 23.2699 95.0111 23.3506L87.5076 27.685C87.2733 27.8203 87.0902 28.0291 86.9866 28.2791C86.8831 28.5291 86.8649 28.8063 86.935 29.0677C87.005 29.329 87.1593 29.56 87.374 29.7247C87.5887 29.8895 87.8517 29.9788 88.1223 29.9788Z" fill="white"/>
<path d="M51.2636 48.6068L43.7602 52.9387C43.4775 53.1017 43.2712 53.3704 43.1866 53.6855C43.102 54.0006 43.1461 54.3365 43.3091 54.6191C43.4721 54.9018 43.7407 55.1081 44.0558 55.1927C44.371 55.2773 44.7068 55.2333 44.9895 55.0703L52.4929 50.7359C52.6338 50.6557 52.7575 50.5485 52.8568 50.4204C52.9562 50.2923 53.0292 50.1458 53.0717 49.9893C53.1141 49.8329 53.1252 49.6696 53.1043 49.5088C53.0834 49.348 53.031 49.193 52.9499 49.0526C52.8688 48.9122 52.7608 48.7892 52.632 48.6908C52.5033 48.5923 52.3563 48.5203 52.1995 48.4788C52.0428 48.4374 51.8794 48.4274 51.7188 48.4493C51.5582 48.4713 51.4035 48.5248 51.2636 48.6068Z" fill="white"/>
<path d="M43.7602 25.4821L51.2636 29.8141C51.4035 29.896 51.5582 29.9496 51.7188 29.9715C51.8794 29.9935 52.0428 29.9835 52.1995 29.942C52.3563 29.9006 52.5033 29.8286 52.632 29.7301C52.7608 29.6316 52.8688 29.5086 52.9499 29.3682C53.031 29.2278 53.0834 29.0728 53.1043 28.912C53.1252 28.7513 53.1141 28.588 53.0717 28.4315C53.0292 28.2751 52.9562 28.1285 52.8568 28.0004C52.7575 27.8723 52.6338 27.7651 52.4929 27.685L44.9895 23.3506C44.7068 23.1876 44.371 23.1435 44.0558 23.2281C43.7407 23.3127 43.4721 23.519 43.3091 23.8017C43.1461 24.0844 43.102 24.4202 43.1866 24.7353C43.2712 25.0505 43.4775 25.3191 43.7602 25.4821Z" fill="white"/>
<path d="M87.5079 50.7359L95.0114 55.0703C95.1982 55.1782 95.4102 55.235 95.626 55.235C95.8974 55.2359 96.1614 55.147 96.377 54.9822C96.5926 54.8173 96.7475 54.5857 96.8177 54.3236C96.8879 54.0614 96.8693 53.7834 96.7649 53.5329C96.6605 53.2824 96.4762 53.0735 96.2406 52.9387L88.7372 48.6068C88.5973 48.5248 88.4426 48.4713 88.282 48.4493C88.1214 48.4274 87.958 48.4374 87.8013 48.4788C87.6446 48.5203 87.4976 48.5923 87.3688 48.6908C87.24 48.7892 87.132 48.9122 87.0509 49.0526C86.9699 49.193 86.9174 49.348 86.8965 49.5088C86.8756 49.6696 86.8867 49.8329 86.9292 49.9893C86.9716 50.1458 87.0447 50.2923 87.144 50.4204C87.2433 50.5485 87.367 50.6557 87.5079 50.7359Z" fill="white"/>
<path d="M79.8485 22.1529C80.1306 22.3151 80.4655 22.3588 80.7798 22.2745C81.0942 22.1902 81.3622 21.9846 81.5252 21.703L85.8571 14.1995C85.9461 14.0596 86.0058 13.9032 86.0327 13.7396C86.0596 13.576 86.0532 13.4086 86.0137 13.2476C85.9743 13.0866 85.9027 12.9352 85.8032 12.8025C85.7037 12.6699 85.5785 12.5588 85.4349 12.4758C85.2914 12.3928 85.1325 12.3398 84.968 12.3198C84.8034 12.2998 84.6365 12.3133 84.4772 12.3595C84.318 12.4057 84.1698 12.4836 84.0414 12.5886C83.9131 12.6935 83.8074 12.8234 83.7305 12.9703L79.3986 20.4737C79.2356 20.756 79.1914 21.0916 79.2758 21.4065C79.3601 21.7214 79.5662 21.9899 79.8485 22.1529Z" fill="white"/>
</svg>
