<svg width="140" height="140" viewBox="0 0 140 140" fill="none" xmlns="http://www.w3.org/2000/svg">
<circle cx="70" cy="70" r="70" fill="#0D8BFF"/>
<path d="M85.655 49.7313C85.531 49.3778 85.2936 49.07 84.9761 48.851C84.6586 48.632 84.2769 48.5128 83.8846 48.5102H74.6222L71.7708 40.1566C71.6483 39.8026 71.4111 39.4943 71.0932 39.2757C70.7753 39.0571 70.3929 38.9395 70.0004 38.9395C69.6079 38.9395 69.2254 39.0571 68.9075 39.2757C68.5896 39.4943 68.3525 39.8026 68.2299 40.1566L65.3785 48.5102H56.1162C55.7238 48.5128 55.3421 48.632 55.0247 48.851C54.7072 49.07 54.4698 49.3778 54.3457 49.7313C54.2219 50.0883 54.222 50.4736 54.3461 50.8305C54.4703 51.1873 54.7119 51.4969 55.0353 51.7135L62.5085 56.8814L59.6571 65.2349C59.534 65.5902 59.5326 65.9734 59.6532 66.3296C59.7737 66.6857 60.01 66.9964 60.328 67.2171C60.6496 67.433 61.0338 67.5489 61.4276 67.5489C61.8214 67.5489 62.2056 67.433 62.5271 67.2171L70.0004 62.0492L77.4736 67.2171C77.7979 67.4282 78.18 67.5451 78.5732 67.5533C78.9672 67.5504 79.3509 67.4331 79.6727 67.2171C79.9908 66.9964 80.227 66.6857 80.3476 66.3296C80.4681 65.9734 80.4667 65.5902 80.3436 65.2349L77.4922 56.8814L84.9655 51.7135C85.2889 51.4969 85.5305 51.1873 85.6546 50.8305C85.7787 50.4736 85.7789 50.0883 85.655 49.7313ZM74.2122 54.7753C73.8922 54.9947 73.6532 55.3044 73.5294 55.6603C73.4056 56.0163 73.4033 56.4002 73.5227 56.7575L75.0322 61.1466L71.0999 58.4211C70.7795 58.2024 70.3949 58.0848 70.0004 58.0848C69.6058 58.0848 69.2212 58.2024 68.9008 58.4211L64.9685 61.1466L66.4781 56.7575C66.5975 56.4002 66.5951 56.0163 66.4713 55.6603C66.3475 55.3044 66.1086 54.9947 65.7885 54.7753L61.8562 52.0498H66.7204C67.114 52.052 67.498 51.9347 67.8165 51.715C68.135 51.4953 68.3713 51.1848 68.4908 50.8286L70.0004 46.4395L71.5099 50.8286C71.6295 51.1848 71.8657 51.4953 72.1842 51.715C72.5027 51.9347 72.8868 52.052 73.2804 52.0498H78.1445L74.2122 54.7753Z" fill="white"/>
<path d="M70.002 31.4849C63.6396 31.4832 57.5225 33.8156 52.9279 37.9951C48.3334 42.1746 45.6166 47.8781 45.3448 53.9146C45.073 59.9511 47.2673 65.8539 51.4695 70.3906C55.6716 74.9272 61.5567 77.747 67.896 78.261C68.6042 78.3141 69.2938 78.3495 70.002 78.3495C70.6356 78.3495 71.2879 78.3141 71.9215 78.261H72.1079V78.2433C78.4448 77.7294 84.3276 74.9106 88.5281 70.3756C92.7286 65.8406 94.9219 59.9399 94.6502 53.9057C94.3784 47.8715 91.6625 42.1702 87.0696 37.9924C82.4767 33.8145 76.3619 31.4831 70.002 31.4849ZM88.2843 64.6157C88.2794 64.6157 88.2747 64.6176 88.2712 64.6209C88.2677 64.6242 88.2657 64.6287 88.2657 64.6334C86.5987 67.4706 84.2223 69.8748 81.3461 71.634C78.4698 73.3932 75.182 74.4535 71.7724 74.7214L71.7538 74.7391H71.7351C70.5698 74.8481 69.3956 74.8421 68.2315 74.7214C63.7265 74.3568 59.4668 72.6174 56.0892 69.7631C52.7116 66.9088 50.3975 63.093 49.4929 58.8862C48.5882 54.6794 49.1417 50.3075 51.0705 46.4242C52.9994 42.5409 56.1999 39.3547 60.1937 37.3421C64.1875 35.3294 68.76 34.5983 73.2275 35.2582C77.6951 35.9181 81.8178 37.9334 84.9792 41.0029C88.1407 44.0724 90.171 48.0311 90.7668 52.2874C91.3625 56.5436 90.4916 60.8685 88.2843 64.6157Z" fill="white"/>
<path d="M120.095 106.649L113.088 96.3306C108.074 88.9859 103.067 81.6294 98.0666 74.2611C98.458 74.1195 98.9053 73.9602 99.3526 73.8186C100.363 73.6265 101.322 73.246 102.177 72.6992C103.031 72.1524 103.762 71.4501 104.329 70.633C104.645 69.709 104.767 68.7348 104.687 67.7661C104.607 66.7974 104.327 65.8531 103.863 64.9873C103.425 64.0815 103.19 63.0991 103.173 62.1025C103.635 61.2506 104.275 60.4977 105.055 59.8902C105.885 59.2936 106.582 58.547 107.107 57.6935C107.631 56.84 107.973 55.8964 108.112 54.917C107.975 53.9395 107.634 52.9978 107.109 52.1469C106.584 51.296 105.886 50.5531 105.055 49.9616C104.278 49.3444 103.638 48.5863 103.173 47.7316C103.19 46.735 103.425 45.7526 103.863 44.8468C104.327 43.984 104.607 43.0427 104.687 42.0769C104.767 41.1111 104.645 40.1398 104.329 39.2188C103.761 38.4031 103.029 37.7018 102.175 37.1551C101.321 36.6085 100.362 36.2272 99.3526 36.0331C98.3488 35.792 97.4052 35.365 96.5757 34.7766C96.1633 33.8759 95.9356 32.9088 95.9048 31.9272C95.9329 30.9518 95.758 29.9808 95.3902 29.0697C95.0225 28.1586 94.469 27.3254 93.7616 26.6177C91.9803 25.6219 89.8566 25.3356 87.8539 25.8213C86.8395 26.0201 85.7931 26.0201 84.7788 25.8213C83.9982 25.2003 83.3579 24.4358 82.8965 23.5737C82.4727 22.6705 81.864 21.8564 81.1057 21.1789C80.3474 20.5013 79.4547 19.9738 78.4797 19.627C77.47 19.5445 76.4531 19.6522 75.4873 19.9437C74.5215 20.2353 73.6257 20.705 72.8515 21.326C72.005 21.9387 71.0342 22.3785 70.0001 22.618C68.966 22.3785 67.9952 21.9387 67.1487 21.326C66.3773 20.7064 65.4847 20.2374 64.5221 19.9458C63.5596 19.6543 62.5459 19.5459 61.5391 19.627C60.56 19.9707 59.6632 20.497 58.9015 21.1748C58.1398 21.8525 57.5285 22.6682 57.1037 23.5737C56.6416 24.4304 56.0086 25.1938 55.24 25.8213C54.2194 26.0199 53.167 26.0199 52.1464 25.8213C50.1497 25.3354 48.0316 25.6218 46.2572 26.6177C45.5419 27.3245 44.9822 28.1597 44.611 29.0744C44.2398 29.9891 44.0645 30.965 44.0954 31.9449C44.0764 32.9241 43.8415 33.8888 43.4058 34.7766C42.5933 35.366 41.6603 35.7879 40.6663 36.0154C38.6231 36.4078 36.827 37.5534 35.6717 39.2011C35.355 40.1251 35.2332 41.0993 35.3131 42.068C35.3931 43.0367 35.6732 43.9809 36.1376 44.8468C36.5757 45.7526 36.8105 46.735 36.8272 47.7316C36.362 48.5863 35.7221 49.3444 34.9449 49.9616C34.1141 50.5531 33.4158 51.296 32.891 52.1469C32.3662 52.9978 32.0254 53.9395 31.8885 54.917C32.0275 55.8964 32.369 56.84 32.8936 57.6935C33.4181 58.547 34.1153 59.2936 34.9449 59.8902C35.7249 60.4977 36.3655 61.2506 36.8272 62.1025C36.8105 63.0991 36.5757 64.0815 36.1376 64.9873C35.6736 65.85 35.3935 66.7913 35.3136 67.7571C35.2336 68.7229 35.3553 69.6942 35.6717 70.6152C36.2351 71.4348 36.9657 72.1389 37.8203 72.6861C38.6749 73.2332 39.6363 73.6123 40.6476 73.8009C41.0763 73.9602 41.5236 74.1018 41.9336 74.2611C36.9203 81.6235 31.9133 88.98 26.9126 96.3306L19.9052 106.649C19.7031 106.938 19.5969 107.278 19.6002 107.625C19.6035 107.972 19.7162 108.31 19.9239 108.595C20.1263 108.881 20.4127 109.104 20.7474 109.236C21.082 109.368 21.4502 109.404 21.8062 109.339L34.5349 107.091L37.6285 119.055C37.7184 119.389 37.9091 119.691 38.1773 119.924C38.4455 120.157 38.7794 120.31 39.1381 120.365C39.2361 120.385 39.3359 120.397 39.4363 120.4C39.7486 120.402 40.0563 120.328 40.3302 120.186C40.6041 120.043 40.8353 119.837 41.0017 119.586L61.0919 90.0478C61.241 90.0832 61.3714 90.1717 61.5205 90.2071C61.8258 90.2762 62.1385 90.3118 62.4523 90.3133C64.1631 90.1342 65.7884 89.5094 67.1487 88.508C67.9952 87.8954 68.966 87.4555 70.0001 87.2161C71.0342 87.4555 72.005 87.8954 72.8515 88.508C73.6263 89.1339 74.5248 89.6066 75.4945 89.8983C76.4642 90.1901 77.4854 90.2951 78.4983 90.2071C78.6474 90.1717 78.7779 90.0832 78.9083 90.0478L98.9985 119.586C99.1649 119.837 99.3961 120.043 99.67 120.186C99.9439 120.328 100.252 120.402 100.564 120.4C100.664 120.397 100.764 120.385 100.862 120.365C101.221 120.31 101.555 120.157 101.823 119.924C102.091 119.691 102.282 119.389 102.372 119.055L105.465 107.091L118.194 109.339C118.55 109.402 118.917 109.365 119.252 109.233C119.586 109.101 119.873 108.88 120.076 108.595C120.284 108.31 120.397 107.972 120.4 107.625C120.403 107.278 120.297 106.938 120.095 106.649ZM40.219 114.206L37.7403 104.631C37.629 104.192 37.345 103.81 36.9465 103.563C36.5481 103.316 36.0653 103.223 35.5972 103.304L25.3844 105.109L30.0435 98.2597C34.7026 91.3928 39.3741 84.526 44.0581 77.6591C44.0784 77.7405 44.0909 77.8234 44.0954 77.9069C44.0673 78.8822 44.2422 79.8533 44.61 80.7644C44.9777 81.6755 45.5312 82.5087 46.2386 83.2163C48.0202 84.2112 50.1436 84.4975 52.1464 84.0127C53.1607 83.8139 54.2071 83.8139 55.2214 84.0127C56.0064 84.6296 56.6475 85.3951 57.1037 86.2604C57.4577 86.7736 57.8118 87.2869 58.1846 87.7824L40.219 114.206ZM78.2002 86.402C78.0495 86.5643 77.8568 86.6863 77.6411 86.7559C77.1192 86.8621 75.7401 86.0657 74.8456 85.5171C73.4444 84.4838 71.7652 83.8459 70.0001 83.6765C68.235 83.8459 66.5558 84.4838 65.1546 85.5171C64.2601 86.0657 62.881 86.8798 62.3778 86.7736C62.1493 86.6906 61.9449 86.5571 61.7814 86.3843C61.2042 85.7709 60.6982 85.1004 60.2719 84.3844C59.5007 82.9236 58.3207 81.6928 56.8614 80.8271C56.0142 80.4608 55.0894 80.2852 54.1591 80.3138C53.3486 80.3288 52.5397 80.3879 51.7363 80.4908C50.5809 80.6147 49.0154 80.7917 48.5681 80.4554C48.1209 80.1191 47.9345 78.6148 47.804 77.5175C47.7813 75.8602 47.2714 74.2419 46.3318 72.8452C46.1835 72.6685 46.0147 72.5082 45.8286 72.3674C45.7575 72.3101 45.6828 72.2569 45.6049 72.2081L45.5863 72.1904H45.5677C44.4535 71.4166 43.2044 70.8355 41.8776 70.4737C40.7781 70.102 39.2872 69.6065 39.0263 69.0755C38.7654 68.58 39.2872 67.1818 39.6599 66.1553C40.4064 64.6502 40.6845 62.9739 40.4613 61.3237C39.914 59.7737 38.9118 58.4044 37.5726 57.3771C36.7526 56.5983 35.6158 55.5188 35.6158 54.917C35.6158 54.3153 36.7526 53.2357 37.5726 52.457C38.9118 51.4296 39.914 50.0603 40.4613 48.5103C40.6845 46.8602 40.4064 45.1838 39.6599 43.6787C39.2872 42.6522 38.7654 41.2541 39.0263 40.7408C39.2872 40.2276 40.7967 39.732 41.8963 39.3604C43.5763 38.9853 45.1086 38.1625 46.3131 36.9888C47.2667 35.6038 47.7839 33.9889 47.804 32.3342C47.9345 31.2369 48.1022 29.7503 48.5681 29.3963C49.0341 29.0424 50.5809 29.2194 51.7363 29.3432C53.4442 29.6887 55.2198 29.5722 56.8614 29.007C58.3251 28.1462 59.5064 26.9141 60.2719 25.4497C60.8869 24.494 61.7441 23.202 62.3591 23.0781C62.881 22.9542 64.2601 23.786 65.1546 24.317C66.5558 25.3502 68.235 25.9881 70.0001 26.1576C71.7652 25.9881 73.4444 25.3502 74.8456 24.317C75.7401 23.786 77.1006 22.9719 77.6411 23.0781C78.2561 23.202 79.1133 24.494 79.7283 25.4497C80.4938 26.9141 81.6751 28.1462 83.1388 29.007C84.7804 29.5722 86.556 29.6887 88.2639 29.3432C89.4193 29.2194 90.9848 29.0424 91.4321 29.3786C91.8793 29.7149 92.0657 31.2192 92.1962 32.3165C92.2189 33.9738 92.7288 35.5921 93.6684 36.9888C94.8908 38.1624 96.4331 38.9897 98.1226 39.3781C99.2221 39.732 100.713 40.2276 100.974 40.7585C101.235 41.2541 100.713 42.6522 100.34 43.6787C99.5938 45.1838 99.3157 46.8602 99.5389 48.5103C100.086 50.0603 101.088 51.4296 102.428 52.457C103.248 53.2357 104.384 54.3153 104.384 54.917C104.384 55.5188 103.248 56.5983 102.428 57.3771C101.088 58.4044 100.086 59.7737 99.5389 61.3237C99.3157 62.9739 99.5938 64.6502 100.34 66.1553C100.713 67.1818 101.235 68.58 100.974 69.0932C100.713 69.6065 99.2035 70.1197 98.1226 70.4737C96.727 70.8358 95.4174 71.4486 94.2648 72.2789C94.0582 72.4543 93.8651 72.6436 93.6871 72.8452C92.7335 74.2303 92.2163 75.8451 92.1962 77.4998C92.0657 78.5971 91.898 80.0837 91.4321 80.4377C90.9661 80.7917 89.4193 80.6147 88.2639 80.4908C86.5567 80.1364 84.7784 80.2531 83.1388 80.8271C81.6795 81.6928 80.4995 82.9236 79.7283 84.3844C79.2976 85.1076 78.7852 85.7841 78.2002 86.402ZM104.403 103.304C103.935 103.223 103.452 103.316 103.054 103.563C102.655 103.81 102.371 104.192 102.26 104.631L99.7812 114.206L81.8156 87.7824C82.1884 87.2869 82.5425 86.7736 82.8965 86.2604C83.3533 85.4004 83.987 84.6361 84.7602 84.0127C85.7808 83.8142 86.8332 83.8142 87.8539 84.0127C89.8505 84.4987 91.9686 84.2122 93.743 83.2163C94.4566 82.5121 95.0154 81.6798 95.3866 80.7682C95.7577 79.8566 95.9339 78.8839 95.9048 77.9069C95.9081 77.8233 95.9206 77.7402 95.9421 77.6591C100.62 84.526 105.291 91.3928 109.957 98.2597L114.616 105.109L104.403 103.304Z" fill="white"/>
</svg>
