<svg width="40" height="40" viewBox="0 0 40 40" fill="none" xmlns="http://www.w3.org/2000/svg">
<path d="M39.9233 8.2583L25.8933 23.5637C24.329 25.266 22.2096 26.222 20 26.222C17.7904 26.222 15.671 25.266 14.1067 23.5637L0.0766667 8.2583C0.0533333 8.54557 0 8.80557 0 9.09103V30.9092C0.00264643 33.3194 0.88147 35.63 2.4437 37.3342C4.00593 39.0385 6.12401 39.9972 8.33333 40.0001H31.6667C33.876 39.9972 35.9941 39.0385 37.5563 37.3342C39.1185 35.63 39.9974 33.3194 40 30.9092V9.09103C40 8.80557 39.9467 8.54557 39.9233 8.2583Z" fill="#0042FF"/>
<path d="M23.5367 20.9927L38.76 4.38363C38.0225 3.04967 36.9824 1.94552 35.7399 1.17769C34.4975 0.40986 33.0946 0.00425575 31.6667 0H8.33332C6.90536 0.00425575 5.50249 0.40986 4.26003 1.17769C3.01758 1.94552 1.97745 3.04967 1.23999 4.38363L16.4633 20.9927C17.4026 22.0133 18.6743 22.5863 20 22.5863C21.3257 22.5863 22.5974 22.0133 23.5367 20.9927Z" fill="#0042FF"/>
</svg>
