<svg width="40" height="40" viewBox="0 0 40 40" fill="none" xmlns="http://www.w3.org/2000/svg">
<path d="M40 20C40 30.13 32.48 38.5 22.71 39.81V25H25.2C26.68 25 27.94 23.92 28.17 22.46L28.7 19.04H22.71V17.17C22.71 14.99 23.42 13.05 25.46 13.05H26.75C27.85 13.05 28.75 12.15 28.75 11.05V8.45999C28.17 8.37999 26.95 8.20999 24.64 8.20999C19.83 8.20999 17.01 10.75 17.01 16.55V19.04H15.06C13.4 19.04 12.06 20.38 12.06 22.04V25H17.01V39.78C7.38 38.33 0 30.03 0 20C0 8.94999 8.94999 0 20 0C31.05 0 40 8.94999 40 20Z" fill="#0D8BFF"/>
</svg>
