<svg width="40" height="40" viewBox="0 0 40 40" fill="none" xmlns="http://www.w3.org/2000/svg">
<path d="M31.5789 40H0V8.42105C0 3.77053 3.77053 0 8.42105 0H40V31.5789C40 36.2295 36.2295 40 31.5789 40ZM26.3158 12.1053C26.3158 12.9768 27.0232 13.6842 27.8947 13.6842C28.7663 13.6842 29.4737 12.9768 29.4737 12.1053C29.4737 11.2337 28.7663 10.5263 27.8947 10.5263C27.0232 10.5263 26.3158 11.2337 26.3158 12.1053ZM13.6842 20C13.6842 23.4884 16.5116 26.3158 20 26.3158C23.4884 26.3158 26.3158 23.4884 26.3158 20C26.3158 16.5116 23.4884 13.6842 20 13.6842C16.5116 13.6842 13.6842 16.5116 13.6842 20ZM34.7368 29.4737V5.26316H10.5263C7.62421 5.26316 5.26316 7.62421 5.26316 10.5263V34.7368H29.4737C32.3758 34.7368 34.7368 32.3758 34.7368 29.4737ZM7.36842 10.5263C7.36842 8.78526 8.78526 7.36842 10.5263 7.36842H32.6316V29.4737C32.6316 31.2147 31.2147 32.6316 29.4737 32.6316H7.36842V10.5263Z" fill="#0D8BFF"/>
</svg>
