<svg width="40" height="40" viewBox="0 0 40 40" fill="none" xmlns="http://www.w3.org/2000/svg">
<path d="M20 0C14.6978 0.00485181 9.61442 1.75879 5.86501 4.87704C2.11561 7.99529 0.00636452 12.2232 0 16.6333C0 20.9166 3.98758 27.62 11.8525 36.5566C12.7888 37.6235 14.0147 38.4914 15.4305 39.0898C16.8463 39.6881 18.4119 40 20 40C21.5881 40 23.1537 39.6881 24.5695 39.0898C25.9853 38.4914 27.2112 37.6235 28.1475 36.5566C36.0124 27.62 40 20.9166 40 16.6333C39.9936 12.2232 37.8844 7.99529 34.135 4.87704C30.3856 1.75879 25.3022 0.00485181 20 0ZM20 23.2633C18.4147 23.2633 16.8651 22.8723 15.547 22.1398C14.2289 21.4072 13.2015 20.366 12.5949 19.1479C11.9882 17.9297 11.8295 16.5892 12.1388 15.296C12.448 14.0028 13.2114 12.815 14.3324 11.8826C15.4533 10.9503 16.8815 10.3153 18.4363 10.0581C19.9911 9.80085 21.6027 9.93287 23.0673 10.4375C24.5319 10.942 25.7837 11.7965 26.6644 12.8928C27.5451 13.9892 28.0152 15.2781 28.0152 16.5966C28.0152 18.3647 27.1708 20.0604 25.6676 21.3107C24.1645 22.5609 22.1258 23.2633 20 23.2633Z" fill="#0042FF"/>
</svg>
