<svg width="40" height="40" viewBox="0 0 40 40" fill="none" xmlns="http://www.w3.org/2000/svg">
<path d="M38.3309 18.3323C37.8882 18.3323 37.4637 18.1567 37.1507 17.8442C36.8377 17.5317 36.6618 17.1079 36.6618 16.666C36.6583 13.1316 35.2503 9.743 32.747 7.24383C30.2436 4.74465 26.8494 3.33907 23.3091 3.33554C22.8664 3.33554 22.4419 3.15998 22.1289 2.84749C21.8158 2.535 21.64 2.11117 21.64 1.66924C21.64 1.2273 21.8158 0.803474 22.1289 0.490981C22.4419 0.178489 22.8664 0.00293214 23.3091 0.00293214C27.7343 0.00778374 31.9769 1.76491 35.106 4.88878C38.2351 8.01265 39.9951 12.2481 40 16.666C40 17.1079 39.8242 17.5317 39.5111 17.8442C39.1981 18.1567 38.7736 18.3323 38.3309 18.3323ZM33.3236 16.666C33.3236 14.0144 32.2685 11.4714 30.3904 9.59644C28.5124 7.72148 25.9651 6.66815 23.3091 6.66815C22.8664 6.66815 22.4419 6.8437 22.1289 7.15619C21.8158 7.46869 21.64 7.89252 21.64 8.33445C21.64 8.77638 21.8158 9.20021 22.1289 9.5127C22.4419 9.8252 22.8664 10.0008 23.3091 10.0008C25.0798 10.0008 26.7779 10.703 28.03 11.9529C29.2821 13.2029 29.9855 14.8982 29.9855 16.666C29.9855 17.1079 30.1613 17.5317 30.4743 17.8442C30.7873 18.1567 31.2119 18.3323 31.6545 18.3323C32.0972 18.3323 32.5218 18.1567 32.8348 17.8442C33.1478 17.5317 33.3236 17.1079 33.3236 16.666ZM36.9673 36.9349L38.4861 35.1869C39.4529 34.2187 39.9957 32.9073 39.9957 31.5402C39.9957 30.1731 39.4529 28.8618 38.4861 27.8935C38.4344 27.8419 34.4186 24.7575 34.4186 24.7575C33.4547 23.8416 32.1745 23.3316 30.8439 23.3335C29.5132 23.3353 28.2344 23.8489 27.2732 24.7675L24.0919 27.4436C21.4951 26.3707 19.1362 24.7962 17.1506 22.8105C15.1651 20.8248 13.592 18.4671 12.5218 15.8728L15.1923 12.7068C16.1132 11.7473 16.6282 10.4704 16.6304 9.14161C16.6326 7.81278 16.1217 6.53422 15.204 5.57172C15.204 5.57172 12.1112 1.56759 12.0594 1.51594C11.1071 0.559058 9.81596 0.0146329 8.46491 0.000290684C7.11385 -0.0140516 5.81139 0.50284 4.83893 1.43929L2.91947 3.10559C-8.42033 16.2394 15.9985 40.4291 29.5882 39.9942C30.9605 40.0022 32.3205 39.7355 33.5879 39.2101C34.8552 38.6846 36.0043 37.911 36.9673 36.9349Z" fill="#0D8BFF"/>
</svg>
