<svg width="40" height="40" viewBox="0 0 40 40" fill="none" xmlns="http://www.w3.org/2000/svg">
<path d="M34.1714 5.8158C30.409 2.06729 25.4047 0.00198491 20.0794 0C9.10006 0 0.163865 8.8944 0.158881 19.8283C0.157885 23.1699 1.00506 26.4629 2.6117 29.3777L0.0352938 38.7455C-0.0583937 39.0879 0.0372871 39.4532 0.288449 39.7052C0.477818 39.8958 0.733963 40 0.997086 40C1.0818 40 1.16652 39.9891 1.25024 39.9672L10.905 37.4464C13.7236 38.9033 16.8831 39.6725 20.0715 39.6735C31.0588 39.6735 39.995 30.7781 40 19.8442C40.002 14.5455 37.9319 9.56332 34.1714 5.8158ZM30.5934 27.4514C30.1459 28.6999 27.9532 29.9037 26.9685 29.9931C25.9837 30.0824 25.0598 30.4357 20.524 28.6552C15.0652 26.5115 11.6187 20.9399 11.3506 20.5836C11.0824 20.2273 9.15787 17.6846 9.15787 15.0536C9.15787 12.4226 10.5452 11.1294 11.0386 10.5945C11.531 10.0586 12.112 9.92457 12.4698 9.92457C12.8276 9.92457 13.1854 9.92358 13.4984 9.93747C13.8821 9.95335 14.3057 9.97122 14.7074 10.8615C15.1848 11.9184 16.2283 14.5633 16.3608 14.8313C16.4954 15.0983 16.5851 15.4109 16.4057 15.7682C16.2273 16.1245 16.1376 16.3478 15.8695 16.6594C15.6004 16.972 15.3044 17.3561 15.0632 17.5963C14.7941 17.8632 14.514 18.153 14.828 18.687C15.1419 19.2219 16.2193 20.9726 17.815 22.3898C19.8671 24.211 21.5974 24.7747 22.1336 25.0437C22.6698 25.3116 22.9838 25.267 23.2977 24.9097C23.6117 24.5534 24.6402 23.3486 24.998 22.8146C25.3568 22.2797 25.7146 22.368 26.207 22.5466C26.6994 22.7253 29.3406 24.0175 29.8768 24.2864C30.413 24.5544 30.7708 24.6874 30.9053 24.9107C31.0409 25.133 31.0409 26.2029 30.5934 27.4514Z" fill="#0042FF"/>
</svg>
