<svg width="41" height="40" viewBox="0 0 41 40" fill="none" xmlns="http://www.w3.org/2000/svg">
<path d="M40.2138 20C40.2138 30.13 32.699 38.5 22.9358 39.81V25H25.424C26.903 25 28.1621 23.92 28.392 22.46L28.9216 19.04H22.9358V17.17C22.9358 14.99 23.6453 13.05 25.6839 13.05H26.973C28.0722 13.05 28.9716 12.15 28.9716 11.05V8.45999C28.392 8.37999 27.1728 8.20999 24.8644 8.20999C20.0578 8.20999 17.2397 10.75 17.2397 16.55V19.04H15.2911C13.6322 19.04 12.2932 20.38 12.2932 22.04V25H17.2397V39.78C7.61642 38.33 0.241547 30.03 0.241547 20C0.241547 8.94999 9.18533 0 20.2277 0C31.27 0 40.2138 8.94999 40.2138 20Z" fill="url(#paint0_diamond_75_24)"/>
<defs>
<radialGradient id="paint0_diamond_75_24" cx="0" cy="0" r="1" gradientUnits="userSpaceOnUse" gradientTransform="translate(16.941 23.8058) rotate(-49.8853) scale(47.881 47.9145)">
<stop stop-color="#0D8BFF"/>
<stop offset="1" stop-color="white"/>
</radialGradient>
</defs>
</svg>
