<svg width="41" height="40" viewBox="0 0 41 40" fill="none" xmlns="http://www.w3.org/2000/svg">
<path d="M31.8819 40H0.324829V8.42105C0.324829 3.77053 4.09274 0 8.74004 0H40.2971V31.5789C40.2971 36.2295 36.5292 40 31.8819 40ZM26.6224 12.1053C26.6224 12.9768 27.3292 13.6842 28.2002 13.6842C29.0712 13.6842 29.7781 12.9768 29.7781 12.1053C29.7781 11.2337 29.0712 10.5263 28.2002 10.5263C27.3292 10.5263 26.6224 11.2337 26.6224 12.1053ZM13.9995 20C13.9995 23.4884 16.8249 26.3158 20.311 26.3158C23.797 26.3158 26.6224 23.4884 26.6224 20C26.6224 16.5116 23.797 13.6842 20.311 13.6842C16.8249 13.6842 13.9995 16.5116 13.9995 20ZM35.0376 29.4737V5.26316H10.8438C7.94375 5.26316 5.58433 7.62421 5.58433 10.5263V34.7368H29.7781C32.6782 34.7368 35.0376 32.3758 35.0376 29.4737ZM7.68814 10.5263C7.68814 8.78526 9.104 7.36842 10.8438 7.36842H32.9338V29.4737C32.9338 31.2147 31.5179 32.6316 29.7781 32.6316H7.68814V10.5263Z" fill="url(#paint0_diamond_68_34)"/>
<defs>
<radialGradient id="paint0_diamond_68_34" cx="0" cy="0" r="1" gradientUnits="userSpaceOnUse" gradientTransform="translate(17.0243 23.9195) rotate(-50.0197) scale(48.0148 48.009)">
<stop stop-color="#0D8BFF"/>
<stop offset="1" stop-color="white"/>
</radialGradient>
</defs>
</svg>
