<svg width="216" height="72" viewBox="0 0 216 72" fill="none" xmlns="http://www.w3.org/2000/svg">
<path d="M110.106 16.5791C118.131 16.5791 125.379 19.1695 130.815 23.0552C131.074 23.3142 131.333 23.5733 131.592 23.8323C131.074 23.8323 130.556 24.0914 130.039 24.0914C129.78 24.0914 129.521 24.3504 129.262 24.3504C124.344 20.7238 117.354 18.6515 110.106 18.3924H109.847C108.294 18.3924 107 18.3924 105.446 18.6515C105.188 18.6515 105.188 18.6515 104.929 18.6515H97.1628C101.046 17.3562 105.188 16.5791 109.588 16.8381H109.847L110.106 16.5791ZM134.698 26.6818C134.957 26.9409 135.216 27.1999 135.475 27.718C135.475 27.977 135.475 27.977 135.475 28.2361C135.475 28.7542 135.216 29.5313 135.216 30.0494C134.439 28.7542 133.404 27.4589 132.109 26.4228C132.627 26.4228 132.886 26.4228 133.145 26.4228C133.663 26.4228 134.18 26.4228 134.439 26.6818H134.698ZM137.804 31.3446C138.322 32.6398 138.84 33.935 139.099 35.2303C138.581 36.0074 138.063 36.5255 137.804 37.3026C137.804 36.0074 137.287 34.7122 136.769 33.4169C137.028 32.8989 137.287 32.6398 137.546 32.1217C137.546 31.8627 137.804 31.6036 137.804 31.3446ZM139.358 40.4111C139.099 42.4835 138.581 44.5558 137.546 46.3691C137.287 46.1101 137.028 46.1101 136.51 46.1101C136.251 46.1101 135.734 46.3691 135.475 46.6282L135.216 46.8872C135.475 46.3691 135.734 46.1101 135.992 45.592C136.51 45.0739 137.287 44.8149 137.804 44.2968C138.063 44.0377 138.322 43.7787 138.322 43.5197C138.581 42.7425 138.581 42.2244 138.84 41.7063C138.84 41.4473 139.099 40.9292 139.358 40.6702V40.4111ZM122.014 58.2851C118.39 59.5804 114.248 60.0985 109.847 60.0985H109.588C106.482 60.0985 103.376 59.5804 100.528 58.8032H104.67C105.188 58.8032 105.964 58.2851 105.964 57.7671C107.259 57.7671 108.294 58.0261 109.588 58.0261H109.847C112.436 58.0261 114.766 57.7671 117.354 57.508C118.39 58.0261 119.425 58.2851 120.719 58.2851C121.237 58.2851 121.496 58.2851 122.014 58.2851ZM95.6096 57.249C93.2798 56.2128 90.9501 54.9176 89.138 53.6224C84.9962 50.5138 81.8898 46.3691 80.8544 41.7063V36.5255H82.1487C82.1487 37.0436 82.1487 37.5616 82.1487 38.0797C82.1487 43.5197 85.2551 48.4415 90.1735 52.0681C91.9855 53.3633 93.7976 54.3995 95.8685 55.4357V57.508L95.6096 57.249ZM81.1132 33.4169C81.3721 32.6398 81.631 31.8627 81.8898 31.0856H83.7019C83.1841 31.8627 82.9253 32.6398 82.6664 33.4169C82.4076 33.4169 82.4076 33.4169 82.1487 33.4169H81.1132ZM83.7019 28.2361C85.2551 26.1637 87.0671 24.0914 89.3969 22.5371C91.4678 20.9828 93.7976 19.6876 96.6451 18.9105C96.3862 19.1695 96.1274 19.4286 96.1274 19.9467V20.9828C94.0564 21.76 91.9855 22.7962 90.4323 24.0914C88.6203 25.3866 87.0671 26.6818 86.0317 28.2361C85.7728 28.2361 85.2551 28.2361 84.9962 28.2361H83.9607H83.7019Z" fill="#F8E53F"/>
<path d="M138.322 0.259044C154.889 0.518088 170.162 4.66279 181.035 11.1389L181.552 11.3979C181.035 11.916 180.776 12.1751 180.258 12.6931C169.645 6.21705 154.631 2.33139 138.322 2.07235H137.804C121.496 1.81331 106.741 5.69896 95.8685 11.657C88.1025 16.0607 82.4075 21.7597 79.8189 27.9767H78.0068C80.5955 20.9825 86.5494 14.5065 95.0919 9.84366C105.964 3.62661 121.237 0 137.804 0H138.322V0.259044ZM184.141 13.2112C184.659 13.4703 185.177 13.7293 185.435 14.2474C184.918 14.7655 184.659 15.0245 184.141 15.5426C183.623 15.2836 183.106 14.7655 182.588 14.5065C182.847 14.2474 183.106 13.9884 183.364 13.7293C183.623 13.4703 183.623 13.4703 183.882 13.2112H184.141ZM188.801 16.8378C189.318 17.3559 189.836 17.874 190.354 18.1331C190.095 18.6512 189.836 19.1692 189.577 19.9464C189.06 19.4283 188.542 19.1692 188.283 18.6512C188.542 18.1331 188.801 17.615 189.06 16.8378H188.801ZM192.425 20.4645C193.201 21.2416 193.719 22.0187 194.237 22.7959C193.978 23.3139 193.719 23.573 193.46 24.0911L193.201 24.3501C192.684 23.573 192.166 22.7959 191.648 22.2778C191.907 21.7597 192.166 21.2416 192.425 20.4645ZM196.049 25.3863C196.567 26.4225 197.084 27.1996 197.343 28.2358C197.084 28.4948 197.084 29.0129 196.825 29.2719C196.567 29.531 196.567 29.79 196.308 30.3081C196.049 29.2719 195.531 28.2358 195.013 26.9406C195.272 26.4225 195.531 26.1634 195.79 25.6453L196.049 25.3863ZM199.155 34.7119C199.155 34.9709 199.155 35.489 199.155 35.748C198.637 36.2661 198.12 36.5252 197.602 37.0433C197.602 36.7842 197.602 36.5252 197.602 36.2661C198.12 35.748 198.637 35.489 199.155 34.9709V34.7119ZM199.155 39.6337C198.637 42.4832 197.861 45.0736 196.308 47.6641C196.049 47.146 195.79 46.6279 195.79 45.8507C195.79 45.5917 195.79 45.5917 195.79 45.3327C196.567 44.0374 197.084 42.4832 197.343 40.9289C198.12 40.4108 198.637 39.8927 199.155 39.3747V39.6337ZM194.755 50.2545C193.719 51.8088 192.425 53.363 190.872 54.6582C190.354 54.3992 190.095 53.8811 189.577 53.363C191.13 51.8088 192.425 50.2545 193.719 48.7002C193.719 48.7002 193.719 48.9593 193.978 48.9593C194.237 49.4774 194.496 49.7364 194.755 50.2545ZM188.801 56.7306C186.471 58.5439 184.141 60.3572 181.294 61.9115C170.421 68.1285 155.148 71.7551 138.84 71.7551H138.322C121.755 71.4961 106.482 67.3514 95.6096 60.8753C89.3969 57.2487 84.4784 52.5859 81.3721 47.6641V44.2965C83.9607 49.9955 89.3969 55.1763 96.3862 59.321C107 65.7971 122.014 69.6828 138.322 69.9418H138.84C155.148 70.2009 169.904 66.3152 180.776 60.3572C183.365 58.8029 185.694 57.2487 187.765 55.4354C188.024 55.9535 188.542 56.4715 189.06 56.7306H188.801ZM78.5246 41.188C78.0068 39.1156 77.748 37.0433 77.748 34.9709C77.748 33.6757 78.0068 32.1214 78.2657 30.8262H79.8189C79.56 31.6033 79.56 32.6395 79.3012 33.4166C78.7834 33.6757 78.5246 34.1938 78.5246 34.7119V41.188Z" fill="#2079FF"/>
<path fill-rule="evenodd" clip-rule="evenodd" d="M136.51 47.405C133.921 49.9954 131.333 52.0678 129.003 53.622C125.638 55.9534 122.79 56.9896 120.46 56.9896C118.131 56.9896 116.06 55.6944 114.248 53.104C112.436 50.5135 111.4 47.664 111.659 44.5555C111.659 42.2241 112.436 39.6337 113.73 37.5613C115.024 35.2299 117.095 33.1576 119.684 31.0852C122.014 29.2719 124.343 27.7177 126.932 26.6815C129.521 25.6453 131.592 25.1272 133.145 25.1272C134.439 25.1272 135.475 25.3863 135.992 25.9044C136.51 26.4225 136.769 27.1996 136.769 28.2358C136.769 30.3081 135.733 32.3805 133.663 34.9709C131.592 37.3023 129.78 38.5975 128.485 38.5975C127.968 38.5975 127.45 38.3385 127.191 38.0794C126.932 37.5613 126.673 37.0432 126.673 36.0071C124.343 37.3023 122.531 38.5975 120.978 39.8927C119.425 41.188 118.131 42.4832 117.095 43.7784V44.5555C117.095 46.1098 117.613 47.664 118.39 48.4412C119.166 49.4774 120.46 49.9954 122.014 49.9954C124.343 49.9954 126.932 49.2183 129.78 47.664C131.851 46.6279 133.921 45.0736 136.251 43.2603C136.51 41.706 137.028 40.4108 137.804 39.1156C139.099 36.7842 140.911 34.4528 143.241 32.3805C145.57 30.3081 148.159 28.7538 150.748 27.4586C153.336 26.4225 155.925 25.9044 158.514 25.9044C160.584 25.9044 161.879 26.1634 162.914 26.6815C163.95 27.1996 164.209 28.2358 164.209 29.2719C164.209 31.8624 162.138 34.7119 158.255 37.5613C154.372 40.4108 149.453 42.4832 143.758 43.7784V44.0374C143.758 45.8507 144.276 47.146 145.053 48.1821C146.088 49.2183 147.382 49.7364 148.936 49.7364C151.006 49.7364 153.595 48.9593 156.701 47.405C158.772 46.3688 160.843 44.8146 163.173 43.0013C163.691 39.8927 164.985 36.2661 167.056 32.3805C169.645 26.9405 173.269 22.0187 177.669 16.8378C180.517 13.7293 183.106 11.1389 185.694 9.06652C188.283 6.99417 190.095 6.21704 191.13 6.21704C191.648 6.21704 191.907 6.47608 192.425 6.99417C192.684 7.51226 192.942 8.03035 192.942 9.06652C192.942 14.5064 190.872 19.9464 187.247 25.6453C183.364 31.3443 178.187 36.5252 171.198 41.447V43.0013C171.198 45.3326 171.457 47.146 172.233 48.4412C173.01 49.7364 174.045 50.2545 175.34 50.2545C176.116 50.2545 177.411 49.7364 179.223 48.7002C180.517 47.9231 182.588 46.1098 185.694 43.7784C186.212 40.6699 187.506 37.3023 189.577 33.1576C192.166 27.7177 195.79 22.7958 200.191 17.615C203.038 14.5064 205.627 11.916 208.215 9.84365C210.804 7.7713 212.616 6.99417 213.652 6.99417C214.169 6.99417 214.428 7.25322 214.946 7.7713C215.205 8.28939 215.464 8.80748 215.464 9.84365C215.464 15.2836 213.393 20.7235 209.769 26.4225C205.886 32.1214 200.708 37.3023 193.719 42.2241V43.7784C193.719 46.1098 193.978 47.9231 194.754 49.2183C195.531 50.5135 196.308 51.0316 197.861 51.0316C198.637 51.0316 199.932 50.5135 201.744 49.4773C203.297 48.4412 206.403 45.8507 211.063 41.9651V45.3326L209.251 47.146C201.485 54.6582 196.308 58.5439 193.719 58.5439C191.389 58.5439 189.577 57.2487 188.024 55.1763C186.73 53.363 185.953 51.0316 185.953 48.4412C178.964 55.1763 174.304 58.5439 171.716 58.5439C169.386 58.5439 167.574 57.2487 166.021 55.1763C164.726 53.363 163.95 51.0316 163.95 48.4412C160.843 51.2907 158.255 53.622 155.666 54.9173C152.301 56.9896 149.194 58.0258 146.088 57.7668C142.982 57.7668 140.911 56.7306 139.358 54.9173C138.063 53.363 137.287 51.2907 137.028 48.4412L136.51 47.405ZM144.535 40.4108C148.936 38.5975 152.301 36.7842 154.889 35.2299C157.478 33.4166 158.514 32.1214 158.514 30.8262C158.514 30.5672 158.514 30.3081 158.514 30.0491C158.514 29.79 158.255 29.79 157.996 29.79C156.184 29.79 154.113 30.8262 151.265 32.6395C148.418 34.7119 146.347 37.3023 144.535 40.1518V40.4108ZM173.01 35.2299C176.634 32.6395 179.481 29.531 182.07 25.9044C184.659 22.2778 186.471 17.874 188.024 13.2112C184.4 16.8378 181.294 20.4644 178.964 24.0911C176.375 27.7177 174.563 31.6033 173.01 35.2299ZM195.013 35.489C198.637 32.8986 201.485 29.79 204.074 26.1634C206.662 22.5368 208.474 18.1331 210.027 13.4703C206.403 17.0969 203.297 20.7235 200.967 24.3501C198.379 27.9767 196.567 31.8624 195.013 35.489Z" fill="#FEFEFE"/>
<path fill-rule="evenodd" clip-rule="evenodd" d="M15.3617 18.6511L36.5886 18.9102V25.6453L16.6561 25.3863C12.5142 25.3863 10.4433 26.9405 10.1845 30.3081C10.1845 31.6033 10.7022 32.6395 11.4788 33.4166C12.5142 34.1938 13.5497 34.4528 15.1029 34.4528L25.7163 34.7118C27.7872 34.7118 29.5993 34.9709 31.1524 35.2299C32.7056 35.489 34 36.5251 35.5531 37.8204C37.1063 39.1156 37.8829 41.706 37.8829 45.5917C37.8829 46.6279 37.8829 47.405 37.624 48.4412C37.3652 49.2183 37.1063 50.2545 36.5886 51.5497C36.0709 52.5859 35.2943 53.622 34 54.6582C32.7056 55.4353 31.4113 56.2125 29.8581 56.4715C28.3049 56.7306 26.4929 56.9896 24.1631 56.9896L2.6774 56.7306V49.9954L22.8688 50.2545C24.9397 50.2545 26.4929 49.9954 27.5284 49.4773C28.5638 48.9592 29.0815 47.9231 29.0815 46.1098V45.3326C29.0815 44.2965 28.8227 43.5193 28.3049 43.0012C27.7872 42.4832 27.0106 42.2241 26.234 41.9651C25.4574 41.706 24.422 41.706 23.3865 41.706L13.8086 41.447C9.66673 41.447 6.56036 40.4108 4.23059 38.8565C1.90081 37.0432 0.865356 34.4528 0.865356 30.3081C0.865356 28.2357 1.12422 26.4224 1.90081 24.8682C2.6774 23.3139 3.454 22.0187 4.74832 21.2416C6.04264 20.4644 7.33696 19.9463 8.89014 19.4283C10.1845 19.1692 12.2554 18.9102 14.5851 18.9102L15.3617 18.6511ZM66.8757 51.2906V56.9896L56.0034 56.7306C51.085 56.7306 47.7197 55.4353 45.39 52.8449C43.0602 50.2545 42.0247 46.8869 42.0247 42.7422C42.0247 38.5975 43.0602 35.489 44.8722 33.6757C46.6843 31.6033 48.4963 30.5671 50.3084 30.049C52.1204 29.531 54.1913 29.2719 56.2623 29.2719L67.1345 29.531V35.2299L57.2977 34.9709C55.7445 34.9709 54.4502 34.9709 53.4148 35.2299C52.3793 35.489 51.8616 36.0071 51.085 36.7842C50.3084 37.5613 50.0495 38.5975 50.0495 40.1518L66.8757 40.4108V46.1098L50.0495 45.8507C50.0495 47.405 50.3084 48.4412 50.8261 49.2183C51.3438 49.9954 52.1204 50.5135 53.1559 50.7726C54.1913 51.0316 55.4857 51.0316 57.0389 51.0316L66.8757 51.2906ZM79.0423 57.2486H71.5352L71.7941 29.79L84.2196 30.049C86.5493 30.049 88.1025 30.3081 89.3969 31.0852C90.4323 31.6033 91.2089 32.6395 91.4678 33.6757C91.7266 34.7118 91.9855 36.2661 91.9855 38.0794V39.8927V41.447H84.9962V39.3746C84.9962 37.8204 84.9962 37.0432 84.7373 36.5251C84.4784 36.0071 84.2196 35.748 83.7018 35.489C83.1841 35.489 82.9252 35.2299 82.4075 35.2299C82.1487 35.2299 81.3721 35.2299 80.5955 35.2299H79.0423L78.7834 57.5077L79.0423 57.2486ZM97.1628 30.049H104.929L104.67 57.5077H96.9039L97.1628 30.049ZM97.1628 19.9463H104.929V26.6815H97.1628V19.9463Z" fill="#FEFEFE"/>
</svg>
