<svg width="41" height="40" viewBox="0 0 41 40" fill="none" xmlns="http://www.w3.org/2000/svg">
<path d="M34.4309 5.8158C30.6711 2.06729 25.6702 0.00198491 20.3487 0C9.37693 0 0.446939 8.8944 0.441959 19.8283C0.440963 23.1699 1.28755 26.4629 2.89308 29.3777L0.318457 38.7455C0.224835 39.0879 0.320449 39.4532 0.571437 39.7052C0.760674 39.8958 1.01664 40 1.27958 40C1.36424 40 1.4489 39.9891 1.53256 39.9672L11.1807 37.4464C13.9973 38.9033 17.1546 39.6725 20.3407 39.6735C31.3205 39.6735 40.2504 30.7781 40.2554 19.8442C40.2574 14.5455 38.1888 9.56332 34.4309 5.8158ZM30.8553 27.4514C30.4081 28.6999 28.217 29.9037 27.2329 29.9931C26.2489 30.0824 25.3256 30.4357 20.7929 28.6552C15.3379 26.5115 11.8938 20.9399 11.6259 20.5836C11.3579 20.2273 9.4347 17.6846 9.4347 15.0536C9.4347 12.4226 10.8211 11.1294 11.3141 10.5945C11.8061 10.0586 12.3868 9.92457 12.7444 9.92457C13.1019 9.92457 13.4595 9.92358 13.7722 9.93747C14.1557 9.95335 14.579 9.97122 14.9803 10.8615C15.4574 11.9184 16.5002 14.5633 16.6327 14.8313C16.7671 15.0983 16.8568 15.4109 16.6775 15.7682C16.4992 16.1245 16.4096 16.3478 16.1417 16.6594C15.8727 16.972 15.5769 17.3561 15.3359 17.5963C15.067 17.8632 14.7871 18.153 15.1009 18.687C15.4146 19.2219 16.4912 20.9726 18.0858 22.3898C20.1366 24.211 21.8656 24.7747 22.4014 25.0437C22.9373 25.3116 23.251 25.267 23.5647 24.9097C23.8785 24.5534 24.9063 23.3486 25.2639 22.8146C25.6224 22.2797 25.98 22.368 26.472 22.5466C26.964 22.7253 29.6034 24.0175 30.1392 24.2864C30.6751 24.5544 31.0326 24.6874 31.1671 24.9107C31.3025 25.133 31.3025 26.2029 30.8553 27.4514Z" fill="url(#paint0_diamond_69_40)"/>
<defs>
<radialGradient id="paint0_diamond_69_40" cx="0" cy="0" r="1" gradientUnits="userSpaceOnUse" gradientTransform="translate(16.9826 23.9195) rotate(-50.0197) scale(48.0148 48.009)">
<stop stop-color="#0D8BFF"/>
<stop offset="1" stop-color="white"/>
</radialGradient>
</defs>
</svg>
