<svg width="35" height="35" viewBox="0 0 35 35" fill="none" xmlns="http://www.w3.org/2000/svg">
<path d="M17.4419 35C13.9014 35 10.5776 33.9876 7.68743 32.0351L0.678645 34.3492C0.461879 34.4215 0.317369 34.3492 0.172858 34.2045C0.0283466 34.0599 -0.0439094 33.843 0.0283461 33.6983L2.41278 26.3946C0.823157 23.719 0.0283461 20.6818 0.0283461 17.5C0.0283461 7.88223 7.90419 0 17.5142 0C27.1241 0 35 7.88223 35 17.5C35 27.1178 27.0519 35 17.4419 35ZM7.75968 30.9504C7.83194 30.9504 7.97645 30.9504 8.0487 31.0227C10.7944 32.9752 14.0459 33.9876 17.4419 33.9876C26.5461 33.9876 33.9162 26.6116 33.9162 17.5C33.9162 8.38843 26.5461 1.0124 17.4419 1.0124C8.33773 1.0124 0.967668 8.38843 0.967668 17.5C0.967668 20.5372 1.76248 23.5021 3.3521 26.0331C3.42435 26.1777 3.42435 26.3223 3.42435 26.4669L1.25669 33.0475L7.54292 30.9504C7.61517 30.9504 7.68743 30.9504 7.75968 30.9504Z" fill="#00CDFF"/>
<path d="M28.1187 9.5409C25.533 6.21636 21.5435 4 16.9631 4C9.27968 4 3 10.2797 3 17.9631C3 20.8443 3.88655 23.5778 5.438 25.7942L3.96042 30.3747L8.39314 28.971C10.7573 30.8179 13.7863 32 17.0369 32C24.7203 32 31 25.7203 31 18.0369C31 17.2243 30.9261 16.4855 30.7784 15.6728" fill="#00CDFF"/>
<path d="M17.4627 32C14.2571 32 11.2005 30.9536 8.66581 29.0103L4.41645 30.4304C4.26735 30.5052 4.11825 30.4304 4.0437 30.3557C3.96915 30.2809 3.8946 30.1314 3.96915 29.982L5.3856 25.4974C3.82005 23.1057 3 20.3402 3 17.5C3 9.50258 9.48586 3 17.4627 3C22.0103 3 26.2596 5.09278 29.018 8.75515C29.1671 8.90464 29.0925 9.12887 28.9434 9.27835C28.7943 9.42783 28.5707 9.35309 28.4216 9.20361C25.8123 5.76546 21.7866 3.74742 17.4627 3.74742C9.93316 3.74742 3.7455 9.95103 3.7455 17.5C3.7455 20.2655 4.56555 22.9562 6.13111 25.1985C6.20566 25.2732 6.20566 25.4227 6.20566 25.4974L4.93831 29.4588L8.66581 28.2629C8.81491 28.1881 8.88946 28.2629 9.03856 28.3376C11.4987 30.2809 14.4062 31.3273 17.5373 31.3273C25.0668 31.3273 31.2545 25.1237 31.2545 17.5747C31.2545 16.8273 31.1799 16.0052 31.0308 15.2577C31.0308 15.0335 31.1054 14.884 31.329 14.8093C31.5527 14.8093 31.7018 14.884 31.7763 15.1082C31.9254 15.9304 32 16.7526 32 17.5C31.9255 25.4974 25.4396 32 17.4627 32Z" fill="#3D3D3D"/>
<path d="M30.4046 13.4073C30.1129 12.605 29.7482 11.8028 29.3835 11.0005Z" fill="#00CDFF"/>
<path d="M30.4048 13.7718C30.259 13.7718 30.1131 13.6989 30.0402 13.553C29.7484 12.7507 29.4567 11.9484 29.0191 11.2191C28.9462 11.0732 29.0191 10.8544 29.165 10.7085C29.3108 10.6356 29.5296 10.7085 29.6755 10.8544C30.1131 11.6567 30.4778 12.459 30.7695 13.2613C30.8425 13.4801 30.6966 13.6259 30.5507 13.6989C30.4778 13.7718 30.4048 13.7718 30.4048 13.7718Z" fill="white"/>
<path d="M22.8198 25.1496C21.7987 25.1496 20.34 24.7849 18.2249 23.9097C15.4534 22.8157 12.6819 20.5547 10.4209 17.4914L10.275 17.3456C9.61861 16.4703 8.45166 14.7199 8.45166 12.9695C8.37873 11.6567 8.9622 10.3438 10.0562 9.46862C10.4209 9.17688 10.9314 9.03101 11.369 9.03101H11.5149H12.0255C12.0255 9.03101 12.0984 9.03101 12.1713 9.03101C12.2443 9.03101 12.2443 9.03101 12.3172 9.03101C12.3901 9.03101 12.4631 9.10394 12.536 9.17688C12.6819 9.32274 12.7548 9.46861 12.8277 9.68742L13.4112 10.9273C13.8488 11.8755 14.2135 12.7507 14.2864 12.8236C14.3594 12.8965 14.5052 13.1883 14.3594 13.48C14.2135 13.6988 14.0676 13.9176 13.9218 14.0635C13.8488 14.2094 13.7759 14.2823 13.703 14.3552L13.4841 14.4282C13.4112 14.5011 13.1924 14.7199 13.0465 14.8658C12.6819 15.2304 12.6089 15.6681 12.8277 16.0327C13.5571 17.1997 14.4323 18.2208 15.5263 19.096C16.6203 20.0441 17.8602 20.7735 19.246 21.284L19.3919 21.357C19.5377 21.4299 19.7565 21.5028 19.9753 21.5028C20.34 21.5028 20.6317 21.357 20.8505 21.1382C21.2152 20.7005 21.5799 20.2629 21.9446 19.8253L22.1634 19.5336C22.2363 19.4607 22.3822 19.2419 22.6739 19.2419C22.7468 19.2419 22.8927 19.2419 22.9657 19.3148C23.3303 19.4607 25.3725 20.3359 26.1018 20.7005L26.3936 20.8464L26.7583 20.9923C26.9041 21.0652 26.9771 21.1382 26.9771 21.284C26.9771 21.9404 26.9041 22.5239 26.6853 23.1074C26.3206 23.9826 24.862 24.8578 23.695 25.0766C23.4762 25.1496 23.1845 25.1496 22.8198 25.1496Z" fill="#3D3D3D"/>
</svg>
